{"glyphs":{"0":{"ha":772,"x_min":0,"x_max":0,"o":"m 386 1000 b 53 492 168 1000 53 808 b 386 -17 53 175 168 -17 b 719 492 604 -17 719 174 b 386 1000 719 808 604 1000 z m 169 492 b 385 900 169 763 249 900 b 603 492 528 900 603 757 b 386 83 603 225 526 83 b 169 492 246 83 169 226 z "},"1":{"ha":772,"x_min":0,"x_max":0,"o":"m 500 983 l 399 983 l 135 769 l 204 685 l 381 833 l 383 833 l 383 0 l 500 0 z "},"2":{"ha":772,"x_min":0,"x_max":0,"o":"m 396 1000 b 88 754 233 1000 114 911 l 214 743 b 400 900 232 839 301 900 b 579 733 501 900 579 832 b 447 501 579 679 575 625 l 69 133 l 69 0 l 703 0 l 703 108 l 201 108 l 201 111 l 504 396 b 696 733 621 507 696 583 b 396 1000 696 897 571 1000 z "},"3":{"ha":772,"x_min":0,"x_max":0,"o":"m 367 1000 b 82 833 235 1000 128 940 l 194 790 b 375 900 229 863 293 900 b 543 738 475 900 543 833 b 321 567 543 618 465 567 l 283 567 l 283 467 l 313 467 b 568 276 483 467 568 394 b 368 83 568 168 483 83 b 169 229 253 83 200 131 l 51 190 b 368 -17 97 57 207 -17 b 693 268 560 -17 693 94 b 492 515 693 392 615 493 l 492 518 b 660 744 593 551 660 643 b 367 1000 660 901 536 1000 z "},"4":{"ha":772,"x_min":0,"x_max":0,"o":"m 49 225 l 465 225 l 465 0 l 582 0 l 582 225 l 724 225 l 724 333 l 582 333 l 582 983 l 439 983 l 49 354 z m 463 847 l 465 847 l 465 333 l 149 333 z "},"5":{"ha":772,"x_min":0,"x_max":0,"o":"m 658 983 l 143 983 l 133 472 b 333 533 193 507 267 533 b 576 310 482 533 576 444 b 365 83 576 176 488 83 b 182 207 283 83 218 129 l 65 163 b 356 -17 125 42 222 -17 b 693 310 551 -17 693 118 b 379 633 693 501 561 633 b 253 610 339 633 292 628 l 257 875 l 658 875 z "},"6":{"ha":772,"x_min":0,"x_max":0,"o":"m 547 983 l 411 983 l 150 568 b 57 292 81 458 57 383 b 386 -17 57 106 196 -17 b 715 292 579 -17 715 108 b 418 600 715 475 588 600 b 286 571 369 600 318 588 l 283 574 z m 174 292 b 385 500 174 414 265 500 b 599 292 507 500 599 415 b 386 83 599 174 514 83 b 174 292 258 83 174 174 z "},"7":{"ha":772,"x_min":0,"x_max":0,"o":"m 667 983 l 67 983 l 67 875 l 542 875 l 142 0 l 274 0 l 667 875 z "},"8":{"ha":772,"x_min":0,"x_max":0,"o":"m 386 1000 b 106 744 226 1000 106 894 b 267 526 106 646 167 554 l 267 524 b 72 271 146 496 72 393 b 386 -17 72 100 204 -17 b 700 271 572 -17 700 103 b 506 524 700 394 624 497 l 506 526 b 667 744 606 556 667 649 b 386 1000 667 890 550 1000 z m 222 738 b 385 900 222 832 290 900 b 550 738 481 900 550 833 b 386 575 550 642 481 575 b 222 738 292 575 222 643 z m 189 279 b 385 475 189 396 281 475 b 583 279 497 475 583 392 b 386 83 583 169 500 83 b 189 279 272 83 189 168 z "},"9":{"ha":772,"x_min":0,"x_max":0,"o":"m 389 1000 b 57 688 197 1000 57 882 b 353 383 57 514 182 383 b 486 413 397 383 447 392 l 489 410 l 225 0 l 361 0 l 615 404 b 715 692 707 549 715 621 b 389 1000 715 879 574 1000 z m 174 692 b 385 900 174 814 265 900 b 599 692 508 900 599 813 b 386 483 599 568 508 483 b 174 692 264 483 174 568 z "},"\u0000":{"ha":0,"x_min":0,"x_max":0,"o":""},"\r":{"ha":386,"x_min":0,"x_max":0,"o":""}," ":{"ha":386,"x_min":0,"x_max":0,"o":""},"!":{"ha":386,"x_min":0,"x_max":0,"o":"m 251 983 l 135 983 l 135 275 l 251 275 z m 276 75 b 193 158 276 119 239 158 b 110 75 147 158 110 121 b 193 -8 110 31 150 -8 b 276 75 238 -8 276 31 z "},"\"":{"ha":721,"x_min":0,"x_max":0,"o":"m 413 650 l 513 650 l 513 983 l 413 983 z m 208 650 l 308 650 l 308 983 l 208 983 z "},"#":{"ha":772,"x_min":0,"x_max":0,"o":"m 178 296 l 136 0 l 229 0 l 271 296 l 446 296 l 404 0 l 497 0 l 539 296 l 689 296 l 689 388 l 553 388 l 582 599 l 731 599 l 731 690 l 594 690 l 636 983 l 543 983 l 501 690 l 326 690 l 368 983 l 275 983 l 233 690 l 83 690 l 83 599 l 219 599 l 192 388 l 42 388 l 42 296 z m 314 599 l 489 599 l 460 388 l 285 388 z "},"$":{"ha":772,"x_min":0,"x_max":0,"o":"m 356 -17 l 356 -115 l 422 -115 l 422 -17 b 714 264 599 -3 714 113 b 422 546 714 407 633 483 l 422 892 b 600 804 494 892 557 860 l 693 889 b 422 1000 631 956 533 1000 l 422 1092 l 356 1092 l 356 1000 b 81 726 196 983 81 871 b 356 444 81 586 168 494 l 356 92 b 156 197 274 94 193 138 l 58 113 b 356 -17 119 31 221 -17 z m 422 426 b 589 258 540 392 589 338 b 422 92 589 174 522 104 z m 206 725 b 356 892 206 808 261 874 l 356 564 b 206 725 224 613 206 667 z "},"%":{"ha":1157,"x_min":0,"x_max":0,"o":"m 929 983 l 853 1028 l 236 0 l 313 -44 z m 296 1000 b 53 757 158 1000 53 890 b 297 514 53 624 158 514 b 539 757 432 514 539 624 b 296 1000 539 892 433 1000 z m 153 757 b 294 900 153 836 224 900 b 439 757 374 900 439 832 b 296 614 439 681 372 614 b 153 757 222 614 153 678 z m 861 469 b 618 226 724 469 618 360 b 861 -17 618 92 726 -17 b 1104 226 1003 -17 1104 97 b 861 469 1104 358 999 469 z m 718 226 b 861 369 718 307 788 369 b 1004 226 938 369 1004 303 b 861 83 1004 151 939 83 b 718 226 785 83 718 150 z "},"&":{"ha":1003,"x_min":0,"x_max":0,"o":"m 438 1001 b 183 776 296 1001 183 915 b 301 549 183 703 214 636 b 83 264 157 481 83 382 b 396 -17 83 100 217 -17 b 690 142 514 -17 601 29 l 824 0 l 983 0 l 758 231 l 947 533 l 815 533 l 683 313 l 475 533 b 683 783 615 606 683 685 b 438 1001 683 915 583 1001 z m 300 769 b 440 901 300 846 361 901 b 567 786 514 901 567 854 b 403 604 567 725 539 675 b 300 769 310 696 300 732 z m 200 268 b 374 478 200 344 239 404 l 619 219 b 392 83 529 115 468 83 b 200 268 286 83 200 167 z "},"'":{"ha":386,"x_min":0,"x_max":0,"o":"m 243 983 l 143 983 l 143 650 l 243 650 z "},"(":{"ha":386,"x_min":0,"x_max":0,"o":"m 354 961 l 279 1017 b 76 401 150 840 76 629 b 279 -217 76 186 147 -35 l 354 -164 b 176 400 231 33 176 171 b 354 961 176 604 236 799 z "},")":{"ha":386,"x_min":0,"x_max":0,"o":"m 107 1017 l 32 964 b 210 401 156 765 210 626 b 32 -161 210 194 150 1 l 107 -217 b 310 400 236 -40 310 172 b 107 1017 310 615 235 839 z "},"*":{"ha":617,"x_min":0,"x_max":0,"o":"m 267 983 l 267 776 l 69 843 l 43 763 l 239 696 l 118 531 l 188 478 l 308 649 l 433 478 l 501 531 l 378 696 l 574 763 l 547 843 l 350 776 l 350 983 z "},"+":{"ha":925,"x_min":0,"x_max":0,"o":"m 100 375 l 417 375 l 417 58 l 508 58 l 508 375 l 825 375 l 825 467 l 508 467 l 508 783 l 417 783 l 417 467 l 100 467 z "},",":{"ha":386,"x_min":0,"x_max":0,"o":"m 293 142 l 167 142 l 72 -192 l 179 -192 z "},"-":{"ha":463,"x_min":0,"x_max":0,"o":"m 401 383 l 61 383 l 61 283 l 401 283 z "},".":{"ha":386,"x_min":0,"x_max":0,"o":"m 276 75 b 193 158 276 121 239 158 b 110 75 147 158 110 121 b 193 -8 110 29 150 -8 b 276 75 238 -8 276 31 z "},"/":{"ha":514,"x_min":0,"x_max":0,"o":"m 422 1042 l 4 -25 l 92 -60 l 510 1008 z "},":":{"ha":386,"x_min":0,"x_max":0,"o":"m 276 583 b 193 667 276 626 242 667 b 110 583 149 667 110 629 b 193 500 110 538 153 500 b 276 583 236 500 276 539 z m 276 75 b 193 158 276 119 239 158 b 110 75 147 158 110 121 b 193 -8 110 31 150 -8 b 276 75 238 -8 276 31 z "},";":{"ha":386,"x_min":0,"x_max":0,"o":"m 193 667 b 110 583 149 667 110 629 b 193 500 110 538 153 500 b 276 583 236 500 276 539 b 193 667 276 626 242 667 z m 293 142 l 167 142 l 72 -192 l 179 -192 z "},"<":{"ha":925,"x_min":0,"x_max":0,"o":"m 100 461 l 100 381 l 825 58 l 825 150 l 213 421 l 825 692 l 825 783 z "},"=":{"ha":925,"x_min":0,"x_max":0,"o":"m 825 483 l 825 575 l 100 575 l 100 483 z m 100 358 l 100 267 l 825 267 l 825 358 z "},">":{"ha":925,"x_min":0,"x_max":0,"o":"m 825 381 l 825 461 l 100 783 l 100 692 l 713 421 l 100 150 l 100 58 z "},"?":{"ha":669,"x_min":0,"x_max":0,"o":"m 333 1008 b 38 771 179 1008 64 921 l 163 757 b 332 908 178 850 242 908 b 479 757 421 908 479 847 b 394 594 479 688 439 639 b 263 369 288 486 263 467 l 263 275 l 379 275 l 379 356 b 471 517 379 403 378 432 b 604 761 572 610 604 676 b 333 1008 604 911 494 1008 z m 321 158 b 238 75 276 158 238 119 b 321 -8 238 31 276 -8 b 404 75 364 -8 404 31 b 321 158 404 121 365 158 z "},"@":{"ha":1111,"x_min":0,"x_max":0,"o":"m 1050 583 b 581 1008 1050 822 844 1008 b 61 492 290 1008 61 775 b 581 -25 61 208 286 -25 b 1018 218 761 -25 931 67 l 931 218 b 581 50 853 114 715 50 b 153 492 340 50 153 256 b 581 933 153 728 339 933 b 958 576 793 933 958 778 b 764 274 958 436 863 274 b 731 301 742 274 731 283 b 746 381 731 317 731 331 l 860 764 l 769 764 l 744 676 l 742 676 b 586 790 715 749 663 790 b 264 399 400 790 264 599 b 460 182 264 275 343 182 b 633 274 525 182 574 206 l 636 274 b 725 182 638 211 676 182 b 1050 583 868 182 1050 358 z m 485 274 b 364 407 417 274 364 331 b 586 699 364 540 465 699 b 700 568 647 699 700 636 b 485 274 700 451 604 274 z "},"A":{"ha":978,"x_min":0,"x_max":0,"o":"m 140 0 l 242 242 l 733 242 l 833 0 l 969 0 l 551 983 l 442 983 l 8 0 z m 288 350 l 492 833 l 494 833 l 689 350 z "},"B":{"ha":875,"x_min":0,"x_max":0,"o":"m 419 0 b 799 275 644 0 799 88 b 576 517 799 403 707 504 l 576 519 b 749 742 682 551 749 629 b 422 983 749 899 621 983 l 122 983 l 122 0 z m 239 108 l 239 458 l 440 458 b 674 279 583 458 674 397 b 442 108 674 165 567 108 z m 239 567 l 239 875 l 418 875 b 624 726 551 875 624 825 b 406 567 624 617 551 567 z "},"C":{"ha":978,"x_min":0,"x_max":0,"o":"m 565 1008 b 65 492 275 1008 65 782 b 565 -25 65 201 275 -25 b 938 147 722 -25 849 29 l 850 221 b 565 83 779 131 685 83 b 190 492 343 83 190 265 b 565 900 190 710 349 900 b 811 781 660 900 751 860 l 913 854 b 565 1008 840 950 715 1008 z "},"D":{"ha":1029,"x_min":0,"x_max":0,"o":"m 471 983 l 104 983 l 104 0 l 474 0 b 964 492 732 0 964 175 b 471 983 964 801 740 983 z m 443 108 l 221 108 l 221 875 l 443 875 b 839 492 688 875 839 740 b 443 108 839 242 689 108 z "},"E":{"ha":824,"x_min":0,"x_max":0,"o":"m 122 0 l 765 0 l 765 108 l 239 108 l 239 458 l 707 458 l 707 567 l 239 567 l 239 875 l 740 875 l 740 983 l 122 983 z "},"F":{"ha":772,"x_min":0,"x_max":0,"o":"m 122 0 l 239 0 l 239 442 l 697 442 l 697 550 l 239 550 l 239 875 l 732 875 l 732 983 l 122 983 z "},"G":{"ha":1081,"x_min":0,"x_max":0,"o":"m 594 1008 b 65 492 289 1008 65 790 b 590 -25 65 186 285 -25 b 958 67 718 -25 843 4 l 958 550 l 615 550 l 615 442 l 842 442 l 842 140 b 597 83 774 107 681 83 b 190 492 358 83 190 256 b 586 900 190 726 360 900 b 854 788 688 900 786 860 l 942 879 b 594 1008 857 964 740 1008 z "},"H":{"ha":1003,"x_min":0,"x_max":0,"o":"m 122 0 l 239 0 l 239 458 l 764 458 l 764 0 l 881 0 l 881 983 l 764 983 l 764 567 l 239 567 l 239 983 l 122 983 z "},"I":{"ha":361,"x_min":0,"x_max":0,"o":"m 239 983 l 122 983 l 122 0 l 239 0 z "},"J":{"ha":669,"x_min":0,"x_max":0,"o":"m 547 983 l 431 983 l 431 289 b 268 83 431 154 376 83 b 121 210 185 83 136 132 l 4 186 b 267 -25 31 46 128 -25 b 547 253 457 -25 547 99 z "},"K":{"ha":875,"x_min":0,"x_max":0,"o":"m 122 0 l 239 0 l 239 500 l 256 500 l 724 0 l 894 0 l 385 535 l 871 983 l 703 983 l 256 558 l 239 558 l 239 983 l 122 983 z "},"L":{"ha":694,"x_min":0,"x_max":0,"o":"m 239 983 l 122 983 l 122 0 l 689 0 l 689 108 l 239 108 z "},"M":{"ha":1260,"x_min":0,"x_max":0,"o":"m 122 0 l 239 0 l 239 825 l 242 825 l 594 0 l 665 0 l 1018 825 l 1021 825 l 1021 0 l 1138 0 l 1138 983 l 968 983 l 632 213 l 629 213 l 296 983 l 122 983 z "},"N":{"ha":1081,"x_min":0,"x_max":0,"o":"m 239 0 l 239 817 l 242 817 l 811 0 l 958 0 l 958 983 l 842 983 l 842 167 l 839 167 l 269 983 l 122 983 l 122 0 z "},"O":{"ha":1158,"x_min":0,"x_max":0,"o":"m 579 1008 b 65 492 279 1008 65 788 b 579 -25 65 196 281 -25 b 1093 492 878 -25 1093 197 b 579 1008 1093 785 881 1008 z m 190 492 b 578 900 190 721 354 900 b 968 492 806 900 968 721 b 579 83 968 261 804 83 b 190 492 350 83 190 264 z "},"P":{"ha":824,"x_min":0,"x_max":0,"o":"m 239 0 l 239 442 l 442 442 b 758 714 624 442 758 535 b 421 983 758 890 631 983 l 122 983 l 122 0 z m 239 875 l 442 875 b 633 713 561 875 633 814 b 442 550 633 611 560 550 l 239 550 z "},"Q":{"ha":1158,"x_min":0,"x_max":0,"o":"m 571 1008 b 65 504 281 1008 65 786 b 568 0 65 221 283 0 l 1142 0 l 1142 100 l 838 100 l 838 103 b 1076 504 985 167 1076 339 b 571 1008 1076 789 858 1008 z m 190 504 b 569 900 190 725 353 900 b 951 504 793 900 951 722 b 571 108 951 289 792 108 b 190 504 356 108 190 283 z "},"R":{"ha":849,"x_min":0,"x_max":0,"o":"m 239 0 l 239 442 l 389 442 l 656 0 l 799 0 l 519 453 b 765 714 681 479 765 575 b 390 983 765 886 668 983 l 122 983 l 122 0 z m 239 550 l 239 875 l 410 875 b 640 713 567 875 640 824 b 378 550 640 618 590 550 z "},"S":{"ha":772,"x_min":0,"x_max":0,"o":"m 410 1008 b 75 725 217 1008 75 896 b 306 458 75 596 138 517 b 576 254 471 401 576 386 b 363 83 576 151 472 83 b 153 193 275 83 196 122 l 53 111 b 356 -25 110 26 221 -25 b 701 263 556 -25 701 86 b 411 553 701 403 636 486 b 200 735 263 597 200 639 b 410 900 200 836 286 900 b 589 810 481 900 550 872 l 685 893 b 410 1008 611 978 519 1008 z "},"T":{"ha":797,"x_min":0,"x_max":0,"o":"m 15 875 l 340 875 l 340 0 l 457 0 l 457 875 l 782 875 l 782 983 l 15 983 z "},"U":{"ha":978,"x_min":0,"x_max":0,"o":"m 118 372 b 489 -25 118 132 246 -25 b 860 371 732 -25 860 131 l 860 983 l 743 983 l 743 386 b 489 83 743 197 657 83 b 235 392 321 83 235 196 l 235 983 l 118 983 z "},"V":{"ha":849,"x_min":0,"x_max":0,"o":"m -12 983 l 364 0 l 476 0 l 861 983 l 738 983 l 425 175 l 422 175 l 119 983 z "},"W":{"ha":1338,"x_min":0,"x_max":0,"o":"m 296 0 l 424 0 l 668 833 l 671 833 l 914 0 l 1040 0 l 1329 983 l 1207 983 l 979 167 l 976 167 l 736 983 l 606 983 l 364 167 l 361 167 l 138 983 l 8 983 z "},"X":{"ha":875,"x_min":0,"x_max":0,"o":"m 140 0 l 433 436 l 725 0 l 879 0 l 517 518 l 847 983 l 701 983 l 439 599 l 174 983 l 24 983 l 354 518 l -4 0 z "},"Y":{"ha":825,"x_min":0,"x_max":0,"o":"m -12 983 l 354 424 l 354 0 l 471 0 l 471 424 l 838 983 l 697 983 l 413 539 l 136 983 z "},"Z":{"ha":797,"x_min":0,"x_max":0,"o":"m 750 983 l 49 983 l 49 875 l 608 875 l 40 104 l 40 0 l 757 0 l 757 108 l 182 108 l 750 883 z "},"[":{"ha":360,"x_min":0,"x_max":0,"o":"m 39 -217 l 268 -217 l 268 -133 l 139 -133 l 139 933 l 268 933 l 268 1017 l 39 1017 z "},"\\":{"ha":514,"x_min":0,"x_max":0,"o":"m 92 1042 l 4 1008 l 422 -60 l 510 -25 z "},"]":{"ha":360,"x_min":0,"x_max":0,"o":"m 321 -217 l 321 1017 l 92 1017 l 92 933 l 221 933 l 221 -133 l 92 -133 l 92 -217 z "},"^":{"ha":925,"x_min":0,"x_max":0,"o":"m 111 382 l 214 382 l 463 867 l 711 382 l 814 382 l 504 983 l 421 983 z "},"_":{"ha":694,"x_min":0,"x_max":0,"o":"m 694 -104 l 0 -104 l 0 -174 l 694 -174 z "},"`":{"ha":333,"x_min":0,"x_max":0,"o":"m 118 983 l -35 983 l 164 783 l 263 783 z "},"a":{"ha":721,"x_min":0,"x_max":0,"o":"m 307 -17 b 521 97 397 -17 472 24 l 524 97 b 531 0 524 42 525 17 l 635 0 b 625 107 628 44 625 85 l 625 399 b 353 667 625 576 540 667 b 94 567 257 667 161 633 l 163 496 b 356 567 214 544 285 567 b 517 422 457 567 517 518 l 517 404 l 467 404 b 65 176 178 404 65 326 b 307 -17 65 58 165 -17 z m 397 313 l 517 313 l 517 288 b 325 75 517 149 438 75 b 182 188 233 75 182 114 b 397 313 182 272 269 313 z "},"b":{"ha":849,"x_min":0,"x_max":0,"o":"m 206 325 b 435 567 206 463 299 567 b 667 325 576 567 667 463 b 436 83 667 188 575 83 b 206 325 300 83 206 185 z m 97 1050 l 97 0 l 206 0 l 206 115 l 208 115 b 458 -17 251 36 349 -17 b 783 325 644 -17 783 135 b 442 667 783 522 646 667 b 208 556 349 667 268 626 l 206 556 l 206 1050 z "},"c":{"ha":669,"x_min":0,"x_max":0,"o":"m 403 667 b 65 325 203 667 65 524 b 401 -17 65 124 201 -17 b 647 88 496 -17 585 15 l 567 164 b 401 83 526 108 472 83 b 182 325 272 83 182 189 b 401 567 182 471 267 567 b 565 488 467 567 519 543 l 651 564 b 403 667 586 635 497 667 z "},"d":{"ha":849,"x_min":0,"x_max":0,"o":"m 390 -17 b 640 115 497 -17 596 33 l 643 115 l 643 0 l 751 0 l 751 1050 l 643 1050 l 643 556 l 640 556 b 407 667 581 626 499 667 b 65 325 204 667 65 522 b 390 -17 65 132 207 -17 z m 182 325 b 411 567 182 463 275 567 b 643 325 553 567 643 463 b 413 83 643 188 551 83 b 182 325 276 83 182 185 z "},"e":{"ha":772,"x_min":0,"x_max":0,"o":"m 399 667 b 65 325 206 667 65 525 b 396 -17 65 131 194 -17 b 683 118 528 -17 615 29 l 601 182 b 396 83 550 115 486 83 b 182 292 282 83 193 171 l 707 292 l 707 318 b 399 667 707 560 568 667 z m 590 383 l 182 383 b 393 567 199 501 282 567 b 590 383 514 567 585 496 z "},"f":{"ha":438,"x_min":0,"x_max":0,"o":"m 17 650 l 17 558 l 158 558 l 158 0 l 267 0 l 267 558 l 425 558 l 425 650 l 267 650 l 267 796 b 383 967 267 931 301 967 b 457 953 399 967 431 963 l 472 1050 b 388 1067 451 1061 417 1067 b 158 797 232 1067 158 975 l 158 650 z "},"g":{"ha":849,"x_min":0,"x_max":0,"o":"m 65 325 b 410 -8 65 132 210 -8 b 640 113 507 -8 592 36 l 643 113 l 643 28 b 397 -233 643 -143 563 -233 b 156 -121 297 -233 224 -194 l 78 -210 b 397 -333 168 -300 271 -333 b 751 22 632 -333 751 -196 l 751 650 l 643 650 l 643 539 l 640 539 b 410 667 601 617 508 667 b 65 325 200 667 65 532 z m 410 567 b 643 328 549 567 643 468 b 411 92 643 194 551 92 b 182 325 283 92 182 194 b 410 567 182 464 279 567 z "},"h":{"ha":772,"x_min":0,"x_max":0,"o":"m 211 0 l 211 322 b 413 567 211 472 279 567 b 561 394 517 567 561 494 l 561 0 l 669 0 l 669 407 b 424 667 669 564 586 667 b 214 560 336 667 253 625 l 211 560 l 211 1050 l 103 1050 l 103 0 z "},"i":{"ha":333,"x_min":0,"x_max":0,"o":"m 167 983 b 88 904 124 983 88 949 b 167 825 88 858 121 825 b 246 904 213 825 246 858 b 167 983 246 949 210 983 z m 221 650 l 113 650 l 113 0 l 221 0 z "},"j":{"ha":333,"x_min":0,"x_max":0,"o":"m 167 983 b 88 904 124 983 88 949 b 167 825 88 858 121 825 b 246 904 213 825 246 858 b 167 983 246 949 210 983 z m 221 650 l 113 650 l 113 -106 b 18 -233 113 -190 85 -233 b -35 -225 1 -233 -17 -231 l -47 -319 b 29 -333 -24 -331 1 -333 b 221 -144 156 -333 221 -251 z "},"k":{"ha":694,"x_min":0,"x_max":0,"o":"m 103 0 l 211 0 l 211 342 l 533 0 l 693 0 l 347 354 l 661 650 l 507 650 l 211 364 l 211 1050 l 103 1050 z "},"l":{"ha":333,"x_min":0,"x_max":0,"o":"m 221 1050 l 113 1050 l 113 0 l 221 0 z "},"m":{"ha":1183,"x_min":0,"x_max":0,"o":"m 97 650 b 103 506 97 611 103 549 l 103 0 l 211 0 l 211 318 b 411 567 211 475 281 567 b 538 376 506 567 538 503 l 538 0 l 646 0 l 646 379 b 814 567 646 482 717 567 b 972 393 918 567 972 504 l 972 0 l 1081 0 l 1081 401 b 835 667 1081 578 1003 667 b 628 543 742 667 679 628 b 424 667 585 636 513 667 b 206 543 325 667 240 617 l 203 543 b 200 650 203 586 200 610 z "},"n":{"ha":772,"x_min":0,"x_max":0,"o":"m 97 650 b 103 506 97 611 103 549 l 103 0 l 211 0 l 211 318 b 413 567 211 474 279 567 b 561 394 517 567 561 494 l 561 0 l 669 0 l 669 407 b 422 667 669 564 588 667 b 206 543 326 667 240 617 l 203 543 b 200 650 203 586 200 610 z "},"o":{"ha":825,"x_min":0,"x_max":0,"o":"m 413 667 b 65 325 208 667 65 524 b 413 -17 65 125 211 -17 b 760 325 614 -17 760 125 b 413 667 760 526 614 667 z m 182 325 b 411 567 182 463 275 567 b 643 325 551 567 643 463 b 413 83 643 188 551 83 b 182 325 276 83 182 185 z "},"p":{"ha":849,"x_min":0,"x_max":0,"o":"m 97 -317 l 206 -317 l 206 115 l 208 115 b 458 -17 251 36 349 -17 b 783 325 642 -17 783 132 b 442 667 783 522 646 667 b 208 556 347 667 269 626 l 206 556 l 206 650 l 97 650 z m 206 325 b 435 567 206 463 299 567 b 667 325 575 567 667 463 b 436 83 667 188 575 83 b 206 325 300 83 206 185 z "},"q":{"ha":849,"x_min":0,"x_max":0,"o":"m 182 325 b 411 567 182 463 275 567 b 643 325 551 567 643 463 b 413 83 643 188 551 83 b 182 325 276 83 182 185 z m 390 667 b 65 325 207 667 65 518 b 407 -17 65 126 204 -17 b 640 94 500 -17 581 24 l 643 94 l 643 -317 l 751 -317 l 751 650 l 643 650 l 643 535 l 640 535 b 390 667 596 617 497 667 z "},"r":{"ha":489,"x_min":0,"x_max":0,"o":"m 422 667 b 206 543 326 667 240 617 l 203 543 b 200 650 203 586 200 610 l 97 650 b 103 506 97 611 103 549 l 103 0 l 211 0 l 211 322 b 401 558 211 472 276 558 b 460 550 422 558 439 556 l 467 660 b 422 667 451 665 439 667 z "},"s":{"ha":592,"x_min":0,"x_max":0,"o":"m 301 667 b 58 475 168 667 58 593 b 243 297 58 378 114 325 b 426 183 386 267 426 243 b 283 83 426 122 365 83 b 117 171 218 83 171 106 l 31 104 b 283 -17 88 21 163 -17 b 543 188 440 -17 543 60 b 329 382 543 293 485 353 b 167 476 218 403 167 433 b 294 567 167 531 222 567 b 432 489 360 567 404 535 l 522 549 b 301 667 482 625 401 667 z "},"t":{"ha":489,"x_min":0,"x_max":0,"o":"m 158 558 l 158 194 b 338 -17 158 33 213 -17 b 464 7 378 -17 425 -10 l 460 106 b 364 83 432 90 396 83 b 267 211 301 83 267 107 l 267 558 l 458 558 l 458 650 l 267 650 l 267 835 l 158 835 l 158 650 l 17 650 l 17 558 z "},"u":{"ha":772,"x_min":0,"x_max":0,"o":"m 103 243 b 349 -17 103 86 188 -17 b 567 107 449 -17 533 35 l 569 107 b 572 0 569 64 572 46 l 675 0 b 669 144 675 35 669 104 l 669 650 l 561 650 l 561 328 b 360 83 561 181 494 83 b 211 256 256 83 211 157 l 211 650 l 103 650 z "},"v":{"ha":669,"x_min":0,"x_max":0,"o":"m 14 650 l 279 0 l 399 0 l 656 650 l 539 650 l 346 140 l 343 140 l 140 650 z "},"w":{"ha":1029,"x_min":0,"x_max":0,"o":"m 231 0 l 342 0 l 506 500 l 508 500 l 693 0 l 800 0 l 1010 650 l 893 650 l 746 150 l 743 150 l 572 650 l 458 650 l 290 150 l 288 150 l 139 650 l 19 650 z "},"x":{"ha":694,"x_min":0,"x_max":0,"o":"m 139 0 l 342 281 l 547 0 l 690 0 l 422 350 l 646 650 l 514 650 l 351 417 l 179 650 l 38 650 l 271 350 l 4 0 z "},"y":{"ha":669,"x_min":0,"x_max":0,"o":"m 14 650 l 283 -4 l 235 -137 b 118 -233 208 -208 172 -233 b 42 -222 89 -233 64 -232 l 28 -317 b 125 -333 57 -329 89 -333 b 338 -160 225 -333 285 -294 l 656 650 l 538 650 l 344 140 l 342 140 l 140 650 z "},"z":{"ha":617,"x_min":0,"x_max":0,"o":"m 565 650 l 58 650 l 58 558 l 424 558 l 42 85 l 42 0 l 575 0 l 575 92 l 183 92 l 565 567 z "},"{":{"ha":463,"x_min":0,"x_max":0,"o":"m 46 442 l 46 358 b 165 204 117 356 165 285 l 165 -43 b 314 -217 165 -144 231 -217 l 408 -217 l 408 -133 l 331 -133 b 265 -29 290 -133 265 -101 l 265 225 b 146 399 265 301 226 382 l 146 401 b 265 578 222 417 265 507 l 265 829 b 333 933 265 900 289 933 l 408 933 l 408 1017 l 318 1017 b 165 842 231 1017 165 943 l 165 594 b 46 442 165 522 119 444 z "},"|":{"ha":308,"x_min":0,"x_max":0,"o":"m 200 1042 l 108 1042 l 108 -347 l 200 -347 z "},"}":{"ha":463,"x_min":0,"x_max":0,"o":"m 54 933 l 129 933 b 197 829 174 933 197 900 l 197 575 b 317 401 197 506 242 417 l 317 399 b 197 225 235 382 197 303 l 197 -29 b 132 -133 197 -101 172 -133 l 54 -133 l 54 -217 l 151 -217 b 297 -47 231 -217 297 -143 l 297 204 b 417 358 297 283 344 356 l 417 442 b 297 594 344 444 297 519 l 297 847 b 147 1017 297 942 229 1017 l 54 1017 z "},"~":{"ha":925,"x_min":0,"x_max":0,"o":"m 736 517 b 617 419 704 449 667 419 b 317 514 522 419 419 514 b 143 392 254 514 208 486 l 189 325 b 307 422 218 392 257 422 b 607 328 404 422 504 328 b 782 450 658 328 708 346 z "},"Á":{"ha":978,"x_min":0,"x_max":0,"o":"m 8 0 l 140 0 l 242 242 l 733 242 l 833 0 l 969 0 l 551 983 l 442 983 z m 288 350 l 492 833 l 494 833 l 689 350 z m 393 1053 l 492 1053 l 690 1253 l 538 1253 z "},"Â":{"ha":978,"x_min":0,"x_max":0,"o":"m 8 0 l 140 0 l 242 242 l 733 242 l 833 0 l 969 0 l 551 983 l 442 983 z m 288 350 l 492 833 l 494 833 l 689 350 z m 271 1053 l 376 1053 l 485 1194 l 594 1053 l 707 1053 l 551 1253 l 425 1253 z "},"Ä":{"ha":978,"x_min":0,"x_max":0,"o":"m 8 0 l 140 0 l 242 242 l 733 242 l 833 0 l 969 0 l 551 983 l 442 983 z m 492 833 l 494 833 l 689 350 l 288 350 z m 626 1069 b 701 1144 669 1069 701 1101 b 626 1219 701 1185 669 1219 b 551 1144 583 1219 551 1185 b 626 1069 551 1101 583 1069 z m 276 1144 b 351 1069 276 1101 311 1069 b 426 1144 392 1069 426 1101 b 351 1219 426 1185 392 1219 b 276 1144 311 1219 276 1185 z "},"À":{"ha":978,"x_min":0,"x_max":0,"o":"m 8 0 l 140 0 l 242 242 l 733 242 l 833 0 l 969 0 l 551 983 l 442 983 z m 288 350 l 492 833 l 494 833 l 689 350 z m 486 1053 l 585 1053 l 440 1253 l 288 1253 z "},"Å":{"ha":978,"x_min":0,"x_max":0,"o":"m 8 0 l 140 0 l 242 242 l 733 242 l 833 0 l 969 0 l 551 983 l 442 983 z m 288 350 l 492 833 l 494 833 l 689 350 z m 351 1151 b 489 1014 351 1075 410 1014 b 626 1151 568 1014 626 1075 b 489 1289 626 1228 568 1289 b 351 1151 411 1289 351 1225 z m 489 1231 b 568 1151 532 1231 568 1192 b 489 1072 568 1108 533 1072 b 410 1151 444 1072 410 1108 b 489 1231 410 1194 446 1231 z "},"Ã":{"ha":978,"x_min":0,"x_max":0,"o":"m 8 0 l 140 0 l 242 242 l 733 242 l 833 0 l 969 0 l 551 983 l 442 983 z m 288 350 l 492 833 l 494 833 l 689 350 z m 324 1069 b 388 1131 333 1101 353 1131 b 592 1075 443 1131 515 1075 b 721 1219 660 1075 706 1129 l 654 1219 b 588 1158 643 1186 625 1158 b 396 1214 540 1158 476 1214 b 257 1069 325 1214 272 1158 z "},"Æ":{"ha":1311,"x_min":0,"x_max":0,"o":"m 126 0 l 297 267 l 704 267 l 704 0 l 1246 0 l 1246 108 l 821 108 l 821 458 l 1204 458 l 1204 567 l 821 567 l 821 875 l 1229 875 l 1229 983 l 625 983 l -14 0 z m 688 875 l 704 875 l 704 375 l 367 375 z "},"Ç":{"ha":978,"x_min":0,"x_max":0,"o":"m 565 1008 b 65 492 276 1008 65 782 b 506 -21 65 226 246 6 l 435 -118 l 463 -144 b 517 -133 481 -139 499 -133 b 589 -186 557 -133 589 -153 b 504 -243 589 -224 554 -243 b 404 -221 471 -243 438 -236 l 381 -272 b 518 -301 424 -293 472 -301 b 681 -179 614 -301 681 -253 b 569 -83 681 -119 626 -83 b 521 -89 546 -83 533 -87 l 565 -25 b 938 147 722 -25 849 29 l 850 221 b 565 83 779 131 686 83 b 190 492 346 83 190 265 b 565 900 190 710 350 900 b 811 781 660 900 751 860 l 913 854 b 565 1008 840 950 715 1008 z "},"Ð":{"ha":1029,"x_min":0,"x_max":0,"o":"m 4 558 l 4 467 l 104 467 l 104 0 l 469 0 b 964 492 738 0 964 179 b 472 983 964 800 742 983 l 104 983 l 104 558 z m 221 108 l 221 467 l 571 467 l 571 558 l 221 558 l 221 875 l 450 875 b 839 492 689 875 839 739 b 450 108 839 242 685 108 z "},"É":{"ha":824,"x_min":0,"x_max":0,"o":"m 765 0 l 765 108 l 239 108 l 239 458 l 707 458 l 707 567 l 239 567 l 239 875 l 740 875 l 740 983 l 122 983 l 122 0 z m 317 1053 l 415 1053 l 614 1253 l 461 1253 z "},"Ê":{"ha":824,"x_min":0,"x_max":0,"o":"m 122 0 l 765 0 l 765 108 l 239 108 l 239 458 l 707 458 l 707 567 l 239 567 l 239 875 l 740 875 l 740 983 l 122 983 z m 194 1053 l 300 1053 l 408 1194 l 518 1053 l 631 1053 l 475 1253 l 349 1253 z "},"Ë":{"ha":824,"x_min":0,"x_max":0,"o":"m 765 0 l 765 108 l 239 108 l 239 458 l 707 458 l 707 567 l 239 567 l 239 875 l 740 875 l 740 983 l 122 983 l 122 0 z m 475 1144 b 550 1069 475 1101 507 1069 b 625 1144 593 1069 625 1101 b 550 1219 625 1185 593 1219 b 475 1144 507 1219 475 1185 z m 200 1144 b 275 1069 200 1101 235 1069 b 350 1144 315 1069 350 1101 b 275 1219 350 1185 315 1219 b 200 1144 235 1219 200 1185 z "},"È":{"ha":824,"x_min":0,"x_max":0,"o":"m 122 0 l 765 0 l 765 108 l 239 108 l 239 458 l 707 458 l 707 567 l 239 567 l 239 875 l 740 875 l 740 983 l 122 983 z m 211 1253 l 410 1053 l 508 1053 l 364 1253 z "},"Í":{"ha":361,"x_min":0,"x_max":0,"o":"m 382 1253 l 229 1253 l 85 1053 l 183 1053 z m 239 983 l 122 983 l 122 0 l 239 0 z "},"Î":{"ha":361,"x_min":0,"x_max":0,"o":"m 122 0 l 239 0 l 239 983 l 122 983 z m 68 1053 l 176 1194 l 286 1053 l 399 1053 l 243 1253 l 117 1253 l -37 1053 z "},"Ï":{"ha":361,"x_min":0,"x_max":0,"o":"m 43 1219 b -32 1144 3 1219 -32 1185 b 43 1069 -32 1101 3 1069 b 118 1144 83 1069 118 1101 b 43 1219 118 1185 83 1219 z m 318 1219 b 243 1144 275 1219 243 1185 b 318 1069 243 1101 275 1069 b 393 1144 361 1069 393 1101 b 318 1219 393 1185 361 1219 z m 239 983 l 122 983 l 122 0 l 239 0 z "},"Ì":{"ha":361,"x_min":0,"x_max":0,"o":"m 132 1253 l -21 1253 l 178 1053 l 276 1053 z m 239 983 l 122 983 l 122 0 l 239 0 z "},"Ł":{"ha":694,"x_min":0,"x_max":0,"o":"m 14 324 l 14 214 l 122 307 l 122 0 l 689 0 l 689 108 l 239 108 l 239 407 l 539 665 l 539 775 l 239 517 l 239 983 l 122 983 l 122 417 z "},"Ñ":{"ha":1081,"x_min":0,"x_max":0,"o":"m 122 0 l 239 0 l 239 817 l 242 817 l 811 0 l 958 0 l 958 983 l 842 983 l 842 167 l 839 167 l 269 983 l 122 983 z m 308 1069 l 375 1069 b 439 1131 385 1101 404 1131 b 643 1075 494 1131 567 1075 b 772 1219 711 1075 757 1129 l 706 1219 b 639 1158 694 1186 676 1158 b 447 1214 592 1158 528 1214 b 308 1069 376 1214 324 1158 z "},"Ó":{"ha":1158,"x_min":0,"x_max":0,"o":"m 781 1253 l 628 1253 l 483 1053 l 582 1053 z m 579 1008 b 65 492 279 1008 65 788 b 579 -25 65 196 281 -25 b 1093 492 878 -25 1093 197 b 579 1008 1093 785 881 1008 z m 190 492 b 578 900 190 721 354 900 b 968 492 806 900 968 721 b 579 83 968 261 804 83 b 190 492 350 83 190 264 z "},"Ô":{"ha":1158,"x_min":0,"x_max":0,"o":"m 65 492 b 579 -25 65 196 281 -25 b 1093 492 878 -25 1093 197 b 579 1008 1093 785 881 1008 b 65 492 279 1008 65 788 z m 190 492 b 578 900 190 721 354 900 b 968 492 806 900 968 721 b 579 83 968 261 804 83 b 190 492 350 83 190 264 z m 361 1053 l 467 1053 l 575 1194 l 685 1053 l 797 1053 l 642 1253 l 515 1253 z "},"Ö":{"ha":1158,"x_min":0,"x_max":0,"o":"m 442 1219 b 367 1144 401 1219 367 1185 b 442 1069 367 1101 401 1069 b 517 1144 482 1069 517 1101 b 442 1219 517 1185 482 1219 z m 717 1219 b 642 1144 674 1219 642 1185 b 717 1069 642 1101 674 1069 b 792 1144 760 1069 792 1101 b 717 1219 792 1185 760 1219 z m 579 1008 b 65 492 279 1008 65 788 b 579 -25 65 196 281 -25 b 1093 492 878 -25 1093 197 b 579 1008 1093 785 881 1008 z m 190 492 b 578 900 190 721 354 900 b 968 492 806 900 968 721 b 579 83 968 261 804 83 b 190 492 350 83 190 264 z "},"Ò":{"ha":1158,"x_min":0,"x_max":0,"o":"m 531 1253 l 378 1253 l 576 1053 l 675 1053 z m 579 1008 b 65 492 279 1008 65 788 b 579 -25 65 196 281 -25 b 1093 492 878 -25 1093 197 b 579 1008 1093 785 881 1008 z m 190 492 b 578 900 190 721 354 900 b 968 492 806 900 968 721 b 579 83 968 261 804 83 b 190 492 350 83 190 264 z "},"Ø":{"ha":1158,"x_min":0,"x_max":0,"o":"m 1008 1025 l 899 904 b 579 1008 811 972 703 1008 b 65 492 289 1008 65 790 b 196 138 65 351 113 231 l 83 15 l 139 -37 l 251 85 b 579 -25 339 14 450 -25 b 1093 492 875 -25 1093 199 b 957 853 1093 638 1042 763 l 1067 972 z m 190 492 b 578 900 190 721 360 900 b 819 818 676 900 754 869 l 278 228 b 190 492 222 299 190 390 z m 332 172 l 875 764 b 968 492 935 692 968 597 b 579 83 968 261 803 83 b 332 172 481 83 397 117 z "},"Õ":{"ha":1158,"x_min":0,"x_max":0,"o":"m 744 1219 b 678 1158 733 1186 715 1158 b 486 1214 631 1158 567 1214 b 347 1069 415 1214 363 1158 l 414 1069 b 478 1131 424 1101 443 1131 b 682 1075 533 1131 606 1075 b 811 1219 750 1075 796 1129 z m 579 1008 b 65 492 279 1008 65 788 b 579 -25 65 196 281 -25 b 1093 492 878 -25 1093 197 b 579 1008 1093 785 881 1008 z m 190 492 b 578 900 190 721 354 900 b 968 492 806 900 968 721 b 579 83 968 261 804 83 b 190 492 350 83 190 264 z "},"Œ":{"ha":1338,"x_min":0,"x_max":0,"o":"m 76 492 b 619 0 76 210 290 0 l 1261 0 l 1261 108 l 836 108 l 836 458 l 1228 458 l 1228 567 l 836 567 l 836 875 l 1253 875 l 1253 983 l 622 983 b 76 492 288 983 76 772 z m 201 492 b 617 875 201 713 371 875 l 719 875 l 719 108 l 621 108 b 201 492 364 108 201 275 z "},"Þ":{"ha":824,"x_min":0,"x_max":0,"o":"m 122 0 l 239 0 l 239 268 l 438 268 b 758 540 626 268 758 363 b 415 810 758 717 635 810 l 239 810 l 239 983 l 122 983 z m 239 376 l 239 701 l 442 701 b 633 539 561 701 633 640 b 442 376 633 438 560 376 z "},"Š":{"ha":772,"x_min":0,"x_max":0,"o":"m 53 111 b 356 -25 110 26 221 -25 b 701 263 556 -25 701 86 b 411 553 701 403 636 486 b 200 735 263 597 200 639 b 410 900 200 836 286 900 b 589 810 481 900 550 872 l 685 893 b 410 1008 611 978 519 1008 b 75 725 217 1008 75 896 b 306 458 75 596 138 517 b 576 254 471 401 576 386 b 363 83 576 151 472 83 b 153 193 275 83 196 122 z m 169 1253 l 324 1053 l 450 1053 l 603 1253 l 497 1253 l 390 1111 l 282 1253 z "},"ẞ":{"ha":936,"x_min":0,"x_max":0,"o":"m 775 889 l 775 993 b 496 1008 669 1003 603 1008 b 122 694 247 1008 122 919 l 122 0 l 239 0 l 239 696 b 503 906 240 858 335 906 b 532 904 506 906 521 906 b 399 713 478 878 399 826 b 610 440 399 586 488 518 b 763 236 708 376 765 331 b 601 83 761 142 697 83 b 417 179 532 83 461 111 l 319 101 b 600 -25 394 3 499 -25 b 886 242 765 -25 886 82 b 701 526 886 372 817 447 b 522 722 611 588 522 631 b 775 889 522 835 626 889 z "},"Ú":{"ha":978,"x_min":0,"x_max":0,"o":"m 118 372 b 489 -25 118 132 246 -25 b 860 371 732 -25 860 131 l 860 983 l 743 983 l 743 386 b 489 83 743 197 657 83 b 235 392 321 83 235 196 l 235 983 l 118 983 z m 393 1053 l 492 1053 l 690 1253 l 538 1253 z "},"Û":{"ha":978,"x_min":0,"x_max":0,"o":"m 118 372 b 489 -25 118 132 246 -25 b 860 371 732 -25 860 131 l 860 983 l 743 983 l 743 386 b 489 83 743 197 657 83 b 235 392 321 83 235 196 l 235 983 l 118 983 z m 376 1053 l 485 1194 l 594 1053 l 707 1053 l 551 1253 l 425 1253 l 271 1053 z "},"Ü":{"ha":978,"x_min":0,"x_max":0,"o":"m 118 372 b 489 -25 118 132 246 -25 b 860 371 732 -25 860 131 l 860 983 l 743 983 l 743 386 b 489 83 743 197 657 83 b 235 392 321 83 235 196 l 235 983 l 118 983 z m 551 1144 b 626 1069 551 1101 583 1069 b 701 1144 669 1069 701 1101 b 626 1219 701 1185 669 1219 b 551 1144 583 1219 551 1185 z m 276 1144 b 351 1069 276 1101 311 1069 b 426 1144 392 1069 426 1101 b 351 1219 426 1185 392 1219 b 276 1144 311 1219 276 1185 z "},"Ù":{"ha":978,"x_min":0,"x_max":0,"o":"m 118 372 b 489 -25 118 132 246 -25 b 860 371 732 -25 860 131 l 860 983 l 743 983 l 743 386 b 489 83 743 197 657 83 b 235 392 321 83 235 196 l 235 983 l 118 983 z m 288 1253 l 486 1053 l 585 1053 l 440 1253 z "},"Ý":{"ha":825,"x_min":0,"x_max":0,"o":"m 354 424 l 354 0 l 471 0 l 471 424 l 838 983 l 697 983 l 413 539 l 136 983 l -12 983 z m 317 1053 l 415 1053 l 614 1253 l 461 1253 z "},"Ÿ":{"ha":825,"x_min":0,"x_max":0,"o":"m 354 424 l 354 0 l 471 0 l 471 424 l 838 983 l 697 983 l 413 539 l 136 983 l -12 983 z m 550 1069 b 625 1144 593 1069 625 1101 b 550 1219 625 1185 593 1219 b 475 1144 507 1219 475 1185 b 550 1069 475 1101 507 1069 z m 200 1144 b 275 1069 200 1101 235 1069 b 350 1144 315 1069 350 1101 b 275 1219 350 1185 315 1219 b 200 1144 235 1219 200 1185 z "},"Ž":{"ha":797,"x_min":0,"x_max":0,"o":"m 757 0 l 757 108 l 182 108 l 750 883 l 750 983 l 49 983 l 49 875 l 608 875 l 40 104 l 40 0 z m 336 1053 l 463 1053 l 615 1253 l 510 1253 l 403 1111 l 294 1253 l 182 1253 z "},"á":{"ha":721,"x_min":0,"x_max":0,"o":"m 307 -17 b 521 97 397 -17 472 24 l 524 97 b 531 0 524 42 525 17 l 635 0 b 625 107 628 44 625 85 l 625 399 b 353 667 625 576 540 667 b 94 567 257 667 161 633 l 163 496 b 356 567 214 544 285 567 b 517 422 457 567 517 518 l 517 404 l 467 404 b 65 176 178 404 65 326 b 307 -17 65 58 165 -17 z m 397 313 l 517 313 l 517 288 b 325 75 517 149 438 75 b 182 188 233 75 182 114 b 397 313 182 272 269 313 z m 364 806 l 563 1006 l 410 1006 l 265 806 z "},"â":{"ha":721,"x_min":0,"x_max":0,"o":"m 307 -17 b 521 97 397 -17 472 24 l 524 97 b 531 0 524 42 525 17 l 635 0 b 625 107 628 44 625 85 l 625 399 b 353 667 625 576 540 667 b 94 567 257 667 161 633 l 163 496 b 356 567 214 544 285 567 b 517 422 457 567 517 518 l 517 404 l 467 404 b 65 176 178 404 65 326 b 307 -17 65 58 165 -17 z m 397 313 l 517 313 l 517 288 b 325 75 517 149 438 75 b 182 188 233 75 182 114 b 397 313 182 272 269 313 z m 143 806 l 249 806 l 357 947 l 467 806 l 579 806 l 424 1006 l 297 1006 z "},"ä":{"ha":721,"x_min":0,"x_max":0,"o":"m 65 176 b 307 -17 65 58 165 -17 b 521 97 397 -17 472 24 l 524 97 b 531 0 524 42 525 17 l 635 0 b 625 107 628 44 625 85 l 625 399 b 353 667 625 576 540 667 b 94 567 257 667 161 633 l 163 496 b 356 567 214 544 285 567 b 517 422 457 567 517 518 l 517 404 l 467 404 b 65 176 178 404 65 326 z m 397 313 l 517 313 l 517 288 b 325 75 517 149 438 75 b 182 188 233 75 182 114 b 397 313 182 272 269 313 z m 424 897 b 499 822 424 854 458 822 b 574 897 542 822 574 854 b 499 972 574 938 539 972 b 424 897 458 972 424 938 z m 224 822 b 299 897 264 822 299 857 b 224 972 299 936 264 972 b 149 897 183 972 149 936 b 224 822 149 857 183 822 z "},"à":{"ha":721,"x_min":0,"x_max":0,"o":"m 307 -17 b 521 97 397 -17 472 24 l 524 97 b 531 0 524 42 525 17 l 635 0 b 625 107 628 44 625 85 l 625 399 b 353 667 625 576 540 667 b 94 567 257 667 161 633 l 163 496 b 356 567 214 544 285 567 b 517 422 457 567 517 518 l 517 404 l 467 404 b 65 176 178 404 65 326 b 307 -17 65 58 165 -17 z m 182 188 b 397 313 182 272 269 313 l 517 313 l 517 288 b 325 75 517 149 438 75 b 182 188 233 75 182 114 z m 358 806 l 457 806 l 313 1006 l 160 1006 z "},"å":{"ha":721,"x_min":0,"x_max":0,"o":"m 65 176 b 307 -17 65 58 165 -17 b 521 97 397 -17 472 24 l 524 97 b 531 0 524 42 525 17 l 635 0 b 625 107 628 44 625 85 l 625 399 b 353 667 625 576 540 667 b 94 567 257 667 161 633 l 163 496 b 356 567 214 544 285 567 b 517 422 457 567 517 518 l 517 404 l 467 404 b 65 176 178 404 65 326 z m 182 188 b 397 313 182 272 269 313 l 517 313 l 517 288 b 325 75 517 149 438 75 b 182 188 233 75 182 114 z m 224 918 b 361 781 224 842 285 781 b 499 918 439 781 499 842 b 361 1056 499 997 439 1056 b 224 918 285 1056 224 994 z m 282 918 b 361 997 282 958 318 997 b 440 918 404 997 440 958 b 361 839 440 875 406 839 b 282 918 317 839 282 875 z "},"ã":{"ha":721,"x_min":0,"x_max":0,"o":"m 307 -17 b 521 97 397 -17 472 24 l 524 97 b 531 0 524 42 525 17 l 635 0 b 625 107 628 44 625 85 l 625 399 b 353 667 625 576 540 667 b 94 567 257 667 161 633 l 163 496 b 356 567 214 544 285 567 b 517 422 457 567 517 518 l 517 404 l 467 404 b 65 176 178 404 65 326 b 307 -17 65 58 165 -17 z m 397 313 l 517 313 l 517 288 b 325 75 517 149 438 75 b 182 188 233 75 182 114 b 397 313 182 272 269 313 z m 129 822 l 196 822 b 260 883 204 856 228 883 b 464 828 317 883 390 828 b 593 972 532 828 578 879 l 526 972 b 461 911 515 939 500 911 b 268 967 411 911 344 967 b 129 822 196 967 143 910 z "},"æ":{"ha":1183,"x_min":0,"x_max":0,"o":"m 65 179 b 307 -17 65 57 167 -17 b 565 124 433 -17 521 35 b 813 -17 611 36 708 -17 b 1101 118 946 -17 1033 29 l 1019 182 b 813 83 968 115 904 83 b 624 292 711 83 626 169 l 1125 292 l 1125 321 b 817 667 1125 557 988 667 b 586 557 738 667 663 636 b 361 667 546 625 467 667 b 101 575 269 667 174 638 l 171 503 b 360 567 233 551 294 567 b 524 396 460 567 524 507 l 524 383 l 382 383 b 65 179 175 383 65 317 z m 182 183 b 358 292 182 254 254 292 l 524 292 l 524 278 b 333 83 524 158 444 83 b 182 183 246 83 182 118 z m 624 383 b 811 567 631 486 715 567 b 1008 383 932 567 1004 494 z "},"ç":{"ha":669,"x_min":0,"x_max":0,"o":"m 401 667 b 65 325 200 667 65 521 b 364 -12 65 142 178 3 l 288 -118 l 315 -144 b 369 -133 331 -139 351 -133 b 442 -186 410 -133 442 -153 b 356 -243 442 -224 406 -243 b 257 -221 324 -243 290 -236 l 233 -272 b 371 -301 276 -293 325 -301 b 533 -179 465 -301 533 -254 b 422 -83 533 -121 482 -83 b 374 -89 400 -83 386 -87 l 426 -14 b 647 88 514 -11 590 22 l 567 164 b 401 83 526 108 474 83 b 182 325 272 83 182 189 b 401 567 182 471 267 567 b 565 488 467 567 519 543 l 651 564 b 401 667 586 635 497 667 z "},"ð":{"ha":825,"x_min":0,"x_max":0,"o":"m 299 1082 l 203 1026 b 325 921 249 989 292 953 l 178 847 l 236 790 l 385 865 b 594 601 463 788 543 697 l 593 599 b 411 667 549 644 485 667 b 65 325 210 667 65 525 b 413 -17 65 125 210 -17 b 760 368 633 -17 760 128 b 483 914 760 596 656 750 l 638 992 l 574 1046 l 425 971 b 299 1082 388 1008 342 1047 z m 182 325 b 411 567 182 463 275 567 b 643 325 550 567 643 463 b 413 83 643 188 550 83 b 182 325 276 83 182 185 z "},"é":{"ha":772,"x_min":0,"x_max":0,"o":"m 588 1006 l 435 1006 l 290 806 l 389 806 z m 399 667 b 65 325 206 667 65 525 b 396 -17 65 131 194 -17 b 683 118 528 -17 615 29 l 601 182 b 396 83 550 115 486 83 b 182 292 282 83 193 171 l 707 292 l 707 318 b 399 667 707 560 568 667 z m 590 383 l 182 383 b 393 567 199 501 282 567 b 590 383 514 567 585 496 z "},"ê":{"ha":772,"x_min":0,"x_max":0,"o":"m 65 325 b 396 -17 65 131 194 -17 b 683 118 528 -17 615 29 l 601 182 b 396 83 550 115 486 83 b 182 292 282 83 193 171 l 707 292 l 707 318 b 399 667 707 560 568 667 b 65 325 206 667 65 525 z m 182 383 b 393 567 199 501 282 567 b 590 383 514 567 585 496 z m 168 806 l 274 806 l 382 947 l 492 806 l 604 806 l 449 1006 l 322 1006 z "},"ë":{"ha":772,"x_min":0,"x_max":0,"o":"m 249 972 b 174 897 208 972 174 936 b 249 822 174 857 208 822 b 324 897 289 822 324 857 b 249 972 324 936 289 972 z m 524 972 b 449 897 483 972 449 938 b 524 822 449 854 483 822 b 599 897 567 822 599 854 b 524 972 599 938 564 972 z m 399 667 b 65 325 206 667 65 525 b 396 -17 65 131 194 -17 b 683 118 528 -17 615 29 l 601 182 b 396 83 550 115 486 83 b 182 292 282 83 193 171 l 707 292 l 707 318 b 399 667 707 560 568 667 z m 590 383 l 182 383 b 393 567 199 501 282 567 b 590 383 514 567 585 496 z "},"è":{"ha":772,"x_min":0,"x_max":0,"o":"m 338 1006 l 185 1006 l 383 806 l 482 806 z m 399 667 b 65 325 206 667 65 525 b 396 -17 65 131 194 -17 b 683 118 528 -17 615 29 l 601 182 b 396 83 550 115 486 83 b 182 292 282 83 193 171 l 707 292 l 707 318 b 399 667 707 560 568 667 z m 590 383 l 182 383 b 393 567 199 501 282 567 b 590 383 514 567 585 496 z "},"ı":{"ha":333,"x_min":0,"x_max":0,"o":"m 221 650 l 113 650 l 113 0 l 221 0 z "},"í":{"ha":333,"x_min":0,"x_max":0,"o":"m 368 1006 l 215 1006 l 71 806 l 169 806 z m 221 650 l 113 650 l 113 0 l 221 0 z "},"î":{"ha":333,"x_min":0,"x_max":0,"o":"m 113 0 l 221 0 l 221 650 l 113 650 z m 54 806 l 163 947 l 272 806 l 385 806 l 229 1006 l 103 1006 l -51 806 z "},"ï":{"ha":333,"x_min":0,"x_max":0,"o":"m 29 972 b -46 897 -11 972 -46 936 b 29 822 -46 857 -11 822 b 104 897 69 822 104 857 b 29 972 104 936 69 972 z m 304 972 b 229 897 264 972 229 938 b 304 822 229 854 264 822 b 379 897 347 822 379 854 b 304 972 379 938 344 972 z m 221 650 l 113 650 l 113 0 l 221 0 z "},"ì":{"ha":333,"x_min":0,"x_max":0,"o":"m 118 1006 l -35 1006 l 164 806 l 263 806 z m 221 650 l 113 650 l 113 0 l 221 0 z "},"ł":{"ha":333,"x_min":0,"x_max":0,"o":"m 0 429 l 0 315 l 113 428 l 113 0 l 221 0 l 221 538 l 333 650 l 333 763 l 221 650 l 221 1050 l 113 1050 l 113 542 z "},"ñ":{"ha":772,"x_min":0,"x_max":0,"o":"m 103 506 l 103 0 l 211 0 l 211 318 b 413 567 211 474 279 567 b 561 394 517 567 561 494 l 561 0 l 669 0 l 669 407 b 422 667 669 564 588 667 b 206 543 326 667 240 617 l 203 543 b 200 650 203 586 200 610 l 97 650 b 103 506 97 611 103 549 z m 221 822 b 285 883 229 856 253 883 b 489 828 342 883 415 828 b 618 972 557 828 603 879 l 551 972 b 486 911 540 939 525 911 b 293 967 436 911 369 967 b 154 822 221 967 168 910 z "},"ó":{"ha":825,"x_min":0,"x_max":0,"o":"m 614 1006 l 461 1006 l 317 806 l 415 806 z m 413 667 b 65 325 208 667 65 524 b 413 -17 65 125 211 -17 b 760 325 614 -17 760 125 b 413 667 760 526 614 667 z m 182 325 b 411 567 182 463 275 567 b 643 325 551 567 643 463 b 413 83 643 188 551 83 b 182 325 276 83 182 185 z "},"ô":{"ha":825,"x_min":0,"x_max":0,"o":"m 65 325 b 413 -17 65 125 211 -17 b 760 325 614 -17 760 125 b 413 667 760 526 614 667 b 65 325 208 667 65 524 z m 182 325 b 411 567 182 463 275 567 b 643 325 551 567 643 463 b 413 83 643 188 551 83 b 182 325 276 83 182 185 z m 194 806 l 300 806 l 408 947 l 518 806 l 631 806 l 475 1006 l 349 1006 z "},"ö":{"ha":825,"x_min":0,"x_max":0,"o":"m 275 972 b 200 897 235 972 200 936 b 275 822 200 857 235 822 b 350 897 315 822 350 857 b 275 972 350 936 315 972 z m 550 972 b 475 897 510 972 475 938 b 550 822 475 854 510 822 b 625 897 593 822 625 854 b 550 972 625 938 590 972 z m 413 667 b 65 325 208 667 65 524 b 413 -17 65 125 211 -17 b 760 325 614 -17 760 125 b 413 667 760 526 614 667 z m 182 325 b 411 567 182 463 275 567 b 643 325 551 567 643 463 b 413 83 643 188 551 83 b 182 325 276 83 182 185 z "},"ò":{"ha":825,"x_min":0,"x_max":0,"o":"m 364 1006 l 211 1006 l 410 806 l 508 806 z m 413 667 b 65 325 208 667 65 524 b 413 -17 65 125 211 -17 b 760 325 614 -17 760 125 b 413 667 760 526 614 667 z m 182 325 b 411 567 182 463 275 567 b 643 325 551 567 643 463 b 413 83 643 188 551 83 b 182 325 276 83 182 185 z "},"ø":{"ha":825,"x_min":0,"x_max":0,"o":"m 726 692 l 633 596 b 413 667 574 640 500 667 b 65 325 210 667 65 525 b 146 100 65 235 94 157 l 51 3 l 99 -42 l 193 56 b 413 -17 250 10 325 -17 b 760 325 617 -17 760 126 b 681 551 760 415 731 492 l 774 647 z m 182 325 b 411 567 182 463 275 567 b 557 518 468 567 518 550 l 225 181 b 182 325 197 219 182 269 z m 268 132 l 600 469 b 643 325 628 431 643 381 b 413 83 643 188 550 83 b 268 132 351 83 304 103 z "},"õ":{"ha":825,"x_min":0,"x_max":0,"o":"m 578 972 b 513 911 567 939 551 911 b 319 967 463 911 396 967 b 181 822 247 967 194 910 l 247 822 b 311 883 256 856 279 883 b 515 828 368 883 442 828 b 644 972 583 828 629 879 z m 413 667 b 65 325 208 667 65 524 b 413 -17 65 125 211 -17 b 760 325 614 -17 760 125 b 413 667 760 526 614 667 z m 182 325 b 411 567 182 463 275 567 b 643 325 551 567 643 463 b 413 83 643 188 551 83 b 182 325 276 83 182 185 z "},"œ":{"ha":1260,"x_min":0,"x_max":0,"o":"m 385 667 b 50 325 188 667 50 519 b 389 -17 50 118 185 -17 b 656 117 504 -17 589 28 b 897 -17 707 33 790 -17 b 1186 118 1031 -17 1118 29 l 1104 182 b 897 83 1053 115 990 83 b 708 292 789 83 711 175 l 1210 292 l 1210 317 b 901 667 1210 550 1081 667 b 656 536 808 667 724 625 b 385 667 585 629 499 667 z m 167 325 b 388 567 167 468 254 567 b 608 325 525 567 608 464 b 383 83 608 181 521 83 b 167 325 250 83 167 186 z m 1093 383 l 708 383 b 897 567 717 489 803 567 b 1093 383 1014 567 1089 494 z "},"þ":{"ha":849,"x_min":0,"x_max":0,"o":"m 206 -317 l 206 115 l 208 115 b 458 -17 251 36 349 -17 b 783 325 642 -17 783 132 b 442 667 783 522 646 667 b 208 556 349 667 269 626 l 206 556 l 206 1050 l 97 1050 l 97 -317 z m 206 325 b 435 567 206 463 299 567 b 667 325 575 567 667 463 b 436 83 667 188 575 83 b 206 325 300 83 206 185 z "},"š":{"ha":592,"x_min":0,"x_max":0,"o":"m 31 104 b 283 -17 88 21 163 -17 b 543 188 440 -17 543 60 b 329 382 543 293 485 353 b 167 476 218 403 167 433 b 294 567 167 531 222 567 b 432 489 360 567 404 535 l 522 549 b 301 667 482 625 401 667 b 58 475 168 667 58 593 b 243 297 58 378 114 325 b 426 183 386 267 426 243 b 283 83 426 122 365 83 b 117 171 218 83 171 106 z m 233 806 l 360 806 l 513 1006 l 407 1006 l 300 864 l 192 1006 l 79 1006 z "},"ß":{"ha":824,"x_min":0,"x_max":0,"o":"m 407 1067 b 103 750 213 1067 103 943 l 103 0 l 211 0 l 211 739 b 401 967 211 883 274 967 b 571 807 501 967 571 901 b 393 640 571 711 508 640 l 368 640 l 368 549 l 394 549 b 646 313 554 549 646 453 b 417 83 646 174 554 83 b 344 94 393 83 371 85 l 344 -4 b 432 -17 372 -14 400 -17 b 763 303 624 -17 763 113 b 526 597 763 460 675 581 l 526 600 b 679 819 626 635 679 714 b 407 1067 679 968 568 1067 z "},"ú":{"ha":772,"x_min":0,"x_max":0,"o":"m 103 243 b 349 -17 103 86 188 -17 b 567 107 449 -17 533 35 l 569 107 b 572 0 569 64 572 46 l 675 0 b 669 144 675 35 669 104 l 669 650 l 561 650 l 561 328 b 360 83 561 181 494 83 b 211 256 256 83 211 157 l 211 650 l 103 650 z m 389 806 l 588 1006 l 435 1006 l 290 806 z "},"û":{"ha":772,"x_min":0,"x_max":0,"o":"m 103 243 b 349 -17 103 86 188 -17 b 567 107 449 -17 533 35 l 569 107 b 572 0 569 64 572 46 l 675 0 b 669 144 675 35 669 104 l 669 650 l 561 650 l 561 328 b 360 83 561 181 494 83 b 211 256 256 83 211 157 l 211 650 l 103 650 z m 274 806 l 382 947 l 492 806 l 604 806 l 449 1006 l 322 1006 l 168 806 z "},"ü":{"ha":772,"x_min":0,"x_max":0,"o":"m 103 243 b 349 -17 103 86 188 -17 b 567 107 449 -17 533 35 l 569 107 b 572 0 569 64 572 46 l 675 0 b 669 144 675 35 669 104 l 669 650 l 561 650 l 561 328 b 360 83 561 181 494 83 b 211 256 256 83 211 157 l 211 650 l 103 650 z m 524 822 b 599 897 567 822 599 854 b 524 972 599 938 564 972 b 449 897 483 972 449 938 b 524 822 449 854 483 822 z m 249 822 b 324 897 289 822 324 857 b 249 972 324 936 289 972 b 174 897 208 972 174 936 b 249 822 174 857 208 822 z "},"ù":{"ha":772,"x_min":0,"x_max":0,"o":"m 103 243 b 349 -17 103 86 188 -17 b 567 107 449 -17 533 35 l 569 107 b 572 0 569 64 572 46 l 675 0 b 669 144 675 35 669 104 l 669 650 l 561 650 l 561 328 b 360 83 561 181 494 83 b 211 256 256 83 211 157 l 211 650 l 103 650 z m 383 806 l 482 806 l 338 1006 l 185 1006 z "},"ý":{"ha":669,"x_min":0,"x_max":0,"o":"m 283 -4 l 235 -137 b 118 -233 208 -208 172 -233 b 42 -222 89 -233 64 -232 l 28 -317 b 125 -333 57 -329 89 -333 b 338 -160 225 -333 285 -294 l 656 650 l 538 650 l 344 140 l 342 140 l 140 650 l 14 650 z m 239 806 l 338 806 l 536 1006 l 383 1006 z "},"ÿ":{"ha":669,"x_min":0,"x_max":0,"o":"m 14 650 l 283 -4 l 235 -137 b 118 -233 208 -208 172 -233 b 42 -222 89 -233 64 -232 l 28 -317 b 125 -333 57 -329 89 -333 b 338 -160 225 -333 285 -294 l 656 650 l 538 650 l 344 140 l 342 140 l 140 650 z m 472 822 b 547 897 515 822 547 854 b 472 972 547 938 513 972 b 397 897 432 972 397 938 b 472 822 397 854 432 822 z m 197 822 b 272 897 238 822 272 857 b 197 972 272 936 238 972 b 122 897 157 972 122 936 b 197 822 122 857 157 822 z "},"ž":{"ha":617,"x_min":0,"x_max":0,"o":"m 575 0 l 575 92 l 183 92 l 565 567 l 565 650 l 58 650 l 58 558 l 424 558 l 42 85 l 42 0 z m 246 806 l 372 806 l 525 1006 l 419 1006 l 313 864 l 204 1006 l 92 1006 z "},"ﬁ":{"ha":746,"x_min":0,"x_max":0,"o":"m 158 558 l 158 0 l 267 0 l 267 558 l 425 558 l 425 650 l 267 650 l 267 796 b 383 967 267 931 301 967 b 457 953 399 967 431 963 l 472 1050 b 388 1067 451 1061 417 1067 b 158 797 232 1067 158 975 l 158 650 l 17 650 l 17 558 z m 525 0 l 633 0 l 633 650 l 525 650 z m 500 904 b 579 825 500 858 533 825 b 658 904 625 825 658 858 b 579 983 658 949 622 983 b 500 904 536 983 500 949 z "},"ﬂ":{"ha":746,"x_min":0,"x_max":0,"o":"m 158 558 l 158 0 l 267 0 l 267 558 l 425 558 l 425 650 l 267 650 l 267 796 b 383 967 267 931 301 967 b 457 953 399 967 431 963 l 472 1050 b 388 1067 451 1061 417 1067 b 158 797 232 1067 158 975 l 158 650 l 17 650 l 17 558 z m 525 0 l 633 0 l 633 1050 l 525 1050 z "},"ª":{"ha":468,"x_min":0,"x_max":0,"o":"m 192 589 b 331 660 258 589 306 608 l 333 660 b 338 597 333 636 335 618 l 422 597 b 417 654 418 622 417 642 l 417 839 b 232 1000 417 940 367 1000 b 65 940 169 1000 106 979 l 108 882 b 232 925 131 906 183 925 b 333 860 286 925 333 899 l 333 843 l 286 843 b 46 711 110 843 46 794 b 192 589 46 635 100 589 z m 265 776 l 333 776 l 333 754 b 217 664 333 704 282 664 b 138 713 168 664 138 683 b 265 776 138 751 163 776 z "},"º":{"ha":536,"x_min":0,"x_max":0,"o":"m 268 1000 b 42 796 139 1000 42 917 b 268 589 42 674 135 589 b 494 796 401 589 494 674 b 268 1000 494 917 397 1000 z m 133 796 b 267 925 133 867 190 925 b 403 796 349 925 403 864 b 268 664 403 724 346 664 b 133 796 189 664 133 722 z "},"Δ":{"ha":931,"x_min":0,"x_max":0,"o":"m 514 989 l 411 989 l 21 0 l 913 0 z m 147 86 l 461 896 l 779 86 z "},"Ω":{"ha":1033,"x_min":0,"x_max":0,"o":"m 65 81 l 65 0 l 414 0 l 414 251 b 158 576 251 278 158 406 b 508 917 158 774 314 917 b 858 576 701 917 858 778 b 603 251 858 403 764 279 l 603 0 l 951 0 l 951 81 l 678 81 l 678 194 b 951 579 854 242 951 399 b 510 1001 951 826 747 1001 b 65 578 269 1001 65 825 b 339 194 65 400 168 242 l 339 81 z "},"μ":{"ha":772,"x_min":0,"x_max":0,"o":"m 103 -317 l 211 -317 l 211 18 b 349 -17 257 -8 297 -17 b 567 107 449 -17 533 35 l 569 107 b 572 0 569 64 572 28 l 675 0 b 669 144 675 35 669 104 l 669 650 l 561 650 l 561 328 b 360 83 561 179 494 83 b 211 256 256 83 211 156 l 211 650 l 103 650 z "},"π":{"ha":782,"x_min":0,"x_max":0,"o":"m 142 568 l 142 0 l 231 0 l 231 568 l 536 568 l 536 133 b 647 -8 536 22 575 -8 b 736 15 681 -8 703 -1 l 736 83 b 678 69 715 74 696 69 b 625 140 640 69 625 86 l 625 568 l 731 568 l 731 650 l 44 650 l 44 568 z "},"ء":{"ha":656,"x_min":0,"x_max":0,"o":"m 78 94 l 78 0 l 586 0 l 586 94 l 315 94 b 246 250 271 143 246 193 b 433 415 246 356 321 415 b 536 401 475 415 515 407 l 557 494 b 418 515 519 507 463 515 b 146 260 258 515 146 403 b 201 94 146 204 164 143 z "},"ا":{"ha":317,"x_min":0,"x_max":0,"o":"m 104 0 l 213 0 l 213 1050 l 104 1050 z "},"ﺎ":{"ha":392,"x_min":0,"x_max":0,"o":"m 392 0 b 419 51 410 0 419 21 b 392 103 419 82 410 103 b 213 250 272 103 213 150 l 213 1050 l 104 1050 l 104 243 b 392 0 104 81 190 0 z "},"أ":{"ha":317,"x_min":0,"x_max":0,"o":"m 104 1050 l 104 0 l 213 0 l 213 1050 z m 50 1124 l 275 1124 l 275 1178 l 156 1178 b 136 1238 143 1199 136 1219 b 207 1294 136 1276 167 1294 b 253 1289 224 1294 240 1292 l 263 1342 b 196 1350 243 1346 219 1350 b 79 1246 128 1350 79 1310 b 99 1178 79 1222 86 1200 l 50 1178 z "},"ﺄ":{"ha":392,"x_min":0,"x_max":0,"o":"m 104 1050 l 104 243 b 392 0 104 81 190 0 b 419 51 410 0 419 21 b 392 103 419 82 410 103 b 213 250 272 103 213 150 l 213 1050 z m 275 1124 l 275 1178 l 156 1178 b 136 1238 143 1199 136 1219 b 207 1294 136 1276 167 1294 b 253 1289 224 1294 240 1292 l 263 1342 b 196 1350 243 1346 219 1350 b 79 1246 128 1350 79 1310 b 99 1178 79 1222 86 1200 l 50 1178 l 50 1124 z "},"إ":{"ha":317,"x_min":0,"x_max":0,"o":"m 104 1050 l 104 0 l 213 0 l 213 1050 z m 44 -346 l 269 -346 l 269 -292 l 150 -292 b 131 -232 138 -271 131 -250 b 201 -175 131 -193 161 -175 b 247 -181 218 -175 235 -178 l 257 -128 b 190 -119 238 -124 214 -119 b 74 -224 122 -119 74 -160 b 93 -292 74 -247 81 -269 l 44 -292 z "},"ﺈ":{"ha":392,"x_min":0,"x_max":0,"o":"m 104 243 b 392 0 104 81 190 0 b 419 51 410 0 419 21 b 392 103 419 82 410 103 b 213 250 272 103 213 150 l 213 1050 l 104 1050 z m 81 -292 l 81 -346 l 306 -346 l 306 -292 l 186 -292 b 167 -232 174 -271 167 -250 b 238 -175 167 -193 197 -175 b 283 -181 254 -175 271 -178 l 293 -128 b 226 -119 274 -124 250 -119 b 110 -224 158 -119 110 -160 b 129 -292 110 -247 117 -269 z "},"آ":{"ha":317,"x_min":0,"x_max":0,"o":"m 246 1131 b 358 1192 288 1131 328 1144 l 317 1232 b 240 1199 282 1204 269 1199 b 46 1236 186 1199 97 1236 b -58 1188 22 1236 -17 1226 l -21 1143 b 42 1167 -6 1154 19 1167 b 246 1131 89 1167 175 1131 z m 104 0 l 213 0 l 213 1050 l 104 1050 z "},"ﺂ":{"ha":392,"x_min":0,"x_max":0,"o":"m 246 1131 b 358 1192 288 1131 328 1144 l 317 1232 b 240 1199 282 1204 269 1199 b 46 1236 186 1199 97 1236 b -58 1188 22 1236 -17 1226 l -21 1143 b 42 1167 -6 1154 19 1167 b 246 1131 89 1167 175 1131 z m 392 0 b 419 51 410 0 419 21 b 392 103 419 82 410 103 b 213 250 272 103 213 150 l 213 1050 l 104 1050 l 104 243 b 392 0 104 81 190 0 z "},"ٱ":{"ha":317,"x_min":0,"x_max":0,"o":"m 104 1050 l 104 0 l 213 0 l 213 1050 z m 303 1124 b 317 1204 313 1153 317 1181 b 206 1325 317 1278 274 1325 b 85 1258 154 1325 114 1297 l 85 1318 l 31 1318 l 31 1178 l -39 1178 l -39 1124 z m 200 1271 b 264 1207 236 1271 264 1249 b 260 1178 264 1199 263 1189 l 81 1178 b 200 1271 106 1232 153 1271 z "},"ﭑ":{"ha":392,"x_min":0,"x_max":0,"o":"m 104 1050 l 104 243 b 392 0 104 81 190 0 b 419 51 410 0 419 21 b 392 103 419 82 410 103 b 213 250 272 103 213 150 l 213 1050 z m -39 1124 l 303 1124 b 317 1204 313 1153 317 1181 b 206 1325 317 1278 274 1325 b 85 1258 154 1325 114 1297 l 85 1318 l 31 1318 l 31 1178 l -39 1178 z m 81 1178 b 200 1271 106 1232 153 1271 b 264 1207 236 1271 264 1249 b 260 1178 264 1199 263 1189 z "},"ٮ":{"ha":1290,"x_min":0,"x_max":0,"o":"m 1106 565 l 1106 288 b 931 103 1106 151 1049 103 l 386 103 b 167 282 244 103 167 160 b 200 454 167 331 179 379 l 100 481 b 56 263 79 424 56 339 b 371 0 56 103 175 0 l 943 0 b 1214 240 1121 0 1214 104 l 1214 565 z "},"ب":{"ha":1290,"x_min":0,"x_max":0,"o":"m 1106 565 l 1106 288 b 931 103 1106 151 1049 103 l 386 103 b 167 282 244 103 167 160 b 200 454 167 331 179 379 l 100 481 b 56 263 79 424 56 339 b 371 0 56 103 175 0 l 943 0 b 1214 240 1121 0 1214 104 l 1214 565 z m 614 -121 b 544 -190 572 -121 544 -150 b 614 -258 544 -229 572 -258 b 681 -190 654 -258 681 -229 b 614 -121 681 -150 654 -121 z "},"ﺐ":{"ha":1394,"x_min":0,"x_max":0,"o":"m 1394 103 b 1214 261 1275 103 1214 156 l 1214 565 l 1106 565 l 1106 288 b 931 103 1106 151 1049 103 l 386 103 b 167 282 244 103 167 160 b 200 454 167 331 179 379 l 100 481 b 56 263 79 424 56 339 b 371 0 56 103 175 0 l 943 0 b 1171 99 1050 0 1126 38 b 1394 0 1208 36 1281 0 b 1422 51 1413 0 1422 21 b 1394 103 1422 82 1413 103 z m 614 -121 b 544 -190 572 -121 544 -150 b 614 -258 544 -229 572 -258 b 681 -190 654 -258 681 -229 b 614 -121 681 -150 654 -121 z "},"ﺒ":{"ha":456,"x_min":0,"x_max":0,"o":"m 456 103 b 275 261 336 103 275 156 l 275 565 l 167 565 l 167 288 b 0 103 167 151 119 103 l 0 0 b 233 96 111 0 189 29 b 456 0 271 35 343 0 b 483 51 474 0 483 21 b 456 103 483 82 474 103 z m 206 -121 b 136 -190 164 -121 136 -150 b 206 -258 136 -229 164 -258 b 272 -190 246 -258 272 -229 b 206 -121 272 -150 246 -121 z "},"ﺑ":{"ha":351,"x_min":0,"x_max":0,"o":"m 0 0 b 275 269 181 0 275 78 l 275 565 l 167 565 l 167 288 b 0 103 167 151 119 103 z m 167 -258 b 233 -190 207 -258 233 -229 b 167 -121 233 -150 207 -121 b 97 -190 125 -121 97 -150 b 167 -258 97 -229 125 -258 z "},"پ":{"ha":1290,"x_min":0,"x_max":0,"o":"m 1106 565 l 1106 288 b 931 103 1106 151 1049 103 l 386 103 b 167 282 244 103 167 160 b 200 454 167 331 179 379 l 100 481 b 56 263 79 424 56 339 b 371 0 56 103 175 0 l 943 0 b 1214 240 1121 0 1214 104 l 1214 565 z m 581 -190 b 513 -122 581 -151 553 -122 b 444 -190 474 -122 444 -151 b 513 -260 444 -231 474 -260 b 581 -190 553 -260 581 -231 z m 708 -122 b 639 -190 668 -122 639 -151 b 708 -260 639 -231 668 -260 b 775 -190 747 -260 775 -231 b 708 -122 775 -151 747 -122 z m 613 -276 b 544 -346 574 -276 544 -306 b 613 -414 544 -385 574 -414 b 681 -346 653 -414 681 -385 b 613 -276 681 -306 653 -276 z "},"ﭗ":{"ha":1394,"x_min":0,"x_max":0,"o":"m 1394 103 b 1214 261 1275 103 1214 156 l 1214 565 l 1106 565 l 1106 288 b 931 103 1106 151 1049 103 l 386 103 b 167 282 244 103 167 160 b 200 454 167 331 179 379 l 100 481 b 56 263 79 424 56 339 b 371 0 56 103 175 0 l 943 0 b 1171 99 1050 0 1126 38 b 1394 0 1208 36 1281 0 b 1422 51 1413 0 1422 21 b 1394 103 1422 82 1413 103 z m 581 -190 b 513 -122 581 -151 553 -122 b 444 -190 474 -122 444 -151 b 513 -260 444 -231 474 -260 b 581 -190 553 -260 581 -231 z m 708 -122 b 639 -190 668 -122 639 -151 b 708 -260 639 -231 668 -260 b 775 -190 747 -260 775 -231 b 708 -122 775 -151 747 -122 z m 613 -276 b 544 -346 574 -276 544 -306 b 613 -414 544 -385 574 -414 b 681 -346 653 -414 681 -385 b 613 -276 681 -306 653 -276 z "},"ﭙ":{"ha":454,"x_min":0,"x_max":0,"o":"m 454 103 b 274 261 335 103 274 156 l 274 565 l 165 565 l 165 288 b 10 103 165 156 122 103 l 0 103 l 0 0 l 7 0 b 232 96 113 0 188 31 b 454 0 269 35 342 0 b 482 51 472 0 482 21 b 454 103 482 82 472 103 z m 172 -190 b 104 -122 172 -151 144 -122 b 36 -190 65 -122 36 -151 b 104 -260 36 -231 65 -260 b 172 -190 144 -260 172 -231 z m 300 -122 b 231 -190 260 -122 231 -151 b 300 -260 231 -231 260 -260 b 367 -190 339 -260 367 -231 b 300 -122 367 -151 339 -122 z m 204 -276 b 136 -346 165 -276 136 -306 b 204 -414 136 -385 165 -414 b 272 -346 244 -414 272 -385 b 204 -276 272 -306 244 -276 z "},"ﭘ":{"ha":433,"x_min":0,"x_max":0,"o":"m 0 0 l 7 0 b 274 269 179 0 274 81 l 274 565 l 165 565 l 165 288 b 10 103 165 156 122 103 l 0 103 z m 64 -260 b 132 -190 104 -260 132 -231 b 64 -122 132 -151 104 -122 b -4 -190 25 -122 -4 -151 b 64 -260 -4 -231 25 -260 z m 260 -260 b 326 -190 299 -260 326 -231 b 260 -122 326 -151 299 -122 b 190 -190 219 -122 190 -151 b 260 -260 190 -231 219 -260 z m 164 -414 b 232 -346 204 -414 232 -385 b 164 -276 232 -306 204 -276 b 96 -346 125 -276 96 -306 b 164 -414 96 -385 125 -414 z "},"ﯩ":{"ha":456,"x_min":0,"x_max":0,"o":"m 456 103 b 275 261 336 103 275 156 l 275 565 l 167 565 l 167 288 b 0 103 167 151 119 103 l 0 0 b 233 96 111 0 189 29 b 456 0 271 35 343 0 b 483 51 474 0 483 21 b 456 103 483 82 474 103 z "},"ﯨ":{"ha":351,"x_min":0,"x_max":0,"o":"m 0 0 b 275 269 181 0 275 78 l 275 565 l 167 565 l 167 288 b 0 103 167 151 119 103 z "},"ت":{"ha":1290,"x_min":0,"x_max":0,"o":"m 528 596 b 596 665 568 596 596 625 b 528 733 596 704 568 733 b 460 665 489 733 460 704 b 528 596 460 625 489 596 z m 724 596 b 790 665 763 596 790 625 b 724 733 790 704 763 733 b 654 665 683 733 654 704 b 724 596 654 625 683 596 z m 1106 565 l 1106 288 b 931 103 1106 151 1049 103 l 386 103 b 167 282 244 103 167 160 b 200 454 167 331 179 379 l 100 481 b 56 263 79 424 56 339 b 371 0 56 103 175 0 l 943 0 b 1214 240 1121 0 1214 104 l 1214 565 z "},"ﺖ":{"ha":1394,"x_min":0,"x_max":0,"o":"m 528 596 b 596 665 568 596 596 625 b 528 733 596 704 568 733 b 460 665 489 733 460 704 b 528 596 460 625 489 596 z m 724 596 b 790 665 763 596 790 625 b 724 733 790 704 763 733 b 654 665 683 733 654 704 b 724 596 654 625 683 596 z m 1394 103 b 1214 261 1275 103 1214 156 l 1214 565 l 1106 565 l 1106 288 b 931 103 1106 151 1049 103 l 386 103 b 167 282 244 103 167 160 b 200 454 167 331 179 379 l 100 481 b 56 263 79 424 56 339 b 371 0 56 103 175 0 l 943 0 b 1171 99 1050 0 1126 38 b 1394 0 1208 36 1281 0 b 1422 51 1413 0 1422 21 b 1394 103 1422 82 1413 103 z "},"ﺘ":{"ha":454,"x_min":0,"x_max":0,"o":"m 119 726 b 188 796 160 726 188 756 b 119 864 188 835 160 864 b 51 796 81 864 51 835 b 119 726 51 756 81 726 z m 315 726 b 382 796 354 726 382 756 b 315 864 382 835 354 864 b 246 796 275 864 246 835 b 315 726 246 756 275 726 z m 454 103 b 274 261 335 103 274 156 l 274 565 l 165 565 l 165 288 b 10 103 165 156 122 103 l 0 103 l 0 0 l 7 0 b 232 96 113 0 188 31 b 454 0 269 35 342 0 b 482 51 472 0 482 21 b 454 103 482 82 472 103 z "},"ﺗ":{"ha":392,"x_min":0,"x_max":0,"o":"m 119 726 b 188 796 160 726 188 756 b 119 864 188 835 160 864 b 51 796 81 864 51 835 b 119 726 51 756 81 726 z m 315 726 b 382 796 354 726 382 756 b 315 864 382 835 354 864 b 246 796 275 864 246 835 b 315 726 246 756 275 726 z m 0 0 l 7 0 b 274 269 179 0 274 81 l 274 565 l 165 565 l 165 288 b 10 103 165 156 122 103 l 0 103 z "},"ث":{"ha":1290,"x_min":0,"x_max":0,"o":"m 629 753 b 697 822 669 753 697 782 b 629 890 697 860 669 890 b 561 822 590 890 561 860 b 629 753 561 782 590 753 z m 528 596 b 596 665 568 596 596 625 b 528 733 596 704 568 733 b 460 665 489 733 460 704 b 528 596 460 625 489 596 z m 654 665 b 724 596 654 625 683 596 b 790 665 763 596 790 625 b 724 733 790 704 763 733 b 654 665 683 733 654 704 z m 1106 565 l 1106 288 b 931 103 1106 151 1049 103 l 386 103 b 167 282 244 103 167 160 b 200 454 167 331 179 379 l 100 481 b 56 263 79 424 56 339 b 371 0 56 103 175 0 l 943 0 b 1214 240 1121 0 1214 104 l 1214 565 z "},"ﺚ":{"ha":1394,"x_min":0,"x_max":0,"o":"m 629 753 b 697 822 669 753 697 782 b 629 890 697 860 669 890 b 561 822 590 890 561 860 b 629 753 561 782 590 753 z m 528 596 b 596 665 568 596 596 625 b 528 733 596 704 568 733 b 460 665 489 733 460 704 b 528 596 460 625 489 596 z m 654 665 b 724 596 654 625 683 596 b 790 665 763 596 790 625 b 724 733 790 704 763 733 b 654 665 683 733 654 704 z m 1394 103 b 1214 261 1275 103 1214 156 l 1214 565 l 1106 565 l 1106 288 b 931 103 1106 151 1049 103 l 386 103 b 167 282 244 103 167 160 b 200 454 167 331 179 379 l 100 481 b 56 263 79 424 56 339 b 371 0 56 103 175 0 l 943 0 b 1171 99 1050 0 1126 38 b 1394 0 1208 36 1281 0 b 1422 51 1413 0 1422 21 b 1394 103 1422 82 1413 103 z "},"ﺜ":{"ha":454,"x_min":0,"x_max":0,"o":"m 221 883 b 289 953 261 883 289 913 b 221 1021 289 990 261 1021 b 153 953 182 1021 153 990 b 221 883 153 913 182 883 z m 119 726 b 188 796 160 726 188 756 b 119 864 188 835 160 864 b 51 796 81 864 51 835 b 119 726 51 756 81 726 z m 246 796 b 315 726 246 756 275 726 b 382 796 354 726 382 756 b 315 864 382 835 354 864 b 246 796 275 864 246 835 z m 454 103 b 274 261 335 103 274 156 l 274 565 l 165 565 l 165 288 b 10 103 165 156 122 103 l 0 103 l 0 0 l 7 0 b 232 96 113 0 188 31 b 454 0 269 35 342 0 b 482 51 472 0 482 21 b 454 103 482 82 472 103 z "},"ﺛ":{"ha":392,"x_min":0,"x_max":0,"o":"m 221 883 b 289 953 261 883 289 913 b 221 1021 289 990 261 1021 b 153 953 182 1021 153 990 b 221 883 153 913 182 883 z m 119 726 b 188 796 160 726 188 756 b 119 864 188 835 160 864 b 51 796 81 864 51 835 b 119 726 51 756 81 726 z m 315 726 b 382 796 354 726 382 756 b 315 864 382 835 354 864 b 246 796 275 864 246 835 b 315 726 246 756 275 726 z m 0 0 l 7 0 b 274 269 179 0 274 81 l 274 565 l 165 565 l 165 288 b 10 103 165 156 122 103 l 0 103 z "},"ٹ":{"ha":1290,"x_min":0,"x_max":0,"o":"m 56 263 b 371 0 56 103 175 0 l 943 0 b 1214 240 1121 0 1214 104 l 1214 565 l 1106 565 l 1106 288 b 931 103 1106 151 1049 103 l 386 103 b 167 282 244 103 167 160 b 200 454 167 331 179 379 l 100 481 b 56 263 79 424 56 339 z m 431 604 l 786 604 b 800 683 796 632 800 658 b 678 819 800 764 753 819 b 554 756 631 819 588 794 l 554 896 l 499 896 l 499 660 l 431 660 z m 551 660 b 674 764 579 729 629 764 b 746 685 717 764 746 733 b 743 660 746 676 744 668 z "},"ﭧ":{"ha":1394,"x_min":0,"x_max":0,"o":"m 56 263 b 371 0 56 103 175 0 l 943 0 b 1171 99 1050 0 1126 38 b 1394 0 1208 36 1281 0 b 1422 51 1413 0 1422 21 b 1394 103 1422 82 1413 103 b 1214 261 1275 103 1214 156 l 1214 565 l 1106 565 l 1106 288 b 931 103 1106 151 1049 103 l 386 103 b 167 282 244 103 167 160 b 200 454 167 331 179 379 l 100 481 b 56 263 79 424 56 339 z m 431 660 l 431 604 l 786 604 b 800 683 796 632 800 658 b 678 819 800 764 753 819 b 554 756 631 819 588 794 l 554 896 l 499 896 l 499 660 z m 674 764 b 746 685 717 764 746 733 b 743 660 746 676 744 668 l 551 660 b 674 764 579 729 629 764 z "},"ﭩ":{"ha":456,"x_min":0,"x_max":0,"o":"m 233 96 b 456 0 271 35 343 0 b 483 51 474 0 483 21 b 456 103 483 82 474 103 b 275 261 336 103 275 156 l 275 565 l 167 565 l 167 288 b 0 103 167 151 119 103 l 0 0 b 233 96 111 0 189 29 z m 379 735 b 393 814 389 763 393 789 b 271 950 393 894 346 950 b 147 886 224 950 181 925 l 147 1026 l 92 1026 l 92 790 l 24 790 l 24 735 z m 267 894 b 339 815 310 894 339 864 b 336 790 339 807 338 799 l 144 790 b 267 894 172 860 222 894 z "},"ﭨ":{"ha":351,"x_min":0,"x_max":0,"o":"m 0 103 l 0 0 b 275 269 181 0 275 78 l 275 565 l 167 565 l 167 288 b 0 103 167 151 119 103 z m 24 735 l 379 735 b 393 814 389 763 393 789 b 271 950 393 894 346 950 b 147 886 224 950 181 925 l 147 1026 l 92 1026 l 92 790 l 24 790 z m 267 894 b 339 815 310 894 339 864 b 336 790 339 807 338 799 l 144 790 b 267 894 172 860 222 894 z "},"ج":{"ha":864,"x_min":0,"x_max":0,"o":"m 419 581 b 229 547 363 581 297 572 l 254 450 b 403 475 310 467 353 475 b 675 197 590 475 675 358 b 664 103 675 163 671 129 l 300 103 b 56 -126 150 103 56 13 b 329 -361 56 -276 171 -361 b 435 -350 374 -361 404 -357 l 414 -249 b 343 -256 392 -253 368 -256 b 167 -125 231 -256 167 -212 b 313 0 167 -44 218 0 l 753 0 b 781 206 771 72 781 142 b 419 581 781 426 667 581 z m 419 -50 b 357 -112 382 -50 357 -76 b 419 -174 357 -149 382 -174 b 479 -112 456 -174 479 -149 b 419 -50 479 -76 456 -50 z "},"ﺞ":{"ha":940,"x_min":0,"x_max":0,"o":"m 329 -361 b 435 -350 374 -361 404 -357 l 414 -249 b 343 -256 392 -253 368 -256 b 167 -125 231 -256 167 -212 b 313 0 167 -44 218 0 l 940 0 b 968 51 958 0 968 21 b 940 103 968 82 958 103 l 774 103 b 781 206 778 139 781 172 b 419 581 781 426 667 581 b 229 547 363 581 297 572 l 254 450 b 403 475 310 467 353 475 b 675 197 590 475 675 358 b 664 103 675 163 671 129 l 300 103 b 56 -126 150 103 56 13 b 329 -361 56 -276 171 -361 z m 357 -112 b 419 -174 357 -149 382 -174 b 479 -112 456 -174 479 -149 b 419 -50 479 -76 456 -50 b 357 -112 382 -50 357 -76 z "},"ﺠ":{"ha":758,"x_min":0,"x_max":0,"o":"m 0 103 l 0 0 l 758 0 b 786 51 776 0 786 21 b 758 103 786 82 776 103 l 592 103 b 239 581 633 382 525 581 b 47 547 181 581 115 572 l 72 450 b 221 475 128 467 171 475 b 483 103 500 475 510 221 z m 275 -258 b 342 -190 315 -258 342 -229 b 275 -121 342 -150 315 -121 b 206 -190 233 -121 206 -150 b 275 -258 206 -229 233 -258 z "},"ﺟ":{"ha":683,"x_min":0,"x_max":0,"o":"m 0 0 l 571 0 b 239 581 656 332 560 581 b 47 547 181 581 115 572 l 72 450 b 221 475 128 467 171 475 b 483 103 500 475 510 221 l 0 103 z m 275 -258 b 342 -190 315 -258 342 -229 b 275 -121 342 -150 315 -121 b 206 -190 233 -121 206 -150 b 275 -258 206 -229 233 -258 z "},"چ":{"ha":864,"x_min":0,"x_max":0,"o":"m 419 581 b 229 547 363 581 297 572 l 254 450 b 403 475 310 467 353 475 b 675 197 590 475 675 358 b 664 103 675 163 671 129 l 300 103 b 56 -126 150 103 56 13 b 329 -361 56 -276 171 -361 b 435 -350 374 -361 404 -357 l 414 -249 b 343 -256 392 -253 368 -256 b 167 -125 231 -256 167 -212 b 313 0 167 -44 218 0 l 753 0 b 781 206 771 72 781 142 b 419 581 781 426 667 581 z m 429 -67 b 382 -114 401 -67 382 -86 b 429 -162 382 -142 401 -162 b 476 -114 457 -162 476 -142 b 429 -67 476 -86 457 -67 z m 567 -67 b 518 -114 538 -67 518 -86 b 567 -162 518 -142 538 -162 b 613 -114 593 -162 613 -142 b 567 -67 613 -86 593 -67 z m 499 -174 b 451 -222 472 -174 451 -194 b 499 -271 451 -250 472 -271 b 547 -222 528 -271 547 -250 b 499 -174 547 -194 528 -174 z "},"ﭻ":{"ha":940,"x_min":0,"x_max":0,"o":"m 56 -126 b 329 -361 56 -276 171 -361 b 435 -350 374 -361 404 -357 l 414 -249 b 343 -256 392 -253 368 -256 b 167 -125 231 -256 167 -212 b 313 0 167 -44 218 0 l 940 0 b 968 51 958 0 968 21 b 940 103 968 82 958 103 l 774 103 b 781 206 778 139 781 172 b 419 581 781 426 667 581 b 229 547 363 581 297 572 l 254 450 b 403 475 310 467 353 475 b 675 197 590 475 675 358 b 664 103 675 163 671 129 l 300 103 b 56 -126 150 103 56 13 z m 499 -271 b 547 -222 528 -271 547 -250 b 499 -174 547 -194 528 -174 b 451 -222 472 -174 451 -194 b 499 -271 451 -250 472 -271 z m 518 -114 b 567 -162 518 -142 538 -162 b 613 -114 593 -162 613 -142 b 567 -67 613 -86 593 -67 b 518 -114 538 -67 518 -86 z m 429 -162 b 476 -114 457 -162 476 -142 b 429 -67 476 -86 457 -67 b 382 -114 401 -67 382 -86 b 429 -162 382 -142 401 -162 z "},"ﭽ":{"ha":758,"x_min":0,"x_max":0,"o":"m 0 103 l 0 0 l 758 0 b 786 51 776 0 786 21 b 758 103 786 82 776 103 l 592 103 b 239 581 633 382 525 581 b 47 547 181 581 115 572 l 72 450 b 221 475 128 467 171 475 b 483 103 500 475 510 221 z m 106 -190 b 174 -260 106 -231 135 -260 b 242 -190 214 -260 242 -231 b 174 -122 242 -151 214 -122 b 106 -190 135 -122 106 -151 z m 206 -346 b 274 -414 206 -385 235 -414 b 342 -346 314 -414 342 -385 b 274 -276 342 -306 314 -276 b 206 -346 235 -276 206 -306 z m 300 -190 b 369 -260 300 -231 329 -260 b 436 -190 408 -260 436 -231 b 369 -122 436 -151 408 -122 b 300 -190 329 -122 300 -151 z "},"ﭼ":{"ha":683,"x_min":0,"x_max":0,"o":"m 0 0 l 571 0 b 239 581 656 332 560 581 b 47 547 181 581 115 572 l 72 450 b 221 475 128 467 171 475 b 483 103 500 475 510 221 l 0 103 z m 174 -260 b 242 -190 214 -260 242 -231 b 174 -122 242 -151 214 -122 b 106 -190 135 -122 106 -151 b 174 -260 106 -231 135 -260 z m 369 -260 b 436 -190 408 -260 436 -231 b 369 -122 436 -151 408 -122 b 300 -190 329 -122 300 -151 b 369 -260 300 -231 329 -260 z m 274 -414 b 342 -346 314 -414 342 -385 b 274 -276 342 -306 314 -276 b 206 -346 235 -276 206 -306 b 274 -414 206 -385 235 -414 z "},"ح":{"ha":864,"x_min":0,"x_max":0,"o":"m 313 0 l 753 0 b 781 206 771 72 781 142 b 419 581 781 426 667 581 b 229 547 363 581 297 572 l 254 450 b 403 475 310 467 353 475 b 675 197 590 475 675 358 b 664 103 675 163 671 129 l 300 103 b 56 -126 150 103 56 13 b 329 -361 56 -276 171 -361 b 483 -336 397 -361 435 -351 l 464 -237 b 343 -256 426 -247 388 -256 b 167 -125 231 -256 167 -212 b 313 0 167 -44 218 0 z "},"ﺢ":{"ha":940,"x_min":0,"x_max":0,"o":"m 329 -361 b 483 -336 397 -361 435 -351 l 464 -237 b 343 -256 426 -247 388 -256 b 167 -125 231 -256 167 -212 b 313 0 167 -44 218 0 l 940 0 b 968 51 958 0 968 21 b 940 103 968 82 958 103 l 774 103 b 781 206 778 139 781 172 b 419 581 781 426 667 581 b 229 547 363 581 297 572 l 254 450 b 403 475 310 467 353 475 b 675 197 590 475 675 358 b 664 103 675 163 671 129 l 300 103 b 56 -126 150 103 56 13 b 329 -361 56 -276 171 -361 z "},"ﺤ":{"ha":758,"x_min":0,"x_max":0,"o":"m 0 0 l 758 0 b 786 51 776 0 786 21 b 758 103 786 82 776 103 l 592 103 b 239 581 633 382 525 581 b 47 547 181 581 115 572 l 72 450 b 221 475 128 467 171 475 b 483 103 500 475 510 221 l 0 103 z "},"ﺣ":{"ha":683,"x_min":0,"x_max":0,"o":"m 0 0 l 571 0 b 239 581 656 332 560 581 b 47 547 181 581 115 572 l 72 450 b 221 475 128 467 171 475 b 483 103 500 475 510 221 l 0 103 z "},"خ":{"ha":864,"x_min":0,"x_max":0,"o":"m 419 742 b 486 811 460 742 486 771 b 419 879 486 850 460 879 b 350 811 378 879 350 850 b 419 742 350 771 378 742 z m 313 0 l 753 0 b 781 206 771 72 781 142 b 419 581 781 426 667 581 b 229 547 363 581 297 572 l 254 450 b 403 475 310 467 353 475 b 675 197 590 475 675 358 b 664 103 675 163 671 129 l 300 103 b 56 -126 150 103 56 13 b 329 -361 56 -276 171 -361 b 483 -336 397 -361 435 -351 l 464 -237 b 343 -256 426 -247 388 -256 b 167 -125 231 -256 167 -212 b 313 0 167 -44 218 0 z "},"ﺦ":{"ha":940,"x_min":0,"x_max":0,"o":"m 56 -126 b 329 -361 56 -276 171 -361 b 483 -336 397 -361 435 -351 l 464 -237 b 343 -256 426 -247 388 -256 b 167 -125 231 -256 167 -212 b 313 0 167 -44 218 0 l 940 0 b 968 51 958 0 968 21 b 940 103 968 82 958 103 l 774 103 b 781 206 778 139 781 172 b 419 581 781 426 667 581 b 229 547 363 581 297 572 l 254 450 b 403 475 310 467 353 475 b 675 197 590 475 675 358 b 664 103 675 163 671 129 l 300 103 b 56 -126 150 103 56 13 z m 419 742 b 486 811 460 742 486 771 b 419 879 486 850 460 879 b 350 811 378 879 350 850 b 419 742 350 771 378 742 z "},"ﺨ":{"ha":758,"x_min":0,"x_max":0,"o":"m 0 0 l 758 0 b 786 51 776 0 786 21 b 758 103 786 82 776 103 l 592 103 b 239 581 633 382 525 581 b 47 547 181 581 115 572 l 72 450 b 221 475 128 467 171 475 b 483 103 500 475 510 221 l 0 103 z m 239 742 b 306 811 279 742 306 771 b 239 879 306 850 279 879 b 169 811 197 879 169 850 b 239 742 169 771 197 742 z "},"ﺧ":{"ha":683,"x_min":0,"x_max":0,"o":"m 239 742 b 306 811 279 742 306 771 b 239 879 306 850 279 879 b 169 811 197 879 169 850 b 239 742 169 771 197 742 z m 0 0 l 571 0 b 239 581 656 332 560 581 b 47 547 181 581 115 572 l 72 450 b 221 475 128 467 171 475 b 483 103 500 475 510 221 l 0 103 z "},"د":{"ha":710,"x_min":0,"x_max":0,"o":"m 56 0 l 626 0 l 626 93 b 308 607 626 285 561 442 l 243 519 b 518 128 410 413 518 278 l 518 103 l 56 103 z "},"ﺪ":{"ha":772,"x_min":0,"x_max":0,"o":"m 56 103 l 56 0 l 772 0 b 800 51 790 0 800 21 b 772 103 800 82 790 103 l 626 103 b 308 607 624 290 557 444 l 243 519 b 518 128 410 413 518 278 l 518 103 z "},"ذ":{"ha":710,"x_min":0,"x_max":0,"o":"m 267 726 b 333 796 307 726 333 756 b 267 864 333 835 307 864 b 197 796 225 864 197 835 b 267 726 197 756 225 726 z m 56 0 l 626 0 l 626 93 b 308 607 626 285 561 442 l 243 519 b 518 128 410 413 518 278 l 518 103 l 56 103 z "},"ﺬ":{"ha":772,"x_min":0,"x_max":0,"o":"m 56 0 l 772 0 b 800 51 790 0 800 21 b 772 103 800 82 790 103 l 626 103 b 308 607 624 290 557 444 l 243 519 b 518 128 410 413 518 278 l 518 103 l 56 103 z m 197 796 b 267 726 197 756 225 726 b 333 796 307 726 333 756 b 267 864 333 835 307 864 b 197 796 225 864 197 835 z "},"ڈ":{"ha":710,"x_min":0,"x_max":0,"o":"m 626 0 l 626 93 b 308 607 626 285 561 442 l 243 519 b 518 128 410 413 518 278 l 518 103 l 56 103 l 56 0 z m 69 790 l 69 735 l 425 735 b 439 814 435 763 439 789 b 317 950 439 894 392 950 b 193 886 269 950 226 925 l 193 1026 l 138 1026 l 138 790 z m 313 894 b 385 815 356 894 385 864 b 382 790 385 807 383 799 l 190 790 b 313 894 218 860 268 894 z "},"ﮉ":{"ha":772,"x_min":0,"x_max":0,"o":"m 56 0 l 772 0 b 800 51 790 0 800 21 b 772 103 800 82 790 103 l 626 103 b 308 607 624 290 557 444 l 243 519 b 518 128 410 413 518 278 l 518 103 l 56 103 z m 69 790 l 69 735 l 425 735 b 439 814 435 763 439 789 b 317 950 439 894 392 950 b 193 886 269 950 226 925 l 193 1026 l 138 1026 l 138 790 z m 190 790 b 313 894 218 860 268 894 b 385 815 356 894 385 864 b 382 790 385 807 383 799 z "},"ر":{"ha":408,"x_min":0,"x_max":0,"o":"m 17 -239 b 304 113 215 -217 304 -93 l 304 565 l 196 565 l 196 89 b -6 -139 196 -61 132 -117 z "},"ﺮ":{"ha":489,"x_min":0,"x_max":0,"o":"m 489 103 l 304 103 l 304 565 l 196 565 l 196 89 b -6 -139 196 -61 132 -117 l 17 -239 b 294 4 178 -221 267 -136 l 294 0 l 489 0 b 517 51 507 0 517 21 b 489 103 517 82 507 103 z "},"ز":{"ha":408,"x_min":0,"x_max":0,"o":"m 250 726 b 317 796 290 726 317 756 b 250 864 317 835 290 864 b 181 796 208 864 181 835 b 250 726 181 756 208 726 z m 17 -239 b 304 113 215 -217 304 -93 l 304 565 l 196 565 l 196 89 b -6 -139 196 -61 132 -117 z "},"ﺰ":{"ha":489,"x_min":0,"x_max":0,"o":"m 250 726 b 317 796 290 726 317 756 b 250 864 317 835 290 864 b 181 796 208 864 181 835 b 250 726 181 756 208 726 z m 489 103 l 304 103 l 304 565 l 196 565 l 196 89 b -6 -139 196 -61 132 -117 l 17 -239 b 294 4 178 -221 267 -136 l 294 0 l 489 0 b 517 51 507 0 517 21 b 489 103 517 82 507 103 z "},"ڑ":{"ha":408,"x_min":0,"x_max":0,"o":"m -6 -139 l 17 -239 b 304 113 215 -217 304 -93 l 304 565 l 196 565 l 196 89 b -6 -139 196 -61 132 -117 z m 53 735 l 408 735 b 422 814 418 763 422 789 b 300 950 422 894 375 950 b 176 886 253 950 210 925 l 176 1026 l 121 1026 l 121 790 l 53 790 z m 296 894 b 368 815 339 894 368 864 b 365 790 368 807 367 799 l 174 790 b 296 894 201 860 251 894 z "},"ﮍ":{"ha":489,"x_min":0,"x_max":0,"o":"m 17 -239 b 294 4 178 -221 267 -136 l 294 0 l 489 0 b 517 51 507 0 517 21 b 489 103 517 82 507 103 l 304 103 l 304 565 l 196 565 l 196 89 b -6 -139 196 -61 132 -117 z m 408 735 b 422 814 418 763 422 789 b 300 950 422 894 375 950 b 176 886 253 950 210 925 l 176 1026 l 121 1026 l 121 790 l 53 790 l 53 735 z m 174 790 b 296 894 201 860 251 894 b 368 815 339 894 368 864 b 365 790 368 807 367 799 z "},"ژ":{"ha":408,"x_min":0,"x_max":0,"o":"m 251 883 b 319 953 292 883 319 913 b 251 1021 319 990 292 1021 b 183 953 213 1021 183 990 b 251 883 183 913 213 883 z m 150 726 b 218 796 190 726 218 756 b 150 864 218 835 190 864 b 82 796 111 864 82 835 b 150 726 82 756 111 726 z m 346 726 b 413 796 385 726 413 756 b 346 864 413 835 385 864 b 276 796 306 864 276 835 b 346 726 276 756 306 726 z m 17 -239 b 304 113 215 -217 304 -93 l 304 565 l 196 565 l 196 89 b -6 -139 196 -61 132 -117 z "},"ﮋ":{"ha":489,"x_min":0,"x_max":0,"o":"m 251 883 b 319 953 292 883 319 913 b 251 1021 319 990 292 1021 b 183 953 213 1021 183 990 b 251 883 183 913 213 883 z m 150 726 b 218 796 190 726 218 756 b 150 864 218 835 190 864 b 82 796 111 864 82 835 b 150 726 82 756 111 726 z m 276 796 b 346 726 276 756 306 726 b 413 796 385 726 413 756 b 346 864 413 835 385 864 b 276 796 306 864 276 835 z m 489 103 l 304 103 l 304 565 l 196 565 l 196 89 b -6 -139 196 -61 132 -117 l 17 -239 b 294 4 178 -221 267 -136 l 294 0 l 489 0 b 517 51 507 0 517 21 b 489 103 517 82 507 103 z "},"س":{"ha":1664,"x_min":0,"x_max":0,"o":"m 428 -228 b 803 36 628 -228 774 -137 b 944 -4 836 8 888 -4 b 1150 85 1044 -4 1111 29 b 1339 0 1183 32 1250 0 b 1588 240 1496 0 1588 89 l 1588 565 l 1479 565 l 1479 288 b 1338 103 1479 154 1440 103 b 1196 218 1251 103 1196 135 l 1196 464 l 1088 464 l 1088 276 b 943 103 1088 136 1032 103 b 808 217 876 103 808 122 l 808 464 l 700 464 l 700 135 b 432 -122 700 -50 596 -122 b 167 110 268 -122 167 -51 b 211 310 167 171 179 231 l 114 343 b 56 96 74 249 56 165 b 428 -228 56 -87 178 -228 z "},"ﺲ":{"ha":1768,"x_min":0,"x_max":0,"o":"m 56 96 b 428 -228 56 -87 178 -228 b 803 36 628 -228 774 -137 b 944 -4 836 8 888 -4 b 1150 85 1044 -4 1111 29 b 1339 0 1183 32 1250 0 b 1547 93 1435 0 1506 33 b 1768 0 1586 35 1657 0 b 1796 51 1786 0 1796 21 b 1768 103 1796 82 1786 103 b 1588 261 1649 103 1588 156 l 1588 565 l 1479 565 l 1479 288 b 1338 103 1479 154 1440 103 b 1196 218 1251 103 1196 135 l 1196 464 l 1088 464 l 1088 276 b 943 103 1088 136 1032 103 b 808 217 876 103 808 122 l 808 464 l 700 464 l 700 135 b 432 -122 700 -50 596 -122 b 167 110 268 -122 167 -51 b 211 310 167 171 179 231 l 114 343 b 56 96 74 249 56 165 z "},"ﺴ":{"ha":1243,"x_min":0,"x_max":0,"o":"m 0 0 l 21 0 b 235 78 126 0 201 38 b 419 0 269 17 342 0 b 625 85 519 0 585 31 b 814 0 658 32 725 0 b 1022 93 910 0 981 33 b 1243 0 1061 35 1132 0 b 1271 51 1261 0 1271 21 b 1243 103 1271 82 1261 103 b 1063 261 1124 103 1063 156 l 1063 565 l 954 565 l 954 288 b 813 103 954 154 915 103 b 671 218 726 103 671 135 l 671 464 l 563 464 l 563 276 b 418 103 563 136 507 103 b 283 217 351 103 283 122 l 283 464 l 175 464 l 175 276 b 22 103 175 133 118 103 l 0 103 z "},"ﺳ":{"ha":1139,"x_min":0,"x_max":0,"o":"m 0 103 l 0 0 l 21 0 b 235 78 126 0 201 38 b 419 0 269 17 342 0 b 625 85 519 0 585 31 b 814 0 658 32 725 0 b 1063 240 971 0 1063 89 l 1063 565 l 954 565 l 954 288 b 813 103 954 154 915 103 b 671 218 726 103 671 135 l 671 464 l 563 464 l 563 276 b 418 103 563 136 507 103 b 283 217 351 103 283 122 l 283 464 l 175 464 l 175 276 b 22 103 175 133 118 103 z "},"ش":{"ha":1664,"x_min":0,"x_max":0,"o":"m 428 -228 b 803 36 628 -228 774 -137 b 944 -4 836 8 888 -4 b 1150 85 1044 -4 1111 29 b 1339 0 1183 32 1250 0 b 1588 240 1496 0 1588 89 l 1588 565 l 1479 565 l 1479 288 b 1338 103 1479 154 1440 103 b 1196 218 1251 103 1196 135 l 1196 464 l 1088 464 l 1088 276 b 943 103 1088 136 1032 103 b 808 217 876 103 808 122 l 808 464 l 700 464 l 700 135 b 432 -122 700 -50 596 -122 b 167 110 268 -122 167 -51 b 211 310 167 171 179 231 l 114 343 b 56 96 74 249 56 165 b 428 -228 56 -87 178 -228 z m 1042 625 b 1110 694 1082 625 1110 654 b 1042 763 1110 733 1082 763 b 974 694 1003 763 974 733 b 1042 625 974 654 1003 625 z m 1238 625 b 1304 694 1276 625 1304 654 b 1238 763 1304 733 1276 763 b 1168 694 1197 763 1168 733 b 1238 625 1168 654 1197 625 z m 1075 851 b 1143 782 1075 811 1104 782 b 1211 851 1183 782 1211 811 b 1143 919 1211 889 1183 919 b 1075 851 1104 919 1075 889 z "},"ﺶ":{"ha":1768,"x_min":0,"x_max":0,"o":"m 56 96 b 428 -228 56 -87 178 -228 b 803 36 628 -228 774 -137 b 944 -4 836 8 888 -4 b 1150 85 1044 -4 1111 29 b 1339 0 1183 32 1250 0 b 1547 93 1435 0 1506 33 b 1768 0 1586 35 1657 0 b 1796 51 1786 0 1796 21 b 1768 103 1796 82 1786 103 b 1588 261 1649 103 1588 156 l 1588 565 l 1479 565 l 1479 288 b 1338 103 1479 154 1440 103 b 1196 218 1251 103 1196 135 l 1196 464 l 1088 464 l 1088 276 b 943 103 1088 136 1032 103 b 808 217 876 103 808 122 l 808 464 l 700 464 l 700 135 b 432 -122 700 -50 596 -122 b 167 110 268 -122 167 -51 b 211 310 167 171 179 231 l 114 343 b 56 96 74 249 56 165 z m 974 694 b 1042 625 974 654 1003 625 b 1110 694 1082 625 1110 654 b 1042 763 1110 733 1082 763 b 974 694 1003 763 974 733 z m 1238 625 b 1304 694 1276 625 1304 654 b 1238 763 1304 733 1276 763 b 1168 694 1197 763 1168 733 b 1238 625 1168 654 1197 625 z m 1075 851 b 1143 782 1075 811 1104 782 b 1211 851 1183 782 1211 811 b 1143 919 1211 889 1183 919 b 1075 851 1104 919 1075 889 z "},"ﺸ":{"ha":1243,"x_min":0,"x_max":0,"o":"m 0 0 l 21 0 b 235 78 126 0 201 38 b 419 0 269 17 342 0 b 625 85 519 0 585 31 b 814 0 658 32 725 0 b 1022 93 910 0 981 33 b 1243 0 1061 35 1132 0 b 1271 51 1261 0 1271 21 b 1243 103 1271 82 1261 103 b 1063 261 1124 103 1063 156 l 1063 565 l 954 565 l 954 288 b 813 103 954 154 915 103 b 671 218 726 103 671 135 l 671 464 l 563 464 l 563 276 b 418 103 563 136 507 103 b 283 217 351 103 283 122 l 283 464 l 175 464 l 175 276 b 22 103 175 133 118 103 l 0 103 z m 449 694 b 517 625 449 654 478 625 b 585 694 557 625 585 654 b 517 763 585 733 557 763 b 449 694 478 763 449 733 z m 713 625 b 779 694 751 625 779 654 b 713 763 779 733 751 763 b 643 694 672 763 643 733 b 713 625 643 654 672 625 z m 618 782 b 686 851 658 782 686 811 b 618 919 686 889 658 919 b 550 851 579 919 550 889 b 618 782 550 811 579 782 z "},"ﺷ":{"ha":1139,"x_min":0,"x_max":0,"o":"m 0 0 l 21 0 b 235 78 126 0 201 38 b 419 0 269 17 342 0 b 625 85 519 0 585 31 b 814 0 658 32 725 0 b 1063 240 971 0 1063 89 l 1063 565 l 954 565 l 954 288 b 813 103 954 154 915 103 b 671 218 726 103 671 135 l 671 464 l 563 464 l 563 276 b 418 103 563 136 507 103 b 283 217 351 103 283 122 l 283 464 l 175 464 l 175 276 b 22 103 175 133 118 103 l 0 103 z m 449 694 b 517 625 449 654 478 625 b 585 694 557 625 585 654 b 517 763 585 733 557 763 b 449 694 478 763 449 733 z m 643 694 b 713 625 643 654 672 625 b 779 694 751 625 779 654 b 713 763 779 733 751 763 b 643 694 672 763 643 733 z m 618 782 b 686 851 658 782 686 811 b 618 919 686 889 658 919 b 550 851 579 919 550 889 b 618 782 550 811 579 782 z "},"ص":{"ha":1853,"x_min":0,"x_max":0,"o":"m 1461 581 b 883 110 1329 581 1111 519 b 808 199 843 121 808 146 l 808 464 l 700 464 l 700 135 b 432 -122 700 -50 596 -122 b 167 110 268 -122 167 -51 b 211 310 167 171 179 231 l 114 343 b 56 96 74 249 56 165 b 428 -228 56 -87 178 -228 b 803 35 628 -228 772 -137 b 947 0 847 6 907 0 l 1731 0 b 1769 233 1757 82 1769 161 b 1461 581 1769 433 1669 581 z m 1643 103 l 999 103 b 1450 475 1158 374 1314 475 b 1660 228 1590 475 1660 368 b 1643 103 1660 188 1654 146 z "},"ﺺ":{"ha":1925,"x_min":0,"x_max":0,"o":"m 56 96 b 428 -228 56 -87 178 -228 b 803 35 628 -228 772 -137 b 947 0 847 6 907 0 l 1925 0 b 1953 51 1943 0 1953 21 b 1925 103 1953 82 1943 103 l 1757 103 b 1769 233 1765 149 1769 192 b 1461 581 1769 433 1669 581 b 883 110 1329 581 1111 519 b 808 199 843 121 808 146 l 808 464 l 700 464 l 700 135 b 432 -122 700 -50 596 -122 b 167 110 268 -122 167 -51 b 211 310 167 171 179 231 l 114 343 b 56 96 74 249 56 165 z m 1450 475 b 1660 228 1590 475 1660 368 b 1643 103 1660 188 1654 146 l 999 103 b 1450 475 1158 374 1314 475 z "},"ﺼ":{"ha":1365,"x_min":0,"x_max":0,"o":"m 0 0 b 203 76 115 0 175 32 b 388 0 244 8 332 0 l 1365 0 b 1393 51 1383 0 1393 21 b 1365 103 1393 82 1383 103 l 1197 103 b 1210 233 1206 149 1210 192 b 901 581 1210 433 1110 581 b 325 111 769 581 553 521 b 249 217 283 124 249 154 l 249 464 l 140 464 l 140 276 b 0 103 140 149 101 103 z m 439 103 b 890 475 599 374 754 475 b 1100 228 1031 475 1100 368 b 1083 103 1100 188 1094 146 z "},"ﺻ":{"ha":1293,"x_min":0,"x_max":0,"o":"m 901 581 b 325 111 769 581 553 521 b 249 217 283 124 249 154 l 249 464 l 140 464 l 140 276 b 0 103 140 149 101 103 l 0 0 b 203 76 115 0 175 32 b 388 0 244 8 332 0 l 1171 0 b 1210 233 1197 82 1210 161 b 901 581 1210 433 1110 581 z m 1083 103 l 439 103 b 890 475 599 374 754 475 b 1100 228 1031 475 1100 368 b 1083 103 1100 188 1094 146 z "},"ض":{"ha":1853,"x_min":0,"x_max":0,"o":"m 1339 742 b 1406 811 1379 742 1406 771 b 1339 879 1406 850 1379 879 b 1269 811 1297 879 1269 850 b 1339 742 1269 771 1297 742 z m 1461 581 b 883 110 1329 581 1111 519 b 808 199 843 121 808 146 l 808 464 l 700 464 l 700 135 b 432 -122 700 -50 596 -122 b 167 110 268 -122 167 -51 b 211 310 167 171 179 231 l 114 343 b 56 96 74 249 56 165 b 428 -228 56 -87 178 -228 b 803 35 628 -228 772 -137 b 947 0 847 6 907 0 l 1731 0 b 1769 233 1757 82 1769 161 b 1461 581 1769 433 1669 581 z m 1643 103 l 999 103 b 1450 475 1158 374 1314 475 b 1660 228 1590 475 1660 368 b 1643 103 1660 188 1654 146 z "},"ﺾ":{"ha":1925,"x_min":0,"x_max":0,"o":"m 56 96 b 428 -228 56 -87 178 -228 b 803 35 628 -228 772 -137 b 947 0 847 6 907 0 l 1925 0 b 1953 51 1943 0 1953 21 b 1925 103 1953 82 1943 103 l 1757 103 b 1769 233 1765 149 1769 192 b 1461 581 1769 433 1669 581 b 883 110 1329 581 1111 519 b 808 199 843 121 808 146 l 808 464 l 700 464 l 700 135 b 432 -122 700 -50 596 -122 b 167 110 268 -122 167 -51 b 211 310 167 171 179 231 l 114 343 b 56 96 74 249 56 165 z m 1450 475 b 1660 228 1590 475 1660 368 b 1643 103 1660 188 1654 146 l 999 103 b 1450 475 1158 374 1314 475 z m 1269 811 b 1339 742 1269 771 1297 742 b 1406 811 1379 742 1406 771 b 1339 879 1406 850 1379 879 b 1269 811 1297 879 1269 850 z "},"ﻀ":{"ha":1365,"x_min":0,"x_max":0,"o":"m 0 0 b 203 76 115 0 175 32 b 388 0 244 8 332 0 l 1365 0 b 1393 51 1383 0 1393 21 b 1365 103 1393 82 1383 103 l 1197 103 b 1210 233 1206 149 1210 192 b 901 581 1210 433 1110 581 b 325 111 769 581 553 521 b 249 217 283 124 249 154 l 249 464 l 140 464 l 140 276 b 0 103 140 149 101 103 z m 439 103 b 890 475 599 374 754 475 b 1100 228 1031 475 1100 368 b 1083 103 1100 188 1094 146 z m 779 742 b 846 811 819 742 846 771 b 779 879 846 850 819 879 b 710 811 738 879 710 850 b 779 742 710 771 738 742 z "},"ﺿ":{"ha":1293,"x_min":0,"x_max":0,"o":"m 779 742 b 846 811 819 742 846 771 b 779 879 846 850 819 879 b 710 811 738 879 710 850 b 779 742 710 771 738 742 z m 901 581 b 325 111 769 581 553 521 b 249 217 283 124 249 154 l 249 464 l 140 464 l 140 276 b 0 103 140 149 101 103 l 0 0 b 203 76 115 0 175 32 b 388 0 244 8 332 0 l 1171 0 b 1210 233 1197 82 1210 161 b 901 581 1210 433 1110 581 z m 1083 103 l 439 103 b 890 475 599 374 754 475 b 1100 228 1031 475 1100 368 b 1083 103 1100 188 1094 146 z "},"ط":{"ha":1178,"x_min":0,"x_max":0,"o":"m 56 0 l 1056 0 b 1094 232 1082 83 1094 165 b 788 581 1094 418 997 581 b 308 274 626 581 456 479 l 308 1050 l 200 1050 l 200 103 l 56 103 z m 313 103 b 778 475 449 346 631 475 b 985 231 918 475 985 367 b 968 103 985 190 979 146 z "},"ﻂ":{"ha":1250,"x_min":0,"x_max":0,"o":"m 56 103 l 56 0 l 1250 0 b 1278 51 1268 0 1278 21 b 1250 103 1278 82 1268 103 l 1082 103 b 1094 232 1090 149 1094 193 b 788 581 1094 418 997 581 b 308 274 626 581 456 479 l 308 1050 l 200 1050 l 200 103 z m 313 103 b 778 475 449 346 631 475 b 985 231 918 475 985 367 b 968 103 985 190 979 146 z "},"ﻄ":{"ha":1181,"x_min":0,"x_max":0,"o":"m 0 103 l 0 0 l 1181 0 b 1208 51 1199 0 1208 21 b 1181 103 1208 82 1199 103 l 1021 103 b 1033 232 1029 149 1033 193 b 726 581 1033 418 936 581 b 247 274 565 581 394 479 l 247 1050 l 139 1050 l 139 103 z m 251 103 b 717 475 388 346 569 475 b 924 231 857 475 924 367 b 907 103 924 190 918 146 z "},"ﻃ":{"ha":1117,"x_min":0,"x_max":0,"o":"m 0 0 l 994 0 b 1033 232 1021 83 1033 165 b 726 581 1033 418 936 581 b 247 274 565 581 394 479 l 247 1050 l 139 1050 l 139 103 l 0 103 z m 251 103 b 717 475 388 346 569 475 b 924 231 857 475 924 367 b 907 103 924 190 918 146 z "},"ظ":{"ha":1178,"x_min":0,"x_max":0,"o":"m 56 0 l 1056 0 b 1094 232 1082 83 1094 165 b 788 581 1094 418 997 581 b 308 274 626 581 456 479 l 308 1050 l 200 1050 l 200 103 l 56 103 z m 313 103 b 778 475 449 346 631 475 b 985 231 918 475 985 367 b 968 103 985 190 979 146 z m 621 811 b 690 742 621 771 649 742 b 757 811 731 742 757 771 b 690 879 757 850 731 879 b 621 811 649 879 621 850 z "},"ﻆ":{"ha":1250,"x_min":0,"x_max":0,"o":"m 56 103 l 56 0 l 1250 0 b 1278 51 1268 0 1278 21 b 1250 103 1278 82 1268 103 l 1082 103 b 1094 232 1090 149 1094 193 b 788 581 1094 418 997 581 b 308 274 626 581 456 479 l 308 1050 l 200 1050 l 200 103 z m 313 103 b 778 475 449 346 631 475 b 985 231 918 475 985 367 b 968 103 985 190 979 146 z m 690 742 b 757 811 731 742 757 771 b 690 879 757 850 731 879 b 621 811 649 879 621 850 b 690 742 621 771 649 742 z "},"ﻈ":{"ha":1181,"x_min":0,"x_max":0,"o":"m 0 103 l 0 0 l 1181 0 b 1208 51 1199 0 1208 21 b 1181 103 1208 82 1199 103 l 1021 103 b 1033 232 1029 149 1033 193 b 726 581 1033 418 936 581 b 247 274 565 581 394 479 l 247 1050 l 139 1050 l 139 103 z m 251 103 b 717 475 388 346 569 475 b 924 231 857 475 924 367 b 907 103 924 190 918 146 z m 629 742 b 696 811 669 742 696 771 b 629 879 696 850 669 879 b 560 811 588 879 560 850 b 629 742 560 771 588 742 z "},"ﻇ":{"ha":1117,"x_min":0,"x_max":0,"o":"m 0 0 l 994 0 b 1033 232 1021 83 1033 165 b 726 581 1033 418 936 581 b 247 274 565 581 394 479 l 247 1050 l 139 1050 l 139 103 l 0 103 z m 251 103 b 717 475 388 346 569 475 b 924 231 857 475 924 367 b 907 103 924 190 918 146 z m 560 811 b 629 742 560 771 588 742 b 696 811 669 742 696 771 b 629 879 696 850 669 879 b 560 811 588 879 560 850 z "},"ع":{"ha":721,"x_min":0,"x_max":0,"o":"m 331 0 l 674 0 l 674 103 l 375 103 b 283 306 333 144 283 219 b 490 475 283 410 357 475 b 621 457 539 475 582 467 l 642 560 b 492 581 600 571 553 581 b 169 313 279 581 169 467 b 251 96 169 229 201 157 b 56 -126 132 74 56 -10 b 343 -361 56 -276 165 -361 b 483 -339 394 -361 435 -354 l 464 -240 b 346 -256 426 -250 386 -256 b 167 -124 243 -256 167 -221 b 331 0 167 -44 228 0 z "},"ﻊ":{"ha":808,"x_min":0,"x_max":0,"o":"m 808 103 l 679 103 b 522 121 631 103 574 110 b 694 376 621 185 694 272 b 422 581 694 506 583 581 b 125 489 293 581 193 532 b 101 372 114 461 106 411 b 303 138 172 290 243 221 b 56 -135 131 75 56 -22 b 342 -361 56 -289 168 -361 b 483 -339 396 -361 435 -354 l 464 -240 b 343 -256 426 -250 388 -256 b 167 -132 236 -256 167 -222 b 382 60 167 -68 221 7 b 688 0 469 21 588 0 l 808 0 b 836 51 826 0 836 21 b 808 103 836 82 826 103 z m 193 418 l 194 425 b 408 475 246 450 321 475 b 583 360 525 475 583 421 b 411 176 583 292 513 224 b 193 418 335 276 260 364 z "},"ﻌ":{"ha":815,"x_min":0,"x_max":0,"o":"m 56 0 b 393 51 200 0 296 13 b 724 0 489 17 626 0 l 815 0 b 843 51 833 0 843 21 b 815 103 843 82 833 103 l 715 103 b 525 121 664 103 589 108 b 692 371 624 185 692 268 b 421 578 692 501 583 578 b 122 486 288 578 179 522 b 99 369 111 458 103 408 b 304 129 171 286 243 214 b 67 103 244 113 175 103 l 0 103 l 0 0 z m 190 417 b 399 472 258 453 329 472 b 581 354 522 472 581 415 b 411 171 581 289 514 222 b 189 410 333 271 256 356 z "},"ﻋ":{"ha":668,"x_min":0,"x_max":0,"o":"m 0 103 l 0 0 l 621 0 l 621 103 l 310 103 b 228 304 278 144 228 219 b 440 475 228 410 307 475 b 568 458 485 475 531 468 l 589 560 b 439 581 547 571 500 581 b 117 306 228 581 117 464 b 182 103 117 231 142 165 z "},"غ":{"ha":721,"x_min":0,"x_max":0,"o":"m 492 742 b 558 811 532 742 558 771 b 492 879 558 850 532 879 b 422 811 450 879 422 850 b 492 742 422 771 450 742 z m 331 0 l 674 0 l 674 103 l 375 103 b 283 306 333 144 283 219 b 490 475 283 410 357 475 b 621 457 539 475 582 467 l 642 560 b 492 581 600 571 553 581 b 169 313 279 581 169 467 b 251 96 169 229 201 157 b 56 -126 132 74 56 -10 b 343 -361 56 -276 165 -361 b 483 -339 394 -361 435 -354 l 464 -240 b 346 -256 426 -250 386 -256 b 167 -124 243 -256 167 -221 b 331 0 167 -44 228 0 z "},"ﻎ":{"ha":808,"x_min":0,"x_max":0,"o":"m 419 742 b 486 811 460 742 486 771 b 419 879 486 850 460 879 b 350 811 378 879 350 850 b 419 742 350 771 378 742 z m 808 103 l 679 103 b 522 121 631 103 574 110 b 694 376 621 185 694 272 b 422 581 694 506 583 581 b 125 489 293 581 193 532 b 101 372 114 461 106 411 b 303 138 172 290 243 221 b 56 -135 131 75 56 -22 b 342 -361 56 -289 168 -361 b 483 -339 396 -361 435 -354 l 464 -240 b 343 -256 426 -250 388 -256 b 167 -132 236 -256 167 -222 b 382 60 167 -68 221 7 b 688 0 469 21 588 0 l 808 0 b 836 51 826 0 836 21 b 808 103 836 82 826 103 z m 193 418 l 194 425 b 408 475 246 450 321 475 b 583 360 525 475 583 421 b 411 176 583 292 513 224 b 193 418 335 276 260 364 z "},"ﻐ":{"ha":815,"x_min":0,"x_max":0,"o":"m 0 103 l 0 0 l 56 0 b 393 51 200 0 296 13 b 724 0 489 17 626 0 l 815 0 b 843 51 833 0 843 21 b 815 103 843 82 833 103 l 715 103 b 525 121 664 103 589 108 b 692 371 624 185 692 268 b 421 578 692 501 583 578 b 122 486 288 578 179 522 b 99 369 111 458 103 408 b 304 129 171 286 243 214 b 67 103 244 113 175 103 z m 189 410 l 190 417 b 399 472 258 453 329 472 b 581 354 522 472 581 415 b 411 171 581 289 514 222 b 189 410 333 271 256 356 z m 410 739 b 476 808 450 739 476 768 b 410 876 476 847 450 876 b 340 808 368 876 340 847 b 410 739 340 768 368 739 z "},"ﻏ":{"ha":668,"x_min":0,"x_max":0,"o":"m 0 0 l 621 0 l 621 103 l 310 103 b 228 304 278 144 228 219 b 440 475 228 410 307 475 b 568 458 485 475 531 468 l 589 560 b 439 581 547 571 500 581 b 117 306 228 581 117 464 b 182 103 117 231 142 165 l 0 103 z m 369 811 b 439 742 369 771 397 742 b 506 811 479 742 506 771 b 439 879 506 850 479 879 b 369 811 397 879 369 850 z "},"ف":{"ha":1444,"x_min":0,"x_max":0,"o":"m 371 0 l 1308 0 b 1368 278 1347 97 1368 199 b 1097 581 1368 436 1293 581 b 796 286 913 581 796 454 b 854 103 796 213 818 149 l 386 103 b 167 282 244 103 167 160 b 200 454 167 331 179 379 l 100 481 b 56 263 79 424 56 339 b 371 0 56 103 175 0 z m 907 283 b 1088 475 907 393 969 475 b 1257 271 1206 475 1257 390 b 1232 103 1257 226 1250 172 l 976 103 b 907 283 935 153 907 210 z m 1028 811 b 1097 742 1028 771 1056 742 b 1164 811 1138 742 1164 771 b 1097 879 1164 850 1138 879 b 1028 811 1056 879 1028 850 z "},"ﻒ":{"ha":1496,"x_min":0,"x_max":0,"o":"m 56 263 b 371 0 56 103 175 0 l 844 0 b 1092 26 935 0 1024 11 b 1340 0 1158 11 1246 0 l 1496 0 b 1524 51 1514 0 1524 21 b 1496 103 1524 82 1514 103 l 1331 103 b 1257 106 1304 103 1281 104 b 1376 328 1331 156 1376 232 b 1096 581 1376 472 1271 581 b 808 328 922 581 808 474 b 925 107 808 231 860 154 b 851 103 901 103 878 103 l 386 103 b 167 282 244 103 167 160 b 200 454 167 331 179 379 l 100 481 b 56 263 79 424 56 339 z m 919 328 b 1093 475 919 418 990 475 b 1265 329 1194 475 1265 418 b 1092 132 1265 225 1168 147 b 919 328 1004 154 919 228 z m 1026 811 b 1096 742 1026 771 1054 742 b 1163 811 1136 742 1163 771 b 1096 879 1163 850 1136 879 b 1026 811 1054 879 1026 850 z "},"ﻔ":{"ha":804,"x_min":0,"x_max":0,"o":"m 0 103 l 0 0 l 153 0 b 400 26 243 0 332 11 b 649 0 467 11 554 0 l 804 0 b 832 51 822 0 832 21 b 804 103 832 82 822 103 l 639 103 b 565 106 613 103 589 104 b 685 328 639 156 685 232 b 404 581 685 472 579 581 b 117 328 231 581 117 474 b 233 107 117 231 168 154 b 160 103 210 103 186 103 z m 228 328 b 401 475 228 418 299 475 b 574 329 503 475 574 418 b 400 132 574 225 476 147 b 228 328 313 154 228 228 z m 335 811 b 404 742 335 771 363 742 b 471 811 444 742 471 771 b 404 879 471 850 444 879 b 335 811 363 879 335 850 z "},"ﻓ":{"ha":772,"x_min":0,"x_max":0,"o":"m 0 0 l 629 0 b 689 278 668 97 689 199 b 418 581 689 436 614 581 b 117 286 233 581 117 454 b 175 103 117 213 139 149 l 0 103 z m 408 475 b 578 271 526 475 578 390 b 553 103 578 226 571 172 l 297 103 b 228 283 256 153 228 210 b 408 475 228 393 290 475 z m 349 811 b 418 742 349 771 376 742 b 485 811 458 742 485 771 b 418 879 485 850 458 879 b 349 811 376 879 349 850 z "},"ڤ":{"ha":1444,"x_min":0,"x_max":0,"o":"m 371 0 l 1308 0 b 1368 278 1347 97 1368 199 b 1097 581 1368 436 1293 581 b 796 286 913 581 796 454 b 854 103 796 213 818 149 l 386 103 b 167 282 244 103 167 160 b 200 454 167 331 179 379 l 100 481 b 56 263 79 424 56 339 b 371 0 56 103 175 0 z m 907 283 b 1088 475 907 393 969 475 b 1257 271 1206 475 1257 390 b 1232 103 1257 226 1250 172 l 976 103 b 907 283 935 153 907 210 z m 929 811 b 997 742 929 771 958 742 b 1065 811 1038 742 1065 771 b 997 879 1065 850 1038 879 b 929 811 958 879 929 850 z m 1193 742 b 1260 811 1232 742 1260 771 b 1193 879 1260 850 1232 879 b 1124 811 1153 879 1124 850 b 1193 742 1124 771 1153 742 z m 1099 899 b 1167 968 1139 899 1167 928 b 1099 1036 1167 1006 1139 1036 b 1031 968 1060 1036 1031 1006 b 1099 899 1031 928 1060 899 z "},"ﭫ":{"ha":1496,"x_min":0,"x_max":0,"o":"m 371 0 l 844 0 b 1092 26 935 0 1024 11 b 1340 0 1158 11 1246 0 l 1496 0 b 1524 51 1514 0 1524 21 b 1496 103 1524 82 1514 103 l 1331 103 b 1257 106 1304 103 1281 104 b 1376 328 1331 156 1376 232 b 1096 581 1376 472 1271 581 b 808 328 922 581 808 474 b 925 107 808 231 860 154 b 851 103 901 103 878 103 l 386 103 b 167 282 244 103 167 160 b 200 454 167 331 179 379 l 100 481 b 56 263 79 424 56 339 b 371 0 56 103 175 0 z m 1093 475 b 1265 329 1194 475 1265 418 b 1092 132 1265 225 1168 147 b 919 328 1004 154 919 228 b 1093 475 919 418 990 475 z m 928 811 b 996 742 928 771 957 742 b 1064 811 1036 742 1064 771 b 996 879 1064 850 1036 879 b 928 811 957 879 928 850 z m 1192 742 b 1258 811 1231 742 1258 771 b 1192 879 1258 850 1231 879 b 1122 811 1151 879 1122 850 b 1192 742 1122 771 1151 742 z m 1029 968 b 1097 899 1029 928 1058 899 b 1165 968 1138 899 1165 928 b 1097 1036 1165 1006 1138 1036 b 1029 968 1058 1036 1029 1006 z "},"ﭭ":{"ha":804,"x_min":0,"x_max":0,"o":"m 153 0 b 400 26 243 0 332 11 b 649 0 467 11 554 0 l 804 0 b 832 51 822 0 832 21 b 804 103 832 82 822 103 l 639 103 b 565 106 613 103 589 104 b 685 328 639 156 685 232 b 404 581 685 472 579 581 b 117 328 231 581 117 474 b 233 107 117 231 168 154 b 160 103 210 103 186 103 l 0 103 l 0 0 z m 228 328 b 401 475 228 418 299 475 b 574 329 503 475 574 418 b 400 132 574 225 476 147 b 228 328 313 154 228 228 z m 304 742 b 372 811 344 742 372 771 b 304 879 372 850 344 879 b 236 811 265 879 236 850 b 304 742 236 771 265 742 z m 500 742 b 567 811 539 742 567 771 b 500 879 567 850 539 879 b 431 811 460 879 431 850 b 500 742 431 771 460 742 z m 406 899 b 474 968 446 899 474 928 b 406 1036 474 1006 446 1036 b 338 968 367 1036 338 1006 b 406 899 338 928 367 899 z "},"ﭬ":{"ha":772,"x_min":0,"x_max":0,"o":"m 0 0 l 629 0 b 689 278 668 97 689 199 b 418 581 689 436 614 581 b 117 286 233 581 117 454 b 175 103 117 213 139 149 l 0 103 z m 408 475 b 578 271 526 475 578 390 b 553 103 578 226 571 172 l 297 103 b 228 283 256 153 228 210 b 408 475 228 393 290 475 z m 318 742 b 386 811 358 742 386 771 b 318 879 386 850 358 879 b 250 811 279 879 250 850 b 318 742 250 771 279 742 z m 444 811 b 514 742 444 771 474 742 b 581 811 553 742 581 771 b 514 879 581 850 553 879 b 444 811 474 879 444 850 z m 419 899 b 488 968 460 899 488 928 b 419 1036 488 1006 460 1036 b 351 968 381 1036 351 1006 b 419 899 351 928 381 899 z "},"ڡ":{"ha":1444,"x_min":0,"x_max":0,"o":"m 56 263 b 371 0 56 103 175 0 l 1308 0 b 1368 278 1347 97 1368 199 b 1097 581 1368 436 1293 581 b 796 286 913 581 796 454 b 854 103 796 213 818 149 l 386 103 b 167 282 244 103 167 160 b 200 454 167 331 179 379 l 100 481 b 56 263 79 424 56 339 z m 907 283 b 1088 475 907 393 969 475 b 1257 271 1206 475 1257 390 b 1232 103 1257 226 1250 172 l 976 103 b 907 283 935 153 907 210 z "},"ٯ":{"ha":1076,"x_min":0,"x_max":0,"o":"m 540 -228 b 1000 78 861 -228 1000 -129 l 1000 292 b 738 581 1000 456 914 581 b 456 276 557 581 456 438 b 742 0 456 104 564 0 b 890 29 806 0 844 10 b 542 -122 890 -74 769 -122 b 167 110 269 -122 167 -49 b 189 251 167 143 172 199 l 89 278 b 56 94 67 214 56 150 b 540 -228 56 -122 214 -228 z m 757 106 b 567 289 639 106 567 163 b 732 475 567 408 638 475 b 892 261 847 475 892 390 l 892 128 b 757 106 853 114 810 106 z "},"ق":{"ha":1076,"x_min":0,"x_max":0,"o":"m 638 742 b 706 811 678 742 706 771 b 638 879 706 850 678 879 b 569 811 599 879 569 850 b 638 742 569 771 599 742 z m 833 742 b 900 811 872 742 900 771 b 833 879 900 850 872 879 b 764 811 793 879 764 850 b 833 742 764 771 793 742 z m 540 -228 b 1000 78 861 -228 1000 -129 l 1000 292 b 738 581 1000 456 914 581 b 456 276 557 581 456 438 b 742 0 456 104 564 0 b 890 29 806 0 844 10 b 542 -122 890 -74 769 -122 b 167 110 269 -122 167 -49 b 189 251 167 143 172 199 l 89 278 b 56 94 67 214 56 150 b 540 -228 56 -122 214 -228 z m 757 106 b 567 289 639 106 567 163 b 732 475 567 408 638 475 b 892 261 847 475 892 390 l 892 128 b 757 106 853 114 810 106 z "},"ﻖ":{"ha":1153,"x_min":0,"x_max":0,"o":"m 56 94 b 540 -228 56 -122 214 -228 b 993 0 814 -228 963 -176 l 1153 0 b 1181 51 1171 0 1181 21 b 1153 103 1181 82 1171 103 l 1000 103 l 1000 301 b 740 581 1000 483 894 581 b 456 283 549 581 456 429 b 782 0 456 101 557 0 l 888 0 b 542 -122 868 -86 763 -122 b 167 110 269 -122 167 -49 b 189 251 167 143 172 199 l 89 278 b 56 94 67 214 56 150 z m 567 285 b 731 475 567 408 633 475 b 892 275 840 475 892 401 l 892 103 l 796 103 b 567 285 643 103 567 156 z m 836 742 b 903 811 875 742 903 771 b 836 879 903 850 875 879 b 767 811 796 879 767 850 b 836 742 767 771 796 742 z m 640 742 b 708 811 681 742 708 771 b 640 879 708 850 681 879 b 572 811 601 879 572 850 b 640 742 572 771 601 742 z "},"ﻘ":{"ha":804,"x_min":0,"x_max":0,"o":"m 153 0 b 400 26 243 0 332 11 b 649 0 467 11 554 0 l 804 0 b 832 51 822 0 832 21 b 804 103 832 82 822 103 l 639 103 b 565 106 613 103 589 104 b 685 328 639 156 685 232 b 404 581 685 472 579 581 b 117 328 231 581 117 474 b 233 107 117 231 168 154 b 160 103 210 103 186 103 l 0 103 l 0 0 z m 401 475 b 574 329 503 475 574 418 b 400 132 574 225 476 147 b 228 328 313 154 228 228 b 401 475 228 418 299 475 z m 500 742 b 567 811 539 742 567 771 b 500 879 567 850 539 879 b 431 811 460 879 431 850 b 500 742 431 771 460 742 z m 236 811 b 304 742 236 771 265 742 b 372 811 344 742 372 771 b 304 879 372 850 344 879 b 236 811 265 879 236 850 z "},"ﻗ":{"ha":772,"x_min":0,"x_max":0,"o":"m 0 0 l 629 0 b 689 278 668 97 689 199 b 418 581 689 436 614 581 b 117 286 233 581 117 454 b 175 103 117 213 139 149 l 0 103 z m 228 283 b 408 475 228 393 290 475 b 578 271 526 475 578 390 b 553 103 578 226 571 172 l 297 103 b 228 283 256 153 228 210 z m 444 811 b 514 742 444 771 474 742 b 581 811 553 742 581 771 b 514 879 581 850 553 879 b 444 811 474 879 444 850 z m 250 811 b 318 742 250 771 279 742 b 386 811 358 742 386 771 b 318 879 386 850 358 879 b 250 811 279 879 250 850 z "},"ك":{"ha":1153,"x_min":0,"x_max":0,"o":"m 371 0 l 782 0 b 1049 240 954 0 1049 71 l 1049 1050 l 940 1050 l 940 288 b 782 103 940 149 913 103 l 386 103 b 167 282 244 103 167 160 b 200 454 167 331 179 379 l 100 481 b 56 263 79 424 56 339 b 371 0 56 103 175 0 z m 708 440 l 708 507 l 579 507 b 551 581 563 526 551 554 b 626 647 551 628 585 647 b 682 639 647 647 667 643 l 693 704 b 625 715 674 710 653 715 b 482 585 536 715 482 656 b 504 507 482 558 489 532 l 433 507 l 433 440 z "},"ﻚ":{"ha":1229,"x_min":0,"x_max":0,"o":"m 371 0 l 782 0 b 1010 90 890 0 968 28 b 1229 0 1049 33 1119 0 b 1257 51 1247 0 1257 21 b 1229 103 1257 82 1247 103 b 1049 261 1110 103 1049 156 l 1049 1050 l 940 1050 l 940 288 b 782 103 940 149 913 103 l 386 103 b 167 282 244 103 167 160 b 200 454 167 331 179 379 l 100 481 b 56 263 79 424 56 339 b 371 0 56 103 175 0 z m 433 507 l 433 440 l 708 440 l 708 507 l 579 507 b 551 581 563 526 551 554 b 626 647 551 628 585 647 b 682 639 647 647 667 643 l 693 704 b 625 715 674 710 653 715 b 482 585 536 715 482 656 b 504 507 482 558 489 532 z "},"ﻜ":{"ha":746,"x_min":0,"x_max":0,"o":"m 0 0 l 746 0 b 774 51 764 0 774 21 b 746 103 774 82 764 103 l 572 103 l 572 129 b 164 615 572 344 494 508 l 518 958 l 447 1031 l 54 651 l 54 546 b 468 149 358 456 468 347 l 468 103 l 0 103 z "},"ﻛ":{"ha":656,"x_min":0,"x_max":0,"o":"m 164 615 l 518 958 l 447 1031 l 54 651 l 54 546 b 468 149 358 456 468 347 l 468 103 l 0 103 l 0 0 l 572 0 l 572 129 b 164 615 572 344 494 508 z "},"ک":{"ha":1182,"x_min":0,"x_max":0,"o":"m 690 615 l 1044 958 l 974 1031 l 581 651 l 581 546 b 994 149 885 456 994 347 l 994 103 l 386 103 b 167 282 244 103 167 160 b 200 454 167 331 179 379 l 100 481 b 56 263 79 424 56 339 b 371 0 56 103 175 0 l 1099 0 l 1099 129 b 690 615 1099 344 1021 508 z "},"ﮏ":{"ha":1286,"x_min":0,"x_max":0,"o":"m 56 263 b 371 0 56 103 175 0 l 1286 0 b 1314 51 1304 0 1314 21 b 1286 103 1314 82 1304 103 l 1099 103 l 1099 129 b 690 615 1099 344 1021 508 l 1044 958 l 974 1031 l 581 651 l 581 546 b 994 149 885 456 994 347 l 994 103 l 386 103 b 167 282 244 103 167 160 b 200 454 167 331 179 379 l 100 481 b 56 263 79 424 56 339 z "},"ﮑ":{"ha":746,"x_min":0,"x_max":0,"o":"m 0 0 l 746 0 b 774 51 764 0 774 21 b 746 103 774 82 764 103 l 572 103 l 572 129 b 164 615 572 344 494 508 l 518 958 l 447 1031 l 54 651 l 54 546 b 468 149 358 456 468 347 l 468 103 l 0 103 z "},"ﮐ":{"ha":656,"x_min":0,"x_max":0,"o":"m 164 615 l 518 958 l 447 1031 l 54 651 l 54 546 b 468 149 358 456 468 347 l 468 103 l 0 103 l 0 0 l 572 0 l 572 129 b 164 615 572 344 494 508 z "},"گ":{"ha":1182,"x_min":0,"x_max":0,"o":"m 931 1075 l 860 1147 l 506 813 l 579 739 z m 690 615 l 1044 958 l 974 1031 l 581 651 l 581 546 b 994 149 885 456 994 347 l 994 103 l 386 103 b 167 282 244 103 167 160 b 200 454 167 331 179 379 l 100 481 b 56 263 79 424 56 339 b 371 0 56 103 175 0 l 1099 0 l 1099 129 b 690 615 1099 344 1021 508 z "},"ﮓ":{"ha":1286,"x_min":0,"x_max":0,"o":"m 371 0 l 1286 0 b 1314 51 1304 0 1314 21 b 1286 103 1314 82 1304 103 l 1099 103 l 1099 129 b 690 615 1099 344 1021 508 l 1044 958 l 974 1031 l 581 651 l 581 546 b 994 149 885 456 994 347 l 994 103 l 386 103 b 167 282 244 103 167 160 b 200 454 167 331 179 379 l 100 481 b 56 263 79 424 56 339 b 371 0 56 103 175 0 z m 579 739 l 931 1075 l 860 1147 l 506 813 z "},"ﮕ":{"ha":746,"x_min":0,"x_max":0,"o":"m 0 103 l 0 0 l 746 0 b 774 51 764 0 774 21 b 746 103 774 82 764 103 l 572 103 l 572 129 b 164 615 572 344 494 508 l 518 958 l 447 1031 l 54 651 l 54 546 b 468 149 358 456 468 347 l 468 103 z m -21 813 l 53 739 l 404 1075 l 333 1147 z "},"ﮔ":{"ha":656,"x_min":0,"x_max":0,"o":"m 53 739 l 404 1075 l 333 1147 l -21 813 z m 164 615 l 518 958 l 447 1031 l 54 651 l 54 546 b 468 149 358 456 468 347 l 468 103 l 0 103 l 0 0 l 572 0 l 572 129 b 164 615 572 344 494 508 z "},"ل":{"ha":913,"x_min":0,"x_max":0,"o":"m 424 -228 b 808 106 657 -228 808 -103 l 808 1050 l 700 1050 l 700 135 b 431 -122 700 -37 610 -122 b 167 107 260 -122 167 -49 b 210 310 167 172 183 226 l 114 343 b 56 96 74 249 56 165 b 424 -228 56 -100 197 -228 z "},"ﻞ":{"ha":961,"x_min":0,"x_max":0,"o":"m 961 103 l 808 103 l 808 1050 l 700 1050 l 700 135 b 431 -122 700 -37 610 -122 b 167 107 260 -122 167 -49 b 210 310 167 172 183 226 l 114 343 b 56 96 74 249 56 165 b 424 -228 56 -100 197 -228 b 793 0 614 -228 750 -144 l 961 0 b 989 51 979 0 989 21 b 961 103 989 82 979 103 z "},"ﻠ":{"ha":447,"x_min":0,"x_max":0,"o":"m 447 103 b 267 261 328 103 267 156 l 267 1050 l 158 1050 l 158 288 b 0 103 158 149 131 103 l 0 0 b 228 90 108 0 186 28 b 447 0 267 33 338 0 b 475 51 465 0 475 21 b 447 103 475 82 465 103 z "},"ﻟ":{"ha":371,"x_min":0,"x_max":0,"o":"m 0 0 b 267 240 172 0 267 71 l 267 1050 l 158 1050 l 158 288 b 0 103 158 149 131 103 z "},"م":{"ha":897,"x_min":0,"x_max":0,"o":"m 56 -361 l 161 -361 l 161 -124 b 282 0 161 -42 208 0 l 500 0 b 821 288 740 0 821 136 b 546 581 821 450 724 581 b 246 288 375 581 246 463 b 299 103 246 214 268 153 l 281 103 b 56 -124 138 103 56 18 z m 535 475 b 710 289 640 475 710 403 b 511 103 710 190 661 103 l 422 103 b 357 289 392 150 357 207 b 535 475 357 410 433 475 z "},"ﻢ":{"ha":983,"x_min":0,"x_max":0,"o":"m 56 -361 l 161 -361 l 161 -124 b 282 0 161 -42 208 0 l 382 0 b 457 -74 404 -29 431 -54 l 539 -74 b 786 0 647 -74 729 -49 l 983 0 b 1011 51 1001 0 1011 21 b 983 103 1011 82 1001 103 l 854 103 b 874 228 867 139 874 181 b 601 521 874 372 803 521 b 299 229 433 521 299 404 b 322 103 299 185 307 142 l 281 103 b 56 -124 138 103 56 18 z m 486 29 b 407 226 435 85 407 150 b 593 418 407 351 485 418 b 765 236 704 418 765 349 b 564 29 765 110 694 29 z "},"ﻤ":{"ha":803,"x_min":0,"x_max":0,"o":"m 0 103 l 0 0 l 201 0 b 276 -74 224 -29 250 -54 l 358 -74 b 597 0 465 -74 543 -46 l 803 0 b 831 51 821 0 831 21 b 803 103 831 82 821 103 l 671 103 b 693 228 686 142 693 183 b 421 521 693 372 622 521 b 118 229 253 521 118 404 b 142 103 118 185 126 142 z m 413 418 b 585 236 524 418 585 349 b 383 29 585 110 514 29 l 306 29 b 226 226 254 85 226 150 b 413 418 226 351 304 418 z "},"ﻣ":{"ha":769,"x_min":0,"x_max":0,"o":"m 372 0 b 693 288 613 0 693 136 b 418 581 693 450 596 581 b 118 288 247 581 118 463 b 178 103 118 213 142 151 l 0 103 l 0 0 z m 229 289 b 407 475 229 410 306 475 b 582 289 513 475 582 403 b 383 103 582 190 533 103 l 303 103 b 229 289 265 147 229 206 z "},"ن":{"ha":913,"x_min":0,"x_max":0,"o":"m 444 568 b 511 638 485 568 511 597 b 444 706 511 676 485 706 b 375 638 403 706 375 676 b 444 568 375 597 403 568 z m 428 -228 b 808 106 653 -228 808 -114 l 808 464 l 700 464 l 700 135 b 432 -122 700 -50 596 -122 b 167 110 268 -122 167 -51 b 211 310 167 171 179 231 l 114 343 b 56 96 74 249 56 165 b 428 -228 56 -87 178 -228 z "},"ﻦ":{"ha":989,"x_min":0,"x_max":0,"o":"m 444 568 b 511 638 485 568 511 597 b 444 706 511 676 485 706 b 375 638 403 706 375 676 b 444 568 375 597 403 568 z m 989 103 l 808 103 l 808 464 l 700 464 l 700 135 b 432 -122 700 -50 596 -122 b 167 110 268 -122 167 -51 b 211 310 167 171 179 231 l 114 343 b 56 96 74 249 56 165 b 428 -228 56 -87 178 -228 b 794 0 614 -228 751 -150 l 989 0 b 1017 51 1007 0 1017 21 b 989 103 1017 82 1007 103 z "},"ﻨ":{"ha":456,"x_min":0,"x_max":0,"o":"m 221 726 b 288 796 261 726 288 756 b 221 864 288 835 261 864 b 151 796 179 864 151 835 b 221 726 151 756 179 726 z m 456 103 b 275 261 336 103 275 156 l 275 565 l 167 565 l 167 288 b 0 103 167 151 119 103 l 0 0 b 233 96 111 0 189 29 b 456 0 271 35 343 0 b 483 51 474 0 483 21 b 456 103 483 82 474 103 z "},"ﻧ":{"ha":351,"x_min":0,"x_max":0,"o":"m 221 726 b 288 796 261 726 288 756 b 221 864 288 835 261 864 b 151 796 179 864 151 835 b 221 726 151 756 179 726 z m 0 0 b 275 269 181 0 275 78 l 275 565 l 167 565 l 167 288 b 0 103 167 151 119 103 z "},"ں":{"ha":913,"x_min":0,"x_max":0,"o":"m 428 -228 b 808 106 653 -228 808 -114 l 808 464 l 700 464 l 700 135 b 432 -122 700 -50 596 -122 b 167 110 268 -122 167 -51 b 211 310 167 171 179 231 l 114 343 b 56 96 74 249 56 165 b 428 -228 56 -87 178 -228 z "},"ﮟ":{"ha":989,"x_min":0,"x_max":0,"o":"m 989 103 l 808 103 l 808 464 l 700 464 l 700 135 b 432 -122 700 -50 596 -122 b 167 110 268 -122 167 -51 b 211 310 167 171 179 231 l 114 343 b 56 96 74 249 56 165 b 428 -228 56 -87 178 -228 b 794 0 614 -228 751 -150 l 989 0 b 1017 51 1007 0 1017 21 b 989 103 1017 82 1007 103 z "},"ه":{"ha":719,"x_min":0,"x_max":0,"o":"m 349 -7 b 643 274 532 -7 643 108 b 349 581 643 428 544 581 b 56 274 154 581 56 429 b 349 -7 56 121 151 -7 z m 353 99 b 167 278 243 99 167 150 b 349 475 167 386 221 475 b 532 276 475 475 532 389 b 353 99 532 150 461 99 z "},"ﻩ":{"ha":719,"x_min":0,"x_max":0,"o":"m 349 -7 b 643 274 532 -7 643 108 b 349 581 643 428 544 581 b 56 274 154 581 56 429 b 349 -7 56 121 151 -7 z m 353 99 b 167 278 243 99 167 150 b 349 475 167 386 221 475 b 532 276 475 475 532 389 b 353 99 532 150 461 99 z "},"ﻪ":{"ha":771,"x_min":0,"x_max":0,"o":"m 771 103 b 621 243 660 103 621 131 l 621 565 l 386 565 b 56 278 178 565 56 447 b 347 29 56 118 175 29 b 538 72 421 29 482 46 b 771 0 568 22 642 0 b 799 51 789 0 799 21 b 771 103 799 82 789 103 z m 507 169 b 357 135 472 149 421 135 b 167 290 238 135 167 185 b 365 463 167 406 251 463 l 507 463 z "},"ﻬ":{"ha":704,"x_min":0,"x_max":0,"o":"m 0 103 l 0 0 l 114 0 l 114 -72 b 369 -333 114 -239 193 -333 b 628 -126 531 -333 628 -251 b 592 0 628 -81 615 -43 l 704 0 b 732 51 722 0 732 21 b 704 103 732 82 722 103 l 546 103 b 618 313 590 156 618 231 b 374 574 618 444 546 574 b 114 263 194 574 114 444 l 114 103 z m 363 468 b 510 303 458 468 510 397 b 328 103 510 192 440 103 l 222 103 l 222 276 b 363 468 222 410 278 468 z m 222 -64 l 222 0 l 475 0 b 517 -117 507 -43 517 -83 b 378 -228 517 -179 483 -228 b 222 -64 271 -228 222 -179 z "},"ﻫ":{"ha":869,"x_min":0,"x_max":0,"o":"m 214 300 b 335 449 214 383 264 449 b 457 299 403 449 457 388 b 329 125 457 206 399 150 b 214 300 267 154 214 211 z m 460 103 b 554 299 514 146 554 217 b 517 428 554 343 542 389 b 699 163 629 375 699 292 b 694 103 699 142 697 121 z m 99 504 b 225 497 142 503 185 500 b 117 296 156 454 117 374 b 200 106 117 214 153 146 b 138 103 178 103 156 103 l 0 103 l 0 0 l 138 0 b 329 26 203 0 278 8 b 518 0 385 7 447 0 l 782 0 b 800 151 794 56 800 106 b 117 599 800 457 525 571 z "},"ہ":{"ha":719,"x_min":0,"x_max":0,"o":"m 349 -7 b 643 274 532 -7 643 108 b 349 581 643 428 544 581 b 56 274 154 581 56 429 b 349 -7 56 121 151 -7 z m 353 99 b 167 278 243 99 167 150 b 349 475 167 386 221 475 b 532 276 475 475 532 389 b 353 99 532 150 461 99 z "},"ﮧ":{"ha":803,"x_min":0,"x_max":0,"o":"m 140 -15 b 418 264 218 150 324 264 b 546 151 468 264 496 238 b 803 0 617 31 672 0 b 831 49 822 0 831 14 b 803 103 831 85 822 103 b 626 224 715 103 686 122 b 426 368 564 331 511 368 b 56 21 281 368 150 226 z "},"ﮩ":{"ha":551,"x_min":0,"x_max":0,"o":"m 0 103 l 0 0 l 53 0 b 50 -43 51 -15 50 -29 b 356 -333 50 -242 196 -326 b 346 -225 349 -293 346 -257 b 535 0 346 -68 422 0 l 551 0 b 579 51 569 0 579 21 b 551 103 579 82 569 103 l 533 103 b 254 -207 347 103 254 -33 l 254 -219 b 156 -25 178 -179 156 -101 b 157 0 156 -17 156 -8 b 172 103 158 38 165 74 z "},"ﮨ":{"ha":351,"x_min":0,"x_max":0,"o":"m 0 0 b 275 269 181 0 275 78 l 275 565 l 167 565 l 167 288 b 0 103 167 151 119 103 z m 125 -356 l 210 -314 b 171 -179 186 -271 171 -224 b 189 -81 171 -146 178 -111 l 113 -60 b 79 -201 92 -104 79 -154 b 125 -356 79 -256 93 -308 z "},"ۂ":{"ha":719,"x_min":0,"x_max":0,"o":"m 349 -7 b 643 274 532 -7 643 108 b 349 581 643 428 544 581 b 56 274 154 581 56 429 b 349 -7 56 121 151 -7 z m 349 475 b 532 276 475 475 532 389 b 353 99 532 150 461 99 b 167 278 243 99 167 150 b 349 475 167 386 221 475 z m 196 756 l 485 756 l 485 825 l 332 825 b 307 900 315 851 307 876 b 397 974 307 956 354 974 b 456 967 418 974 440 969 l 468 1035 b 382 1044 442 1040 410 1044 b 235 913 296 1044 235 994 b 258 825 235 882 243 853 l 196 825 z "},"ھ":{"ha":1019,"x_min":0,"x_max":0,"o":"m 267 599 l 249 504 b 375 497 292 503 335 500 b 267 296 306 454 267 374 b 350 106 267 214 303 146 b 288 103 328 103 306 103 b 88 138 214 103 144 115 l 56 40 b 288 0 119 14 193 0 b 479 26 353 0 428 8 b 668 0 535 7 597 0 l 932 0 b 950 151 944 56 950 106 b 267 599 950 457 675 571 z m 364 300 b 485 449 364 383 414 449 b 607 299 553 449 607 388 b 479 125 607 206 549 150 b 364 300 417 154 364 211 z m 610 103 b 704 299 664 146 704 217 b 667 428 704 343 692 389 b 849 163 779 375 849 292 b 844 103 849 142 847 121 z "},"ﮫ":{"ha":903,"x_min":0,"x_max":0,"o":"m 56 40 b 288 0 119 14 193 0 l 313 0 l 313 -72 b 568 -333 313 -239 392 -333 b 826 -126 729 -333 826 -251 b 790 0 826 -81 814 -43 l 903 0 b 931 51 921 0 931 21 b 903 103 931 82 921 103 l 744 103 b 817 313 789 156 817 231 b 572 574 817 444 744 574 b 313 263 393 574 313 444 l 313 103 l 288 103 b 88 138 214 103 144 115 z m 421 103 l 421 276 b 561 468 421 410 476 468 b 708 303 657 468 708 397 b 526 103 708 192 639 103 z m 674 0 b 715 -117 706 -43 715 -83 b 576 -228 715 -179 682 -228 b 421 -64 469 -228 421 -179 l 421 0 z "},"ﮭ":{"ha":704,"x_min":0,"x_max":0,"o":"m 0 103 l 0 0 l 114 0 l 114 -72 b 369 -333 114 -239 193 -333 b 628 -126 531 -333 628 -251 b 592 0 628 -81 615 -43 l 704 0 b 732 51 722 0 732 21 b 704 103 732 82 722 103 l 546 103 b 618 313 590 156 618 231 b 374 574 618 444 546 574 b 114 263 194 574 114 444 l 114 103 z m 363 468 b 510 303 458 468 510 397 b 328 103 510 192 440 103 l 222 103 l 222 276 b 363 468 222 410 278 468 z m 222 -64 l 222 0 l 475 0 b 517 -117 507 -43 517 -83 b 378 -228 517 -179 483 -228 b 222 -64 271 -228 222 -179 z "},"ﮬ":{"ha":869,"x_min":0,"x_max":0,"o":"m 214 300 b 335 449 214 383 264 449 b 457 299 403 449 457 388 b 329 125 457 206 399 150 b 214 300 267 154 214 211 z m 460 103 b 554 299 514 146 554 217 b 517 428 554 343 542 389 b 699 163 629 375 699 292 b 694 103 699 142 697 121 z m 99 504 b 225 497 142 503 185 500 b 117 296 156 454 117 374 b 200 106 117 214 153 146 b 138 103 178 103 156 103 l 0 103 l 0 0 l 138 0 b 329 26 203 0 278 8 b 518 0 385 7 447 0 l 782 0 b 800 151 794 56 800 106 b 117 599 800 457 525 571 z "},"ة":{"ha":719,"x_min":0,"x_max":0,"o":"m 249 742 b 317 811 289 742 317 771 b 249 879 317 850 289 879 b 181 811 210 879 181 850 b 249 742 181 771 210 742 z m 444 742 b 511 811 483 742 511 771 b 444 879 511 850 483 879 b 375 811 404 879 375 850 b 444 742 375 771 404 742 z m 349 -7 b 643 274 532 -7 643 108 b 349 581 643 428 544 581 b 56 274 154 581 56 429 b 349 -7 56 121 151 -7 z m 353 99 b 167 278 243 99 167 150 b 349 475 167 386 221 475 b 532 276 475 475 532 389 b 353 99 532 150 461 99 z "},"ﺔ":{"ha":771,"x_min":0,"x_max":0,"o":"m 286 726 b 354 796 326 726 354 756 b 286 864 354 835 326 864 b 218 796 247 864 218 835 b 286 726 218 756 247 726 z m 482 726 b 549 796 521 726 549 756 b 482 864 549 835 521 864 b 413 796 442 864 413 835 b 482 726 413 756 442 726 z m 771 103 b 621 243 660 103 621 131 l 621 565 l 386 565 b 56 278 178 565 56 447 b 347 29 56 118 175 29 b 538 72 421 29 482 46 b 771 0 568 22 642 0 b 799 51 789 0 799 21 b 771 103 799 82 789 103 z m 507 169 b 357 135 472 149 421 135 b 167 290 238 135 167 185 b 365 463 167 406 251 463 l 507 463 z "},"ۃ":{"ha":719,"x_min":0,"x_max":0,"o":"m 249 742 b 317 811 289 742 317 771 b 249 879 317 850 289 879 b 181 811 210 879 181 850 b 249 742 181 771 210 742 z m 444 742 b 511 811 483 742 511 771 b 444 879 511 850 483 879 b 375 811 404 879 375 850 b 444 742 375 771 404 742 z m 349 -7 b 643 274 532 -7 643 108 b 349 581 643 428 544 581 b 56 274 154 581 56 429 b 349 -7 56 121 151 -7 z m 353 99 b 167 278 243 99 167 150 b 349 475 167 386 221 475 b 532 276 475 475 532 389 b 353 99 532 150 461 99 z "},"و":{"ha":697,"x_min":0,"x_max":0,"o":"m 171 -239 b 236 -242 194 -240 215 -242 b 621 57 529 -242 621 -103 l 621 315 b 358 581 621 465 535 581 b 76 276 178 581 76 438 b 363 0 76 104 185 0 b 511 29 426 0 465 10 b 231 -143 511 -89 408 -143 b 165 -140 210 -143 188 -142 z m 378 106 b 188 289 260 106 188 163 b 353 475 188 408 258 475 b 513 275 451 475 513 413 l 513 128 b 378 106 474 114 431 106 z "},"ﻮ":{"ha":757,"x_min":0,"x_max":0,"o":"m 411 0 l 508 0 b 229 -143 492 -97 392 -143 b 165 -140 208 -143 188 -142 l 171 -239 b 236 -242 208 -242 217 -242 b 617 0 493 -242 596 -135 l 757 0 b 785 51 775 0 785 21 b 757 103 785 82 775 103 l 621 103 l 621 315 b 358 581 621 483 514 581 b 76 278 185 581 76 440 b 411 0 76 115 174 0 z m 188 292 b 354 475 188 407 263 475 b 513 275 457 475 513 401 l 513 103 l 425 103 b 188 292 254 103 188 168 z "},"ؤ":{"ha":697,"x_min":0,"x_max":0,"o":"m 363 0 b 511 29 426 0 465 10 b 231 -143 511 -89 408 -143 b 165 -140 210 -143 188 -142 l 171 -239 b 236 -242 194 -240 215 -242 b 621 57 529 -242 621 -103 l 621 315 b 358 581 621 465 535 581 b 76 276 178 581 76 438 b 363 0 76 104 185 0 z m 188 289 b 353 475 188 408 258 475 b 513 275 451 475 513 413 l 513 128 b 378 106 474 114 431 106 b 188 289 260 106 188 163 z m 204 756 l 493 756 l 493 825 l 340 825 b 315 900 324 851 315 876 b 406 974 315 956 363 974 b 464 967 426 974 449 969 l 476 1035 b 390 1044 450 1040 418 1044 b 243 913 304 1044 243 994 b 267 825 243 882 251 853 l 204 825 z "},"ﺆ":{"ha":757,"x_min":0,"x_max":0,"o":"m 76 278 b 411 0 76 115 174 0 l 508 0 b 229 -143 492 -97 392 -143 b 165 -140 208 -143 188 -142 l 171 -239 b 236 -242 208 -242 217 -242 b 617 0 493 -242 596 -135 l 757 0 b 785 51 775 0 785 21 b 757 103 785 82 775 103 l 621 103 l 621 315 b 358 581 621 483 514 581 b 76 278 185 581 76 440 z m 354 475 b 513 275 457 475 513 401 l 513 103 l 425 103 b 188 292 254 103 188 168 b 354 475 188 407 263 475 z m 204 756 l 493 756 l 493 825 l 340 825 b 315 900 324 851 315 876 b 406 974 315 956 363 974 b 464 967 426 974 449 969 l 476 1035 b 390 1044 450 1040 418 1044 b 243 913 304 1044 243 994 b 267 825 243 882 251 853 l 204 825 z "},"ى":{"ha":1056,"x_min":0,"x_max":0,"o":"m 517 -228 b 972 21 794 -228 972 -126 b 628 365 972 225 628 214 b 796 475 628 429 686 475 b 929 457 851 475 903 464 l 949 560 b 800 581 904 571 854 581 b 515 360 614 581 515 481 b 861 8 515 146 861 132 b 517 -122 861 -65 742 -122 b 167 82 285 -122 167 -68 b 189 224 167 122 174 161 l 89 250 b 56 68 64 174 56 117 b 517 -228 56 -136 224 -228 z "},"ﻰ":{"ha":1065,"x_min":0,"x_max":0,"o":"m 1065 103 l 911 103 b 776 115 871 103 824 104 l 589 160 l 563 69 l 731 26 b 893 -110 844 -3 893 -60 b 531 -256 893 -190 764 -256 b 167 -24 261 -256 167 -179 b 189 118 167 18 174 58 l 89 144 b 56 -37 64 68 56 11 b 524 -361 56 -236 192 -361 b 1004 -115 824 -361 1004 -246 b 950 0 1004 -78 989 -31 l 1065 0 b 1093 51 1083 0 1093 21 b 1065 103 1093 82 1083 103 z "},"ي":{"ha":1056,"x_min":0,"x_max":0,"o":"m 517 -228 b 972 21 794 -228 972 -126 b 628 365 972 225 628 214 b 796 475 628 429 686 475 b 929 457 851 475 903 464 l 949 560 b 800 581 904 571 854 581 b 515 360 614 581 515 481 b 861 8 515 146 861 132 b 517 -122 861 -65 742 -122 b 167 82 285 -122 167 -68 b 189 224 167 122 174 161 l 89 250 b 56 68 64 174 56 117 b 517 -228 56 -136 224 -228 z m 413 -486 b 481 -418 453 -486 481 -457 b 413 -349 481 -378 453 -349 b 344 -418 374 -349 344 -378 b 413 -486 344 -457 374 -486 z m 608 -486 b 675 -418 647 -486 675 -457 b 608 -349 675 -378 647 -349 b 539 -418 568 -349 539 -378 b 608 -486 539 -457 568 -486 z "},"ﻲ":{"ha":1065,"x_min":0,"x_max":0,"o":"m 1065 103 l 911 103 b 776 115 871 103 824 104 l 589 160 l 563 69 l 731 26 b 893 -110 844 -3 893 -60 b 531 -256 893 -190 764 -256 b 167 -24 261 -256 167 -179 b 189 118 167 18 174 58 l 89 144 b 56 -37 64 68 56 11 b 524 -361 56 -236 192 -361 b 1004 -115 824 -361 1004 -246 b 950 0 1004 -78 989 -31 l 1065 0 b 1093 51 1083 0 1093 21 b 1065 103 1093 82 1083 103 z m 421 -482 b 353 -551 382 -482 353 -511 b 421 -619 353 -590 382 -619 b 489 -551 461 -619 489 -590 b 421 -482 489 -511 461 -482 z m 617 -482 b 547 -551 576 -482 547 -511 b 617 -619 547 -590 576 -619 b 683 -551 656 -619 683 -590 b 617 -482 683 -511 656 -482 z "},"ﻴ":{"ha":454,"x_min":0,"x_max":0,"o":"m 454 103 b 274 261 335 103 274 156 l 274 565 l 165 565 l 165 288 b 10 103 165 156 122 103 l 0 103 l 0 0 l 7 0 b 232 96 113 0 188 31 b 454 0 269 35 342 0 b 482 51 472 0 482 21 b 454 103 482 82 472 103 z m 104 -121 b 36 -190 65 -121 36 -150 b 104 -258 36 -229 65 -258 b 172 -190 144 -258 172 -229 b 104 -121 172 -150 144 -121 z m 300 -121 b 231 -190 260 -121 231 -150 b 300 -258 231 -229 260 -258 b 367 -190 339 -258 367 -229 b 300 -121 367 -150 339 -121 z "},"ﻳ":{"ha":392,"x_min":0,"x_max":0,"o":"m 0 0 l 7 0 b 274 269 179 0 274 81 l 274 565 l 165 565 l 165 288 b 10 103 165 156 122 103 l 0 103 z m 64 -258 b 132 -190 104 -258 132 -229 b 64 -121 132 -150 104 -121 b -4 -190 25 -121 -4 -150 b 64 -258 -4 -229 25 -258 z m 260 -258 b 326 -190 299 -258 326 -229 b 260 -121 326 -150 299 -121 b 190 -190 219 -121 190 -150 b 260 -258 190 -229 219 -258 z "},"ئ":{"ha":1056,"x_min":0,"x_max":0,"o":"m 517 -228 b 972 21 794 -228 972 -126 b 628 365 972 225 628 214 b 796 475 628 429 686 475 b 929 457 851 475 903 464 l 949 560 b 800 581 904 571 854 581 b 515 360 614 581 515 481 b 861 8 515 146 861 132 b 517 -122 861 -65 742 -122 b 167 82 285 -122 167 -68 b 189 224 167 122 174 161 l 89 250 b 56 68 64 174 56 117 b 517 -228 56 -136 224 -228 z m 107 444 l 107 375 l 396 375 l 396 444 l 243 444 b 218 519 226 471 218 496 b 308 593 218 575 265 593 b 367 586 329 593 351 589 l 379 654 b 293 664 353 660 321 664 b 146 532 207 664 146 614 b 169 444 146 501 154 472 z "},"ﺊ":{"ha":1065,"x_min":0,"x_max":0,"o":"m 524 -361 b 1004 -115 824 -361 1004 -246 b 950 0 1004 -78 989 -31 l 1065 0 b 1093 51 1083 0 1093 21 b 1065 103 1093 82 1083 103 l 911 103 b 776 115 871 103 824 104 l 589 160 l 563 69 l 731 26 b 893 -110 844 -3 893 -60 b 531 -256 893 -190 764 -256 b 167 -24 261 -256 167 -179 b 189 118 167 18 174 58 l 89 144 b 56 -37 64 68 56 11 b 524 -361 56 -236 192 -361 z m 396 292 l 396 361 l 243 361 b 218 436 226 388 218 413 b 308 510 218 492 265 510 b 367 503 329 510 351 506 l 379 571 b 293 581 353 576 321 581 b 146 449 207 581 146 531 b 169 361 146 418 154 389 l 107 361 l 107 292 z "},"ﺌ":{"ha":454,"x_min":0,"x_max":0,"o":"m 7 0 b 232 96 113 0 188 31 b 454 0 269 35 342 0 b 482 51 472 0 482 21 b 454 103 482 82 472 103 b 274 261 335 103 274 156 l 274 565 l 165 565 l 165 288 b 10 103 165 156 122 103 l 0 103 l 0 0 z m 67 740 l 356 740 l 356 810 l 203 810 b 178 885 186 836 178 861 b 268 958 178 940 225 958 b 326 951 289 958 311 954 l 339 1019 b 253 1029 313 1025 281 1029 b 106 897 167 1029 106 979 b 129 810 106 867 114 838 l 67 810 z "},"ﺋ":{"ha":392,"x_min":0,"x_max":0,"o":"m 0 0 l 7 0 b 274 269 179 0 274 81 l 274 565 l 165 565 l 165 288 b 10 103 165 156 122 103 l 0 103 z m 67 740 l 356 740 l 356 810 l 203 810 b 178 885 186 836 178 861 b 268 958 178 940 225 958 b 326 951 289 958 311 954 l 339 1019 b 253 1029 313 1025 281 1029 b 106 897 167 1029 106 979 b 129 810 106 867 114 838 l 67 810 z "},"ی":{"ha":1056,"x_min":0,"x_max":0,"o":"m 517 -228 b 972 21 794 -228 972 -126 b 628 365 972 225 628 214 b 796 475 628 429 686 475 b 929 457 851 475 903 464 l 949 560 b 800 581 904 571 854 581 b 515 360 614 581 515 481 b 861 8 515 146 861 132 b 517 -122 861 -65 742 -122 b 167 82 285 -122 167 -68 b 189 224 167 122 174 161 l 89 250 b 56 68 64 174 56 117 b 517 -228 56 -136 224 -228 z "},"ﯽ":{"ha":1065,"x_min":0,"x_max":0,"o":"m 1065 103 l 911 103 b 776 115 871 103 824 104 l 589 160 l 563 69 l 731 26 b 893 -110 844 -3 893 -60 b 531 -256 893 -190 764 -256 b 167 -24 261 -256 167 -179 b 189 118 167 18 174 58 l 89 144 b 56 -37 64 68 56 11 b 524 -361 56 -236 192 -361 b 1004 -115 824 -361 1004 -246 b 950 0 1004 -78 989 -31 l 1065 0 b 1093 51 1083 0 1093 21 b 1065 103 1093 82 1083 103 z "},"ﯿ":{"ha":454,"x_min":0,"x_max":0,"o":"m 454 103 b 274 261 335 103 274 156 l 274 565 l 165 565 l 165 288 b 10 103 165 156 122 103 l 0 103 l 0 0 l 7 0 b 232 96 113 0 188 31 b 454 0 269 35 342 0 b 482 51 472 0 482 21 b 454 103 482 82 472 103 z m 104 -121 b 36 -190 65 -121 36 -150 b 104 -258 36 -229 65 -258 b 172 -190 144 -258 172 -229 b 104 -121 172 -150 144 -121 z m 300 -121 b 231 -190 260 -121 231 -150 b 300 -258 231 -229 260 -258 b 367 -190 339 -258 367 -229 b 300 -121 367 -150 339 -121 z "},"ﯾ":{"ha":392,"x_min":0,"x_max":0,"o":"m 0 0 l 7 0 b 274 269 179 0 274 81 l 274 565 l 165 565 l 165 288 b 10 103 165 156 122 103 l 0 103 z m 64 -258 b 132 -190 104 -258 132 -229 b 64 -121 132 -150 104 -121 b -4 -190 25 -121 -4 -150 b 64 -258 -4 -229 25 -258 z m 260 -258 b 326 -190 299 -258 326 -229 b 260 -121 326 -150 299 -121 b 190 -190 219 -121 190 -150 b 260 -258 190 -229 219 -258 z "},"ے":{"ha":1024,"x_min":0,"x_max":0,"o":"m 486 -14 b 1021 36 618 -14 813 3 l 1015 139 b 514 92 828 107 650 92 b 144 186 239 92 144 115 b 418 513 144 311 418 321 l 418 565 l 317 565 l 317 518 b 42 174 317 378 42 375 b 486 -14 42 46 149 -14 z "},"ﮯ":{"ha":583,"x_min":0,"x_max":0,"o":"m 486 -361 b 1021 -311 618 -361 813 -344 l 1015 -208 b 514 -256 828 -240 650 -256 b 144 -121 239 -256 144 -217 b 342 0 144 -44 199 0 l 583 0 b 611 51 601 0 611 21 b 583 103 611 82 601 103 l 354 103 b 42 -125 160 103 42 24 b 486 -361 42 -293 186 -361 z "},"ۓ":{"ha":1024,"x_min":0,"x_max":0,"o":"m 486 -14 b 1021 36 618 -14 813 3 l 1015 139 b 514 92 828 107 650 92 b 144 186 239 92 144 115 b 418 513 144 311 418 321 l 418 565 l 317 565 l 317 518 b 42 174 317 378 42 375 b 486 -14 42 46 149 -14 z m 504 739 l 504 808 l 351 808 b 326 883 335 835 326 860 b 417 957 326 939 374 957 b 475 950 438 957 460 953 l 488 1018 b 401 1028 461 1024 429 1028 b 254 896 315 1028 254 978 b 278 808 254 865 263 836 l 215 808 l 215 739 z "},"ﮱ":{"ha":583,"x_min":0,"x_max":0,"o":"m 42 -125 b 486 -361 42 -293 186 -361 b 1021 -311 618 -361 813 -344 l 1015 -208 b 514 -256 828 -240 650 -256 b 144 -121 239 -256 144 -217 b 342 0 144 -44 199 0 l 583 0 b 611 51 601 0 611 21 b 583 103 611 82 601 103 l 354 103 b 42 -125 160 103 42 24 z m 463 278 l 463 347 l 310 347 b 285 422 293 374 285 399 b 375 496 285 478 332 496 b 433 489 396 496 418 492 l 446 557 b 360 567 419 563 388 567 b 213 435 274 567 213 517 b 236 347 213 404 221 375 l 174 347 l 174 278 z "},"ە":{"ha":719,"x_min":0,"x_max":0,"o":"m 349 -7 b 643 274 532 -7 643 108 b 349 581 643 428 544 581 b 56 274 154 581 56 429 b 349 -7 56 121 151 -7 z m 353 99 b 167 278 243 99 167 150 b 349 475 167 386 221 475 b 532 276 475 475 532 389 b 353 99 532 150 461 99 z "},"ـ":{"ha":72,"x_min":0,"x_max":0,"o":"m 0 0 l 72 0 b 100 51 90 0 100 21 b 72 103 100 82 90 103 l 0 103 z "},"ﻻ":{"ha":918,"x_min":0,"x_max":0,"o":"m 543 0 b 814 257 721 0 814 97 l 814 1050 l 706 1050 l 706 288 b 531 103 706 151 649 103 l 440 103 l 440 764 l 332 764 l 332 103 l 42 103 l 42 0 z "},"ﻼ":{"ha":994,"x_min":0,"x_max":0,"o":"m 42 0 l 543 0 b 771 99 650 0 726 35 b 994 0 808 36 881 0 b 1022 51 1013 0 1022 21 b 994 103 1022 82 1013 103 b 814 261 875 103 814 156 l 814 1050 l 706 1050 l 706 288 b 531 103 706 151 649 103 l 440 103 l 440 764 l 332 764 l 332 103 l 42 103 z "},"ﻷ":{"ha":918,"x_min":0,"x_max":0,"o":"m 543 0 b 814 257 721 0 814 97 l 814 1050 l 706 1050 l 706 288 b 531 103 706 151 649 103 l 440 103 l 440 764 l 332 764 l 332 103 l 42 103 l 42 0 z m 278 921 l 278 867 l 503 867 l 503 921 l 383 921 b 364 981 371 942 364 963 b 435 1038 364 1019 394 1038 b 481 1032 451 1038 468 1035 l 490 1085 b 424 1093 471 1089 447 1093 b 307 989 356 1093 307 1053 b 326 921 307 965 314 943 z "},"ﻸ":{"ha":994,"x_min":0,"x_max":0,"o":"m 42 0 l 543 0 b 771 99 650 0 726 35 b 994 0 808 36 881 0 b 1022 51 1013 0 1022 21 b 994 103 1022 82 1013 103 b 814 261 875 103 814 156 l 814 1050 l 706 1050 l 706 288 b 531 103 706 151 649 103 l 440 103 l 440 764 l 332 764 l 332 103 l 42 103 z m 278 867 l 503 867 l 503 921 l 383 921 b 364 981 371 942 364 963 b 435 1038 364 1019 394 1038 b 481 1032 451 1038 468 1035 l 490 1085 b 424 1093 471 1089 447 1093 b 307 989 356 1093 307 1053 b 326 921 307 965 314 943 l 278 921 z "},"ﻹ":{"ha":918,"x_min":0,"x_max":0,"o":"m 543 0 b 814 257 721 0 814 97 l 814 1050 l 706 1050 l 706 288 b 531 103 706 151 649 103 l 440 103 l 440 764 l 332 764 l 332 103 l 42 103 l 42 0 z m 497 -346 l 497 -292 l 378 -292 b 358 -232 365 -271 358 -250 b 429 -175 358 -193 389 -175 b 475 -181 446 -175 463 -178 l 485 -128 b 418 -119 465 -124 442 -119 b 301 -224 350 -119 301 -160 b 321 -292 301 -247 308 -269 l 272 -292 l 272 -346 z "},"ﻺ":{"ha":994,"x_min":0,"x_max":0,"o":"m 42 0 l 543 0 b 771 99 650 0 726 35 b 994 0 808 36 881 0 b 1022 51 1013 0 1022 21 b 994 103 1022 82 1013 103 b 814 261 875 103 814 156 l 814 1050 l 706 1050 l 706 288 b 531 103 706 151 649 103 l 440 103 l 440 764 l 332 764 l 332 103 l 42 103 z m 497 -346 l 497 -292 l 378 -292 b 358 -232 365 -271 358 -250 b 429 -175 358 -193 389 -175 b 475 -181 446 -175 463 -178 l 485 -128 b 418 -119 465 -124 442 -119 b 301 -224 350 -119 301 -160 b 321 -292 301 -247 308 -269 l 272 -292 l 272 -346 z "},"ﻵ":{"ha":918,"x_min":0,"x_max":0,"o":"m 543 0 b 814 257 721 0 814 97 l 814 1050 l 706 1050 l 706 288 b 531 103 706 151 649 103 l 440 103 l 440 764 l 332 764 l 332 103 l 42 103 l 42 0 z m 169 931 l 207 886 b 269 910 222 897 247 910 b 474 874 317 910 403 874 b 586 935 515 874 556 888 l 544 975 b 468 942 510 947 497 942 b 274 979 414 942 325 979 b 169 931 250 979 211 969 z "},"ﻶ":{"ha":994,"x_min":0,"x_max":0,"o":"m 42 103 l 42 0 l 543 0 b 771 99 650 0 726 35 b 994 0 808 36 881 0 b 1022 51 1013 0 1022 21 b 994 103 1022 82 1013 103 b 814 261 875 103 814 156 l 814 1050 l 706 1050 l 706 288 b 531 103 706 151 649 103 l 440 103 l 440 764 l 332 764 l 332 103 z m 169 931 l 207 886 b 269 910 222 897 247 910 b 474 874 317 910 403 874 b 586 935 515 874 556 888 l 544 975 b 468 942 510 947 497 942 b 274 979 414 942 325 979 b 169 931 250 979 211 969 z "},"ﷲ":{"ha":1946,"x_min":0,"x_max":0,"o":"m 56 278 b 347 29 56 118 175 29 b 538 72 421 29 482 46 b 771 0 568 22 642 0 b 999 90 879 0 957 28 b 1218 0 1038 33 1108 0 b 1485 240 1390 0 1485 71 l 1485 1050 l 1376 1050 l 1376 288 b 1218 103 1376 149 1349 103 b 1038 261 1099 103 1038 156 l 1038 814 l 929 814 l 929 288 b 771 103 929 149 901 103 b 621 243 660 103 621 131 l 621 565 l 386 565 b 56 278 178 565 56 447 z m 1733 0 l 1842 0 l 1842 1050 l 1733 1050 z m 365 463 l 507 463 l 507 169 b 357 135 472 149 421 135 b 167 290 238 135 167 185 b 365 463 167 406 251 463 z m 825 972 b 921 882 825 919 858 882 b 994 921 956 882 981 896 b 1060 896 1008 907 1029 896 b 1146 992 1114 896 1146 936 b 1125 1072 1146 1015 1140 1043 l 1086 1057 b 1097 994 1093 1035 1097 1013 b 1056 953 1097 969 1088 953 b 1007 974 1035 953 1017 963 l 1007 978 b 999 1029 1007 992 1004 1010 l 960 1019 b 961 993 961 1010 961 1001 b 921 942 961 958 949 942 b 872 992 890 942 872 957 b 878 1031 872 1003 874 1015 l 840 1040 b 825 972 829 1015 825 993 z m 956 1097 l 964 1097 l 1010 1114 l 1010 1300 l 956 1300 z "},"ﷺ":{"ha":1568,"x_min":0,"x_max":0,"o":"m 54 357 b 160 261 54 296 97 261 b 236 278 190 261 214 267 b 321 253 254 260 278 253 l 335 253 b 424 283 376 253 404 261 b 497 253 436 263 461 253 l 692 253 l 692 -14 b 644 -65 692 -51 679 -65 l 419 -65 b 421 -49 421 -60 421 -54 b 310 68 421 22 378 68 b 189 -50 236 68 189 18 l 189 -65 l 175 -65 b 82 -161 115 -65 82 -97 l 82 -264 l 151 -264 l 151 -175 b 186 -135 151 -146 163 -136 l 210 -133 b 238 -169 217 -147 226 -158 l 297 -169 b 392 -135 339 -169 371 -157 l 647 -135 b 733 -106 688 -135 715 -126 b 808 -135 747 -124 771 -135 l 833 -135 b 917 -106 872 -135 896 -125 b 989 -135 933 -126 957 -135 b 1061 -106 1018 -135 1042 -126 b 1129 -135 1078 -125 1100 -135 b 1226 -49 1192 -135 1226 -104 l 1226 89 l 1154 89 l 1154 -25 b 1118 -65 1154 -54 1144 -65 b 1082 -32 1093 -65 1082 -54 l 1082 53 l 1011 53 l 1011 -26 b 975 -65 1011 -53 1000 -65 b 939 -32 950 -65 939 -54 l 939 53 l 868 53 l 868 -25 b 829 -65 868 -53 856 -65 l 808 -65 b 764 -22 778 -65 764 -51 l 764 253 l 985 253 b 1069 282 1024 253 1053 261 b 1144 253 1083 263 1107 253 l 1504 253 l 1504 322 l 1400 322 b 1383 369 1392 333 1383 351 b 1439 418 1383 399 1403 418 b 1479 413 1453 418 1467 415 l 1492 474 b 1428 483 1471 479 1450 483 b 1308 379 1350 483 1308 440 b 1324 322 1308 360 1315 339 l 1146 322 b 1100 365 1115 322 1100 338 l 1100 581 l 1029 581 l 1029 375 b 982 322 1029 336 1015 322 l 764 322 l 764 425 l 692 425 l 692 322 l 501 322 b 453 369 468 322 453 339 l 453 472 l 382 472 l 382 375 b 332 322 382 336 368 322 l 329 322 b 283 361 294 322 283 333 l 283 472 l 192 472 b 54 357 100 472 54 428 z m 581 594 b 732 489 581 529 631 489 b 928 600 856 489 928 539 b 908 640 928 615 922 631 b 981 669 939 640 964 647 b 1049 640 993 650 1015 640 b 1133 668 1097 640 1118 650 b 1204 640 1150 644 1178 640 l 1488 640 b 1504 736 1499 675 1504 710 b 1385 871 1504 821 1461 871 b 1190 711 1315 871 1247 824 b 1163 747 1171 714 1163 725 l 1163 835 l 1092 835 l 1092 754 b 1047 710 1092 721 1078 710 b 1001 753 1018 710 1001 724 l 1001 996 l 931 996 l 931 764 b 886 710 931 724 919 710 b 788 724 856 710 836 711 l 769 663 b 854 617 836 644 854 636 b 736 558 854 585 814 558 b 654 607 682 558 654 576 b 658 632 654 614 656 624 l 592 644 b 581 594 583 625 581 610 z m 46 744 b 151 649 46 683 88 649 b 228 665 182 649 206 654 b 313 640 244 647 268 640 b 397 669 353 640 381 649 b 471 640 411 650 435 640 b 585 747 549 640 585 665 l 585 996 l 514 996 l 514 761 b 471 710 514 722 503 710 b 428 753 442 710 428 724 l 428 931 l 357 931 l 357 757 b 315 710 357 722 347 710 b 275 742 285 710 275 718 l 275 858 l 183 858 b 46 744 92 858 46 815 z m 1376 -125 b 1422 -118 1393 -125 1408 -124 b 1324 -174 1422 -156 1388 -174 b 1296 -172 1315 -174 1306 -172 l 1299 -237 b 1328 -239 1308 -237 1318 -239 b 1493 -104 1440 -239 1493 -199 l 1493 -24 b 1386 94 1493 42 1463 94 b 1271 -17 1314 94 1271 47 b 1376 -125 1271 -86 1314 -125 z m 647 996 l 647 667 l 719 667 l 719 996 z m 1263 710 b 1379 806 1297 771 1338 806 b 1435 743 1414 806 1435 782 b 1429 708 1435 732 1432 721 z m 306 4 b 356 -50 338 4 356 -18 b 294 -108 356 -86 332 -108 l 274 -108 b 256 -65 263 -94 257 -79 b 254 -53 254 -61 254 -57 b 306 4 254 -18 274 4 z m 1385 35 b 1428 -21 1413 35 1428 15 l 1428 -62 b 1388 -69 1417 -67 1403 -69 b 1338 -19 1356 -69 1338 -50 b 1385 35 1338 14 1356 35 z m 114 754 b 174 803 114 785 133 803 l 206 803 l 206 721 b 165 711 196 715 183 711 b 114 754 132 711 114 726 z m 182 415 l 215 415 l 215 333 b 174 324 204 329 193 324 b 124 367 142 324 124 339 b 182 415 124 397 143 415 z m 325 986 b 360 949 325 963 338 949 b 393 961 376 949 386 954 b 419 951 400 956 410 951 b 457 990 440 951 457 965 b 449 1025 457 1000 454 1013 l 421 1017 b 425 997 424 1011 425 1003 b 413 982 425 988 422 982 b 401 986 408 982 404 985 b 400 1008 401 992 401 997 l 376 1006 l 376 993 b 364 979 376 983 372 979 b 351 993 356 979 351 985 b 356 1008 351 997 353 1001 l 331 1014 b 325 986 326 1004 325 994 z m 326 182 b 363 146 326 161 342 146 b 397 182 383 146 397 161 b 363 218 397 201 383 218 b 326 182 340 218 326 201 z m 419 182 b 456 146 419 161 435 146 b 489 182 475 146 489 161 b 456 218 489 201 475 218 b 419 182 435 218 419 201 z "},"¹":{"ha":501,"x_min":0,"x_max":0,"o":"m 251 992 l 79 863 l 125 799 l 238 890 l 240 890 l 240 401 l 332 401 l 332 992 z "},"²":{"ha":501,"x_min":0,"x_max":0,"o":"m 257 1000 b 57 839 146 1000 72 943 l 144 832 b 260 925 156 889 200 925 b 360 826 315 925 360 883 b 275 689 360 765 326 735 l 44 482 l 44 401 l 457 401 l 457 476 l 161 476 l 161 479 l 361 653 b 451 826 418 703 451 756 b 257 1000 451 933 376 1000 z "},"³":{"ha":501,"x_min":0,"x_max":0,"o":"m 247 1000 b 58 901 157 1000 90 967 l 135 867 b 247 925 157 911 199 925 b 346 843 310 925 346 897 b 219 747 346 782 299 747 l 194 747 l 194 672 l 211 672 b 367 565 318 672 367 633 b 247 468 367 508 318 468 b 118 553 188 468 139 499 l 43 521 b 247 393 71 436 139 393 b 458 561 372 393 458 460 b 328 708 458 639 407 697 l 328 711 b 438 846 393 729 438 785 b 247 1000 438 939 360 1000 z "},"⁄":{"ha":232,"x_min":0,"x_max":0,"o":"m 463 983 l 386 1028 l -231 0 l -154 -44 z "},"½":{"ha":1158,"x_min":0,"x_max":0,"o":"m 876 983 l 800 1028 l 183 0 l 260 -44 z m 218 992 l 46 863 l 92 799 l 204 890 l 207 890 l 207 401 l 299 401 l 299 992 z m 913 599 b 713 438 801 599 728 542 l 800 431 b 915 524 811 488 856 524 b 1015 425 971 524 1015 482 b 931 288 1015 364 982 333 l 700 81 l 700 0 l 1113 0 l 1113 75 l 817 75 l 817 78 l 1017 251 b 1107 425 1074 301 1107 354 b 913 599 1107 532 1032 599 z "},"¼":{"ha":1158,"x_min":0,"x_max":0,"o":"m 664 125 l 935 125 l 935 0 l 1026 0 l 1026 125 l 1104 125 l 1104 200 l 1026 200 l 1026 590 l 918 590 l 664 213 z m 207 0 l 283 -44 l 900 983 l 824 1028 z m 54 863 l 100 799 l 213 892 l 215 892 l 215 401 l 307 401 l 307 992 l 226 992 z m 747 200 l 932 482 l 935 482 l 935 200 z "},"¾":{"ha":1158,"x_min":0,"x_max":0,"o":"m 683 125 l 954 125 l 954 0 l 1046 0 l 1046 125 l 1124 125 l 1124 200 l 1046 200 l 1046 590 l 938 590 l 683 213 z m 35 521 b 240 393 64 436 132 393 b 451 561 363 393 451 458 b 321 708 451 638 400 697 l 321 711 b 431 846 389 732 431 786 b 240 1000 431 939 353 1000 b 51 901 150 1000 83 967 l 128 867 b 240 925 150 911 190 925 b 339 843 303 925 339 897 b 210 747 339 782 293 747 l 188 747 l 188 672 l 203 672 b 360 565 310 672 360 633 b 240 468 360 506 308 468 b 111 553 178 468 129 503 z m 261 0 l 338 -44 l 954 983 l 878 1028 z m 951 482 l 954 482 l 954 200 l 767 200 l 767 203 z "},"٫":{"ha":346,"x_min":0,"x_max":0,"o":"m 271 103 l 144 103 l 50 -231 l 157 -231 z "},"٬":{"ha":293,"x_min":0,"x_max":0,"o":"m 218 179 l 117 179 l 50 -54 l 139 -54 z "},"٠":{"ha":750,"x_min":0,"x_max":0,"o":"m 375 304 l 479 408 l 375 511 l 269 410 z "},"١":{"ha":750,"x_min":0,"x_max":0,"o":"m 321 0 l 429 0 l 429 907 l 321 907 z "},"٢":{"ha":750,"x_min":0,"x_max":0,"o":"m 121 0 l 229 0 l 229 613 b 403 574 261 600 321 574 b 644 907 589 574 658 682 l 536 901 b 404 674 550 743 518 674 b 229 714 324 674 268 697 l 229 907 l 121 907 z "},"٣":{"ha":750,"x_min":0,"x_max":0,"o":"m 53 907 l 53 0 l 161 0 l 161 618 b 276 597 194 606 229 597 b 385 632 321 597 357 608 b 544 597 428 614 478 597 b 724 907 676 597 740 700 l 615 900 b 522 693 629 753 601 693 b 438 708 494 693 468 699 b 456 907 456 758 463 825 l 347 900 b 254 693 361 753 333 693 b 161 711 218 693 186 701 l 161 907 z "},"٤":{"ha":750,"x_min":0,"x_max":0,"o":"m 631 100 b 479 93 575 96 524 93 b 226 225 311 93 226 129 b 567 425 226 300 307 403 l 567 526 b 481 519 536 522 507 519 b 269 654 343 519 269 576 b 533 810 269 747 349 810 b 590 808 551 810 571 810 l 590 908 b 543 910 574 910 558 910 b 158 656 281 910 158 804 b 294 463 158 567 225 497 b 115 206 182 403 115 308 b 463 -10 115 56 243 -10 b 636 1 515 -10 574 -6 z "},"٥":{"ha":750,"x_min":0,"x_max":0,"o":"m 375 -11 b 683 369 549 -11 683 74 b 375 908 683 753 531 908 b 67 369 221 908 67 753 b 375 -11 67 74 201 -11 z m 375 93 b 178 374 254 93 178 179 b 375 804 178 644 272 804 b 572 374 478 804 572 644 b 375 93 572 179 497 93 z "},"٦":{"ha":750,"x_min":0,"x_max":0,"o":"m 492 0 l 600 0 l 600 907 l 67 907 l 67 806 l 492 806 z "},"٧":{"ha":750,"x_min":0,"x_max":0,"o":"m 622 917 l 375 157 l 126 917 l 11 885 l 315 0 l 436 0 l 738 882 z "},"٨":{"ha":750,"x_min":0,"x_max":0,"o":"m 738 18 l 433 903 l 313 903 l 11 21 l 126 -14 l 374 746 l 622 -14 z "},"٩":{"ha":750,"x_min":0,"x_max":0,"o":"m 83 632 b 428 379 83 467 203 379 b 504 382 453 379 478 381 l 504 0 l 613 0 l 613 907 l 379 907 b 83 632 196 907 83 803 z m 194 632 b 406 806 194 744 272 806 l 504 806 l 504 481 b 433 476 479 478 456 476 b 194 632 288 476 194 531 z "},"۰":{"ha":750,"x_min":0,"x_max":0,"o":"m 375 304 l 479 408 l 375 511 l 269 410 z "},"۱":{"ha":750,"x_min":0,"x_max":0,"o":"m 321 0 l 429 0 l 429 907 l 321 907 z "},"۲":{"ha":750,"x_min":0,"x_max":0,"o":"m 121 0 l 229 0 l 229 613 b 403 574 261 600 321 574 b 644 907 589 574 658 682 l 536 901 b 404 674 550 743 518 674 b 229 714 324 674 268 697 l 229 907 l 121 907 z "},"۳":{"ha":750,"x_min":0,"x_max":0,"o":"m 53 907 l 53 0 l 161 0 l 161 618 b 276 597 194 606 229 597 b 385 632 321 597 357 608 b 544 597 428 614 478 597 b 724 907 676 597 740 700 l 615 900 b 522 693 629 753 601 693 b 438 708 494 693 468 699 b 456 907 456 758 463 825 l 347 900 b 254 693 361 753 333 693 b 161 711 218 693 186 701 l 161 907 z "},"۴":{"ha":750,"x_min":0,"x_max":0,"o":"m 68 907 l 68 0 l 176 0 l 176 583 b 449 542 251 558 354 542 b 710 567 536 542 625 550 l 697 664 b 453 642 617 649 535 642 b 436 721 442 667 436 694 b 535 818 436 785 469 818 b 626 803 565 818 599 813 l 651 900 b 525 918 613 911 567 918 b 339 746 403 918 339 858 b 357 647 339 713 346 679 b 176 685 292 654 228 667 l 176 907 z "},"۵":{"ha":750,"x_min":0,"x_max":0,"o":"m 268 -8 b 378 47 307 -8 343 13 b 499 -8 407 18 453 -8 b 690 351 604 -8 690 103 b 379 908 690 742 526 908 b 60 351 240 908 60 729 b 268 -8 60 82 150 -8 z m 283 94 b 171 357 231 94 171 164 b 379 806 171 619 278 806 b 579 354 479 806 579 635 b 472 94 579 181 532 94 b 375 133 421 94 393 133 b 283 94 356 133 325 94 z "},"۶":{"ha":750,"x_min":0,"x_max":0,"o":"m 589 608 l 503 506 b 257 654 351 515 257 569 b 521 810 257 747 336 810 b 578 808 539 810 558 810 l 578 908 b 531 910 556 910 544 910 b 146 656 268 910 146 804 b 421 410 146 524 256 435 l 108 39 l 194 -33 l 675 536 z "},"۷":{"ha":750,"x_min":0,"x_max":0,"o":"m 622 917 l 375 157 l 126 917 l 11 885 l 315 0 l 436 0 l 738 882 z "},"۸":{"ha":750,"x_min":0,"x_max":0,"o":"m 738 18 l 433 903 l 313 903 l 11 21 l 126 -14 l 374 746 l 622 -14 z "},"۹":{"ha":750,"x_min":0,"x_max":0,"o":"m 83 632 b 428 379 83 467 203 379 b 504 382 453 379 478 381 l 504 0 l 613 0 l 613 907 l 379 907 b 83 632 196 907 83 803 z m 194 632 b 406 806 194 744 272 806 l 504 806 l 504 481 b 433 476 479 478 456 476 b 194 632 288 476 194 531 z "},"…":{"ha":1389,"x_min":0,"x_max":0,"o":"m 232 158 b 149 75 186 158 149 121 b 232 -8 149 31 188 -8 b 315 75 275 -8 315 31 b 232 158 315 121 276 158 z m 694 158 b 611 75 649 158 611 121 b 694 -8 611 31 650 -8 b 778 75 739 -8 778 31 b 694 158 778 121 739 158 z m 1157 158 b 1074 75 1111 158 1074 121 b 1157 -8 1074 31 1114 -8 b 1240 75 1201 -8 1240 31 b 1157 158 1240 121 1201 158 z "},"¡":{"ha":386,"x_min":0,"x_max":0,"o":"m 193 683 b 110 600 153 683 110 646 b 193 517 110 554 147 517 b 276 600 239 517 276 556 b 193 683 276 644 236 683 z m 251 400 l 135 400 l 135 -308 l 251 -308 z "},"¿":{"ha":669,"x_min":0,"x_max":0,"o":"m 349 683 b 265 600 306 683 265 644 b 349 517 265 554 303 517 b 432 600 394 517 432 556 b 349 683 432 646 389 683 z m 407 400 l 290 400 l 290 343 b 199 157 290 254 283 233 b 65 -86 93 63 65 -8 b 336 -333 65 -236 175 -333 b 632 -96 490 -333 606 -246 l 507 -82 b 338 -233 490 -178 426 -233 b 190 -82 247 -233 190 -171 b 274 79 190 -25 218 24 b 407 299 346 151 407 189 z "},"·":{"ha":386,"x_min":0,"x_max":0,"o":"m 193 513 b 110 429 149 513 110 475 b 193 346 110 385 150 346 b 276 429 238 346 276 385 b 193 513 276 474 239 513 z "},"•":{"ha":694,"x_min":0,"x_max":0,"o":"m 347 738 b 101 492 213 738 101 626 b 347 246 101 357 213 246 b 593 492 482 246 593 357 b 347 738 593 626 482 738 z "},"­":{"ha":463,"x_min":0,"x_max":0,"o":"m 401 383 l 61 383 l 61 283 l 401 283 z "},"–":{"ha":694,"x_min":0,"x_max":0,"o":"m 694 383 l 0 383 l 0 283 l 694 283 z "},"—":{"ha":1389,"x_min":0,"x_max":0,"o":"m 1389 383 l 0 383 l 0 283 l 1389 283 z "},"‑":{"ha":463,"x_min":0,"x_max":0,"o":"m 401 383 l 61 383 l 61 283 l 401 283 z "},"‚":{"ha":386,"x_min":0,"x_max":0,"o":"m 303 142 l 176 142 l 83 -192 l 189 -192 z "},"„":{"ha":721,"x_min":0,"x_max":0,"o":"m 486 -192 l 600 142 l 474 142 l 381 -192 z m 121 -192 l 226 -192 l 340 142 l 214 142 z "},"“":{"ha":721,"x_min":0,"x_max":0,"o":"m 507 650 l 600 983 l 494 983 l 381 650 z m 121 650 l 247 650 l 340 983 l 235 983 z "},"”":{"ha":721,"x_min":0,"x_max":0,"o":"m 486 650 l 600 983 l 474 983 l 381 650 z m 121 650 l 226 650 l 340 983 l 214 983 z "},"‘":{"ha":386,"x_min":0,"x_max":0,"o":"m 303 983 l 197 983 l 83 650 l 210 650 z "},"’":{"ha":386,"x_min":0,"x_max":0,"o":"m 303 983 l 176 983 l 83 650 l 189 650 z "},"«":{"ha":694,"x_min":0,"x_max":0,"o":"m 356 581 l 279 631 l 81 333 l 279 36 l 356 86 l 193 333 z m 614 581 l 538 631 l 339 333 l 538 36 l 614 86 l 451 333 z "},"»":{"ha":694,"x_min":0,"x_max":0,"o":"m 157 631 l 81 581 l 243 333 l 81 86 l 157 36 l 356 333 z m 415 631 l 339 581 l 501 333 l 339 86 l 415 36 l 614 333 z "},"‹":{"ha":436,"x_min":0,"x_max":0,"o":"m 356 581 l 279 631 l 81 333 l 279 36 l 356 86 l 193 333 z "},"›":{"ha":436,"x_min":0,"x_max":0,"o":"m 157 631 l 81 581 l 243 333 l 81 86 l 157 36 l 356 333 z "},"۔":{"ha":486,"x_min":0,"x_max":0,"o":"m 81 150 l 42 64 b 229 0 96 13 157 0 l 444 0 l 444 103 l 229 103 b 81 150 164 103 114 119 z "},"،":{"ha":419,"x_min":0,"x_max":0,"o":"m 106 0 l 232 0 l 326 333 l 219 333 z "},"؛":{"ha":394,"x_min":0,"x_max":0,"o":"m 124 261 l 250 261 l 344 594 l 238 594 z m 176 -8 b 260 75 221 -8 260 31 b 176 158 260 121 222 158 b 93 75 131 158 93 121 b 176 -8 93 29 133 -8 z "},"؟":{"ha":646,"x_min":0,"x_max":0,"o":"m 263 275 l 379 275 l 379 369 b 247 594 379 467 354 486 b 163 757 203 639 163 688 b 310 908 163 847 221 908 b 479 757 400 908 464 850 l 604 771 b 308 1008 578 921 463 1008 b 38 761 147 1008 38 911 b 171 517 38 676 69 610 b 263 356 264 432 263 403 z m 321 -8 b 404 75 365 -8 404 31 b 321 158 404 119 365 158 b 238 75 276 158 238 121 b 321 -8 238 31 278 -8 z "},"٭":{"ha":1169,"x_min":0,"x_max":0,"o":"m 282 -136 l 592 139 l 894 -136 l 932 -108 l 763 263 l 1125 469 l 1110 521 l 694 469 l 613 869 l 571 869 l 483 469 l 68 521 l 57 469 l 406 261 l 249 -108 z "},"﴾":{"ha":711,"x_min":0,"x_max":0,"o":"m 124 410 l 124 332 b 143 306 124 317 129 306 b 163 317 149 306 157 311 l 263 406 b 282 415 271 414 276 415 b 299 404 294 415 299 410 b 288 381 299 396 296 388 l 208 271 b 219 239 197 256 204 239 b 224 239 221 239 222 239 l 318 254 b 644 -135 360 96 592 -135 b 647 -110 660 -135 661 -122 b 436 257 550 -12 454 117 l 442 257 l 503 249 b 513 247 506 249 510 247 b 522 274 532 247 535 260 l 435 374 b 419 399 426 386 419 394 b 433 410 419 410 426 410 b 442 410 436 410 439 410 b 453 406 444 408 449 408 l 556 329 b 581 318 565 322 574 318 b 590 332 588 318 590 322 l 590 410 b 674 478 621 421 674 446 b 590 544 674 508 621 533 l 590 621 b 581 635 590 631 588 635 b 556 624 574 635 565 631 l 453 549 b 442 544 449 546 444 546 b 433 544 439 544 436 544 b 419 554 426 544 419 544 b 435 578 419 560 426 568 l 522 681 b 513 707 535 694 532 707 b 503 706 510 707 506 706 l 436 697 b 442 729 438 708 439 719 b 647 1064 465 835 549 946 b 644 1089 660 1078 660 1089 b 318 700 592 1089 360 858 l 224 715 b 219 715 222 715 221 715 b 208 683 204 715 199 699 l 288 574 b 299 550 296 567 299 558 b 282 538 299 544 294 538 b 263 547 276 538 272 540 l 163 636 b 143 649 157 640 149 649 b 124 621 129 649 124 636 l 124 544 b 42 478 67 517 42 494 b 124 410 42 460 67 438 z m 338 661 b 442 864 353 722 393 814 l 442 806 b 396 660 415 743 401 704 l 489 678 l 401 589 l 401 625 l 376 625 l 376 669 l 349 625 l 318 625 l 318 588 l 253 682 z m 318 365 l 318 326 l 349 326 l 376 283 l 376 326 l 401 326 l 401 365 l 489 275 l 396 293 b 442 149 401 249 415 210 l 442 89 b 338 292 393 139 353 232 l 253 272 z m 294 478 b 360 544 294 513 325 544 b 426 478 397 544 426 515 b 360 410 426 439 399 410 b 318 426 344 410 329 417 b 294 478 304 440 294 458 z m 464 436 l 519 436 l 519 461 b 561 476 536 463 551 469 b 519 493 551 485 536 492 l 519 518 l 464 518 l 561 592 l 561 519 b 640 478 581 515 640 497 b 561 435 640 456 581 440 l 561 363 z m 124 507 b 156 519 133 511 143 515 l 156 593 l 256 514 l 194 514 l 194 492 b 156 478 178 488 167 485 b 194 463 167 469 178 467 l 194 439 l 256 439 l 156 361 l 156 435 b 76 478 139 440 76 464 b 124 507 76 485 93 496 z "},"﴿":{"ha":711,"x_min":0,"x_max":0,"o":"m 42 478 b 125 410 42 446 94 421 l 125 332 b 135 318 125 322 128 318 b 160 329 142 318 150 322 l 263 406 b 274 410 267 408 271 408 b 282 410 276 410 279 410 b 296 399 289 410 296 410 b 281 374 296 394 289 386 l 193 274 b 203 247 181 260 183 247 b 213 249 206 247 210 249 l 274 257 l 279 257 b 68 -110 261 117 165 -12 b 71 -135 54 -122 56 -135 b 397 254 124 -135 356 96 l 492 239 b 496 239 493 239 494 239 b 507 271 511 239 518 256 l 428 381 b 417 404 419 388 417 396 b 433 415 417 410 421 415 b 453 406 439 415 444 414 l 553 317 b 572 306 558 311 567 306 b 592 332 586 306 592 317 l 592 410 b 674 478 649 438 674 460 b 592 544 674 494 649 517 l 592 621 b 572 649 592 636 586 649 b 553 636 567 649 558 640 l 453 547 b 433 538 443 540 439 538 b 417 550 421 538 417 544 b 428 574 417 558 419 567 l 507 683 b 496 715 517 699 511 715 b 492 715 494 715 493 715 l 397 700 b 71 1089 356 858 124 1089 b 68 1064 56 1089 56 1078 b 274 729 167 946 250 835 b 279 697 276 719 278 708 l 213 706 b 203 707 210 706 206 707 b 193 681 183 707 181 694 l 281 578 b 296 554 289 568 296 560 b 282 544 296 544 289 544 b 274 544 279 544 276 544 b 263 549 271 546 267 546 l 160 624 b 135 635 150 631 142 635 b 125 621 128 635 125 631 l 125 544 b 42 478 94 533 42 508 z m 226 678 l 319 660 b 274 806 314 704 300 743 l 274 864 b 378 661 322 814 363 722 l 463 682 l 397 588 l 397 625 l 367 625 l 339 669 l 339 625 l 314 625 l 314 589 z m 319 293 l 226 275 l 314 365 l 314 326 l 339 326 l 339 283 l 367 326 l 397 326 l 397 365 l 463 272 l 378 292 b 274 89 363 232 322 139 l 274 149 b 319 293 300 210 314 249 z m 289 478 b 356 544 289 515 318 544 b 421 478 390 544 421 513 b 397 426 421 458 411 440 b 356 410 386 417 371 410 b 289 478 317 410 289 439 z m 154 435 b 75 478 135 440 75 456 b 154 519 75 497 135 515 l 154 592 l 251 518 l 196 518 l 196 493 b 154 479 179 492 164 485 b 196 461 164 469 179 463 l 196 436 l 251 436 l 154 363 z m 460 514 l 560 593 l 560 519 b 592 507 572 515 582 511 b 639 478 622 496 639 485 b 560 435 639 464 576 440 l 560 361 l 460 439 l 521 439 l 521 463 b 560 478 538 467 549 469 b 521 492 549 485 538 488 l 521 514 z "}," ":{"ha":1588,"x_min":0,"x_max":0,"o":""}," ":{"ha":794,"x_min":0,"x_max":0,"o":""}," ":{"ha":32,"x_min":0,"x_max":0,"o":""}," ":{"ha":386,"x_min":0,"x_max":0,"o":""}," ":{"ha":158,"x_min":0,"x_max":0,"o":""},"‎":{"ha":0,"x_min":0,"x_max":0,"o":"m 42 1247 l 151 1357 l 42 1467 l 15 1439 l 81 1376 l -119 1376 l -119 1340 l 81 1340 l 15 1275 z "},"‏":{"ha":0,"x_min":0,"x_max":0,"o":"m -42 1249 l -15 1275 l -79 1340 l 121 1340 l 121 1376 l -81 1376 l -15 1442 l -42 1467 l -151 1357 z "},"‍":{"ha":0,"x_min":0,"x_max":0,"o":"m -157 1376 l -157 1267 l -121 1267 l -121 1340 l 122 1340 l 122 1267 l 158 1267 l 158 1376 z "},"‌":{"ha":0,"x_min":0,"x_max":0,"o":"m -108 1439 l -26 1357 l -108 1275 l -83 1247 l 0 1331 l 82 1249 l 107 1275 l 26 1357 l 107 1439 l 82 1465 l 0 1382 l -83 1467 z "},"‪":{"ha":0,"x_min":0,"x_max":0,"o":"m 81 1340 l 15 1275 l 42 1247 l 151 1357 l 42 1467 l 15 1439 l 81 1376 l 1 1376 l 1 1340 z m -44 1340 l -44 1376 l -135 1376 l -135 1340 z "},"‭":{"ha":0,"x_min":0,"x_max":0,"o":"m -33 1247 l 76 1357 l -33 1467 l -58 1439 l 6 1376 l -164 1376 l -164 1340 l 7 1340 l -58 1275 z m 69 1247 l 179 1357 l 69 1467 l 44 1439 l 129 1357 l 44 1275 z "},"‬":{"ha":0,"x_min":0,"x_max":0,"o":"m -19 1246 l 18 1246 l 18 1407 l 82 1343 l 108 1369 l 0 1478 l -108 1369 l -82 1343 l -19 1407 z "},"‫":{"ha":0,"x_min":0,"x_max":0,"o":"m -151 1357 l -42 1249 l -15 1275 l -79 1340 l -1 1340 l -1 1376 l -81 1376 l -15 1442 l -42 1467 z m 44 1340 l 135 1340 l 135 1376 l 44 1376 z "},"‮":{"ha":0,"x_min":0,"x_max":0,"o":"m -69 1286 l -44 1313 l -128 1396 l -44 1479 l -69 1506 l -179 1396 z m 33 1286 l 60 1313 l -6 1378 l 165 1378 l 165 1413 l -6 1413 l 60 1479 l 33 1506 l -75 1396 z "},"﻿":{"ha":0,"x_min":0,"x_max":0,"o":""},"¢":{"ha":772,"x_min":0,"x_max":0,"o":"m 93 325 b 385 -17 93 143 207 6 l 385 -108 l 451 -108 l 451 -17 b 675 88 540 -11 618 21 l 594 164 b 451 83 557 114 513 89 l 451 567 b 593 488 507 561 550 536 l 679 564 b 451 667 619 629 540 663 l 451 758 l 385 758 l 385 663 b 93 325 207 643 93 504 z m 385 564 l 385 85 b 210 325 278 113 210 207 b 385 564 210 454 279 546 z "},"¤":{"ha":772,"x_min":0,"x_max":0,"o":"m 175 765 l 100 839 l 39 778 l 114 703 b 39 492 65 646 39 571 b 114 282 39 415 65 343 l 39 206 l 100 144 l 175 221 b 386 144 238 172 308 144 b 597 221 463 144 536 172 l 672 144 l 733 206 l 658 282 b 733 492 707 343 733 415 b 658 703 733 571 707 643 l 733 778 l 672 839 l 597 765 b 386 839 536 814 464 839 b 175 765 308 839 236 814 z m 147 492 b 385 739 147 626 258 739 b 625 492 517 739 625 625 b 386 244 625 363 515 244 b 147 492 257 244 147 363 z "},"€":{"ha":806,"x_min":0,"x_max":0,"o":"m 17 329 l 122 329 b 521 -25 164 115 321 -25 b 763 40 619 -25 700 -4 l 722 118 b 533 63 667 79 606 63 b 222 329 378 63 253 167 l 543 329 l 568 406 l 213 406 b 207 485 208 428 207 463 b 214 575 207 511 208 546 l 618 575 l 643 651 l 226 651 b 533 921 267 825 378 921 b 710 879 601 921 661 907 l 744 964 b 538 1008 689 992 615 1008 b 125 651 333 1008 178 875 l 46 651 l 18 575 l 114 575 b 108 485 110 553 108 514 b 113 406 108 456 111 426 l 44 406 z "},"ƒ":{"ha":772,"x_min":0,"x_max":0,"o":"m -14 -167 b 107 -200 19 -187 63 -200 b 335 29 238 -200 304 -133 l 424 499 l 599 499 l 599 590 l 440 590 l 475 768 b 592 900 493 861 529 900 b 671 875 618 900 647 890 l 722 961 b 578 1000 681 988 631 1000 b 358 760 500 1000 399 971 l 326 590 l 158 590 l 158 499 l 308 499 l 225 46 b 108 -100 201 -79 163 -100 b 36 -79 81 -100 58 -92 z "},"₺":{"ha":772,"x_min":0,"x_max":0,"o":"m 29 693 l 29 604 l 158 658 l 158 521 l 29 465 l 29 376 l 158 432 l 158 0 b 307 -11 181 -6 249 -11 b 735 514 610 -11 735 201 l 618 514 b 314 89 618 290 532 89 b 275 92 293 89 285 90 l 275 481 l 536 596 l 536 685 l 275 569 l 275 704 l 536 822 l 536 914 l 272 792 l 272 983 l 158 983 l 158 747 z "},"₹":{"ha":772,"x_min":0,"x_max":0,"o":"m 239 900 b 461 763 364 900 444 861 l 129 763 l 129 679 l 461 679 b 206 540 443 589 363 540 l 129 540 l 129 469 b 449 0 182 393 397 75 l 589 0 l 274 456 b 578 679 463 457 558 546 l 731 679 l 731 763 l 578 763 b 504 900 571 824 546 867 l 731 900 l 731 983 l 129 983 l 129 900 z "},"£":{"ha":772,"x_min":0,"x_max":0,"o":"m 79 0 l 688 0 l 688 108 l 346 108 l 346 458 l 571 458 l 571 550 l 346 550 l 346 665 b 524 900 346 821 400 900 b 674 832 585 900 629 875 l 750 914 b 526 1000 690 974 610 1000 b 229 668 338 1000 229 878 l 229 550 l 96 550 l 96 458 l 229 458 l 229 108 l 79 108 z "},"¥":{"ha":772,"x_min":0,"x_max":0,"o":"m 0 983 l 265 529 l 107 529 l 107 446 l 315 446 l 328 424 l 328 325 l 107 325 l 107 242 l 328 242 l 328 0 l 444 0 l 444 242 l 665 242 l 665 325 l 444 325 l 444 424 l 457 446 l 665 446 l 665 529 l 507 529 l 772 983 l 633 983 l 386 529 l 139 983 z "},"∙":{"ha":386,"x_min":0,"x_max":0,"o":"m 193 513 b 110 429 149 513 110 475 b 193 346 110 385 150 346 b 276 429 238 346 276 385 b 193 513 276 474 239 513 z "},"∕":{"ha":232,"x_min":0,"x_max":0,"o":"m 463 983 l 386 1028 l -231 0 l -154 -44 z "},"−":{"ha":925,"x_min":0,"x_max":0,"o":"m 825 467 l 100 467 l 100 375 l 825 375 z "},"×":{"ha":925,"x_min":0,"x_max":0,"o":"m 196 756 l 128 688 l 396 421 l 128 151 l 194 86 l 463 356 l 731 86 l 797 154 l 528 421 l 797 690 l 731 754 l 463 488 z "},"÷":{"ha":925,"x_min":0,"x_max":0,"o":"m 463 729 b 383 650 418 729 383 693 b 463 571 383 607 419 571 b 542 650 506 571 542 607 b 463 729 542 693 503 729 z m 825 467 l 100 467 l 100 375 l 825 375 z m 463 271 b 383 192 418 271 383 235 b 463 113 383 149 419 113 b 542 192 506 113 542 147 b 463 271 542 235 503 271 z "},"≠":{"ha":925,"x_min":0,"x_max":0,"o":"m 114 431 l 460 431 l 365 250 l 114 250 l 114 167 l 321 167 l 235 4 l 307 -33 l 413 167 l 811 167 l 811 250 l 457 250 l 553 431 l 811 431 l 811 514 l 597 514 l 685 679 l 613 718 l 506 514 l 114 514 z "},"≥":{"ha":925,"x_min":0,"x_max":0,"o":"m 114 240 l 114 150 l 811 411 l 811 501 l 114 764 l 114 674 l 697 456 z m 811 8 l 811 90 l 114 90 l 114 8 z "},"≤":{"ha":925,"x_min":0,"x_max":0,"o":"m 114 411 l 811 150 l 811 240 l 229 456 l 811 674 l 811 764 l 114 501 z m 114 8 l 811 8 l 811 90 l 114 90 z "},"±":{"ha":925,"x_min":0,"x_max":0,"o":"m 100 458 l 417 458 l 417 225 l 508 225 l 508 458 l 825 458 l 825 550 l 508 550 l 508 783 l 417 783 l 417 550 l 100 550 z m 100 58 l 825 58 l 825 150 l 100 150 z "},"≈":{"ha":925,"x_min":0,"x_max":0,"o":"m 828 558 l 768 558 b 658 450 753 486 715 450 b 271 551 558 450 383 551 b 99 358 178 551 114 481 l 161 358 b 271 469 174 426 217 469 b 657 368 358 469 547 368 b 828 558 750 368 813 438 z m 828 322 l 767 322 b 658 214 750 249 714 214 b 269 315 561 214 379 315 b 99 121 179 315 121 253 l 161 121 b 271 232 174 189 217 232 b 656 131 360 232 544 131 b 828 322 750 131 813 204 z "},"¬":{"ha":925,"x_min":0,"x_max":0,"o":"m 825 575 l 100 575 l 100 483 l 733 483 l 733 189 l 825 189 z "},"∞":{"ha":1083,"x_min":0,"x_max":0,"o":"m 289 622 b 71 401 163 622 71 525 b 281 185 71 285 163 185 b 543 350 363 185 435 221 b 799 185 642 235 715 185 b 1011 406 913 185 1011 276 b 808 622 1011 538 926 622 b 547 456 739 622 667 600 b 289 622 446 578 368 622 z m 140 401 b 281 558 140 490 197 558 b 506 399 340 558 400 538 b 289 250 406 289 357 250 b 140 401 199 250 140 319 z m 582 406 b 800 558 629 453 706 558 b 942 403 889 558 942 497 b 804 250 942 318 883 250 b 582 406 738 250 686 285 z "},"∫":{"ha":754,"x_min":0,"x_max":0,"o":"m 465 1092 b 300 825 353 1092 300 1001 b 301 708 300 746 301 722 l 301 28 b 256 -239 301 -47 304 -239 b 189 -186 235 -239 229 -186 b 140 -231 161 -186 140 -201 b 225 -296 140 -271 175 -296 b 393 24 367 -296 393 -140 l 393 767 l 390 863 b 440 1031 390 950 404 1031 b 513 975 465 1031 463 975 b 564 1022 542 975 564 990 b 465 1092 564 1065 521 1092 z "},"Ω":{"ha":1033,"x_min":0,"x_max":0,"o":"m 65 81 l 65 0 l 414 0 l 414 251 b 158 576 251 278 158 406 b 508 917 158 774 314 917 b 858 576 701 917 858 778 b 603 251 858 403 764 279 l 603 0 l 951 0 l 951 81 l 678 81 l 678 194 b 951 579 854 242 951 399 b 510 1001 951 826 747 1001 b 65 578 269 1001 65 825 b 339 194 65 400 168 242 l 339 81 z "},"∆":{"ha":931,"x_min":0,"x_max":0,"o":"m 514 989 l 411 989 l 21 0 l 913 0 z m 147 86 l 461 896 l 779 86 z "},"∏":{"ha":988,"x_min":0,"x_max":0,"o":"m 99 -297 l 190 -297 l 190 1006 l 799 1006 l 799 -297 l 890 -297 l 890 1092 l 99 1092 z "},"∑":{"ha":839,"x_min":0,"x_max":0,"o":"m 786 1092 l 54 1092 l 54 1014 l 492 401 l 35 -221 l 35 -297 l 803 -297 l 803 -212 l 146 -212 l 601 401 l 172 1006 l 786 1006 z "},"√":{"ha":685,"x_min":0,"x_max":0,"o":"m 697 1092 l 610 1092 l 347 -181 l 128 281 l -11 214 l 22 144 l 86 175 l 314 -297 l 406 -297 z "},"µ":{"ha":772,"x_min":0,"x_max":0,"o":"m 103 -317 l 211 -317 l 211 18 b 349 -17 257 -8 297 -17 b 567 107 449 -17 533 35 l 569 107 b 572 0 569 64 572 28 l 675 0 b 669 144 675 35 669 104 l 669 650 l 561 650 l 561 328 b 360 83 561 179 494 83 b 211 256 256 83 211 156 l 211 650 l 103 650 z "},"∂":{"ha":689,"x_min":0,"x_max":0,"o":"m 292 1001 b 90 921 181 1001 108 938 l 140 861 b 296 925 200 907 242 925 b 544 531 449 925 544 778 b 543 474 544 496 544 519 b 313 590 486 544 403 590 b 43 294 147 590 43 463 b 319 -17 43 122 154 -17 b 632 503 524 -17 632 174 b 292 1001 632 792 518 1001 z m 131 292 b 319 513 131 421 206 513 b 536 386 396 513 474 469 b 321 57 521 175 442 57 b 131 292 207 57 131 164 z "},"‰":{"ha":1414,"x_min":0,"x_max":0,"o":"m 806 983 l 729 1028 l 113 0 l 189 -44 z m 243 1000 b 25 782 124 1000 25 897 b 243 564 25 663 121 564 b 461 782 365 564 461 663 b 243 1000 461 897 363 1000 z m 117 782 b 242 908 117 849 178 908 b 369 782 311 908 369 846 b 243 656 369 718 313 656 b 117 782 174 656 117 718 z m 671 419 b 453 201 550 419 453 318 b 671 -17 453 82 549 -17 b 889 201 790 -17 889 82 b 671 419 889 317 790 419 z m 1171 419 b 953 201 1051 419 953 318 b 1171 -17 953 82 1049 -17 b 1389 201 1292 -17 1389 82 b 1171 419 1389 317 1292 419 z m 544 201 b 669 328 544 268 606 328 b 797 201 742 328 797 263 b 671 75 797 136 736 75 b 544 201 603 75 544 138 z m 1044 200 b 1169 326 1044 267 1106 326 b 1297 200 1240 326 1297 264 b 1171 74 1297 136 1239 74 b 1044 200 1103 74 1044 136 z "},"◌":{"ha":639,"x_min":0,"x_max":0,"o":"m 319 475 b 357 514 344 475 357 489 b 319 551 357 540 344 551 b 282 514 294 551 282 540 b 319 475 282 489 294 475 z m 199 444 b 239 485 226 444 239 458 b 199 521 239 508 226 521 b 163 485 175 521 163 508 b 199 444 163 458 175 444 z m 439 444 b 475 485 463 444 475 458 b 439 521 475 508 463 521 b 399 485 414 521 399 508 b 439 444 399 458 414 444 z m 111 357 b 150 396 138 357 150 369 b 111 433 150 421 138 433 b 75 396 86 433 75 421 b 111 357 75 369 86 357 z m 526 357 b 564 396 551 357 564 369 b 526 433 564 421 551 433 b 489 396 500 433 489 421 b 526 357 489 369 500 357 z m 81 239 b 119 276 106 239 119 251 b 81 314 119 303 106 314 b 44 276 57 314 44 301 b 81 239 44 251 57 239 z m 557 239 b 594 276 582 239 594 251 b 557 314 594 301 582 314 b 519 276 532 314 519 301 b 557 239 519 251 532 239 z m 111 119 b 150 157 138 119 150 132 b 111 194 150 182 138 194 b 75 157 86 194 75 182 b 111 119 75 132 86 119 z m 526 119 b 564 157 551 119 564 132 b 526 194 564 182 551 194 b 489 157 500 194 489 182 b 526 119 489 132 500 119 z m 199 32 b 239 69 226 32 239 44 b 199 107 239 94 226 107 b 163 69 175 107 163 94 b 199 32 163 44 175 32 z m 439 32 b 475 69 463 32 475 44 b 439 107 475 94 463 107 b 399 69 414 107 399 93 b 439 32 399 43 414 32 z m 319 1 b 357 39 344 1 357 14 b 319 78 357 64 344 78 b 282 39 294 78 282 64 b 319 1 282 14 294 1 z "},"◊":{"ha":824,"x_min":0,"x_max":0,"o":"m 454 1038 l 367 1038 l 132 493 l 367 -49 l 454 -49 l 692 494 z m 222 494 l 411 946 l 601 494 l 411 43 z "},"❊":{"ha":875,"x_min":0,"x_max":0,"o":"m 556 6 l 638 46 l 511 306 l 782 236 l 803 322 l 529 379 l 757 554 l 700 628 l 479 444 l 488 732 l 392 732 l 397 444 l 181 632 l 119 557 l 347 381 l 72 328 l 92 242 l 364 304 l 232 49 l 317 7 l 439 269 z "},"¶":{"ha":833,"x_min":0,"x_max":0,"o":"m 115 697 b 406 439 115 554 233 439 l 406 -175 l 506 -175 l 506 892 l 669 892 l 669 -175 l 769 -175 l 769 983 l 426 983 b 115 697 242 983 115 879 z "},"§":{"ha":772,"x_min":0,"x_max":0,"o":"m 401 1008 b 133 783 254 1008 133 922 b 240 619 133 707 175 657 b 100 425 147 574 100 513 b 208 251 100 349 138 288 l 385 161 b 510 21 483 111 510 83 b 360 -100 510 -50 450 -100 b 185 21 276 -100 208 -64 l 78 -29 b 351 -200 121 -136 219 -200 b 635 36 514 -200 635 -108 b 539 207 635 114 599 168 b 658 392 617 251 658 314 b 486 601 658 472 613 539 l 346 671 b 250 789 288 700 250 721 b 396 908 250 872 324 908 b 539 821 467 908 521 872 l 643 878 b 401 1008 604 961 510 1008 z m 208 443 b 326 563 208 493 238 529 l 429 511 b 542 375 499 476 542 432 b 451 254 542 329 503 275 l 300 328 b 208 443 239 357 208 396 z "},"©":{"ha":1111,"x_min":0,"x_max":0,"o":"m 556 1008 b 39 492 269 1008 39 779 b 556 -25 39 204 268 -25 b 1072 492 840 -25 1072 201 b 556 1008 1072 779 842 1008 z m 131 492 b 554 933 131 736 315 933 b 981 492 799 933 981 733 b 556 50 981 250 799 50 b 131 492 313 50 131 249 z m 572 807 b 268 492 389 807 268 682 b 576 175 268 308 394 175 b 833 392 703 175 804 258 l 747 392 b 576 250 733 308 664 250 b 360 492 451 250 360 357 b 574 732 360 635 444 732 b 747 597 661 732 729 679 l 832 597 b 572 807 811 731 708 807 z "},"®":{"ha":1111,"x_min":0,"x_max":0,"o":"m 39 492 b 556 -25 39 203 269 -25 b 1072 492 842 -25 1072 204 b 556 1008 1072 776 844 1008 b 39 492 268 1008 39 779 z m 554 933 b 981 492 804 933 981 728 b 556 50 981 250 799 50 b 131 492 313 50 131 249 b 554 933 131 739 318 933 z m 450 190 l 450 450 l 549 450 l 713 190 l 811 190 l 638 457 b 797 622 743 468 797 526 b 590 794 797 739 725 794 l 358 794 l 358 190 z m 576 719 b 706 626 667 719 706 688 b 563 525 706 563 675 525 l 450 525 l 450 719 z "},"™":{"ha":1375,"x_min":0,"x_max":0,"o":"m 657 983 l 657 411 l 749 411 l 749 892 l 751 892 l 940 411 l 1003 411 l 1192 892 l 1194 892 l 1194 411 l 1286 411 l 1286 983 l 1144 983 l 974 549 l 803 983 z m 269 892 l 269 411 l 361 411 l 361 892 l 542 892 l 542 983 l 89 983 l 89 892 z "},"°":{"ha":556,"x_min":0,"x_max":0,"o":"m 278 1000 b 79 801 168 1000 79 914 b 278 603 79 693 164 603 b 476 801 394 603 476 696 b 278 1000 476 911 390 1000 z m 154 801 b 278 925 154 861 207 925 b 401 801 351 925 401 858 b 278 678 401 742 349 678 b 154 801 210 678 154 739 z "},"¦":{"ha":308,"x_min":0,"x_max":0,"o":"m 200 451 l 200 938 l 108 938 l 108 451 z m 108 243 l 108 -243 l 200 -243 l 200 243 z "},"ℓ":{"ha":694,"x_min":0,"x_max":0,"o":"m 100 282 l 138 229 l 219 317 l 219 153 b 396 -19 219 49 283 -19 b 576 57 463 -19 522 7 l 542 107 b 418 53 497 68 456 53 b 314 169 354 53 314 97 l 314 382 b 551 824 469 542 551 685 b 399 1001 551 933 489 1001 b 219 764 292 1001 219 901 l 219 399 z m 314 776 b 399 935 314 872 350 935 b 472 817 443 935 472 888 b 314 465 472 710 418 586 z "},"†":{"ha":772,"x_min":0,"x_max":0,"o":"m 49 610 l 332 610 l 332 -175 l 440 -175 l 440 610 l 724 610 l 724 701 l 440 701 l 440 983 l 332 983 l 332 701 l 49 701 z "},"‡":{"ha":772,"x_min":0,"x_max":0,"o":"m 57 625 l 332 625 l 332 183 l 57 183 l 57 92 l 332 92 l 332 -175 l 440 -175 l 440 92 l 715 92 l 715 183 l 440 183 l 440 625 l 715 625 l 715 717 l 440 717 l 440 983 l 332 983 l 332 717 l 57 717 z "},"℮":{"ha":1356,"x_min":0,"x_max":0,"o":"m 679 -26 b 1149 174 915 -26 1036 38 l 1049 174 b 675 10 949 79 838 10 b 326 160 524 10 401 64 b 315 201 318 169 315 188 l 315 465 b 324 474 315 472 318 474 l 1250 474 b 676 1004 1250 718 1117 1004 b 104 476 321 1004 104 747 b 679 -26 104 207 314 -26 z m 315 511 l 315 782 b 329 822 315 799 321 813 b 671 968 429 925 558 968 b 1024 819 772 968 928 939 b 1040 781 1033 808 1040 796 l 1040 511 b 1032 503 1040 504 1036 503 l 324 503 b 315 511 318 503 315 504 z "},"٪":{"ha":750,"x_min":0,"x_max":0,"o":"m 186 694 l 299 806 l 186 917 l 75 806 z m 204 -31 l 608 886 l 528 917 l 124 0 z m 564 0 l 675 110 l 564 221 l 453 111 z "},"ˉ":{"ha":333,"x_min":0,"x_max":0,"o":"m 358 917 l -25 917 l -25 833 l 358 833 z "},"´":{"ha":333,"x_min":0,"x_max":0,"o":"m 368 983 l 215 983 l 71 783 l 169 783 z "},"˘":{"ha":333,"x_min":0,"x_max":0,"o":"m -46 975 b 165 792 -39 857 43 792 b 379 975 288 792 367 854 l 313 975 b 167 867 292 896 251 867 b 22 975 94 867 38 903 z "},"ˇ":{"ha":333,"x_min":0,"x_max":0,"o":"m -50 983 l 104 783 l 231 783 l 383 983 l 278 983 l 171 842 l 63 983 z "},"¸":{"ha":333,"x_min":0,"x_max":0,"o":"m 157 0 l 71 -118 l 99 -144 b 153 -133 117 -139 135 -133 b 225 -186 193 -133 225 -153 b 140 -243 225 -224 189 -243 b 40 -221 107 -243 72 -236 l 17 -272 b 153 -301 60 -293 108 -301 b 317 -179 251 -301 317 -253 b 204 -83 317 -119 264 -83 b 157 -89 182 -83 169 -87 l 219 0 z "},"ˆ":{"ha":333,"x_min":0,"x_max":0,"o":"m 54 783 l 163 925 l 272 783 l 385 783 l 229 983 l 103 983 l -51 783 z "},"¨":{"ha":333,"x_min":0,"x_max":0,"o":"m 29 950 b -46 875 -11 950 -46 914 b 29 800 -46 835 -11 800 b 104 875 69 800 104 835 b 29 950 104 914 69 950 z m 304 950 b 229 875 264 950 229 915 b 304 800 229 832 264 800 b 379 875 347 800 379 832 b 304 950 379 915 344 950 z "},"˙":{"ha":333,"x_min":0,"x_max":0,"o":"m 167 950 b 92 875 124 950 92 915 b 167 800 92 832 124 800 b 242 875 211 800 242 831 b 167 950 242 915 210 950 z "},"˝":{"ha":333,"x_min":0,"x_max":0,"o":"m 281 783 l 479 983 l 338 983 l 186 783 z m 63 783 l 242 983 l 108 983 l -31 783 z "},"¯":{"ha":333,"x_min":0,"x_max":0,"o":"m 358 917 l -25 917 l -25 833 l 358 833 z "},"˛":{"ha":333,"x_min":0,"x_max":0,"o":"m 151 0 b 25 -189 75 -49 25 -126 b 154 -307 25 -256 83 -307 b 282 -253 203 -307 249 -286 l 253 -196 b 178 -224 238 -211 211 -224 b 117 -160 138 -224 117 -197 b 222 0 117 -108 156 -50 z "},"˚":{"ha":333,"x_min":0,"x_max":0,"o":"m 167 1033 b 29 896 90 1033 29 972 b 167 758 29 819 90 758 b 304 896 244 758 304 819 b 167 1033 304 975 244 1033 z m 88 896 b 167 975 88 936 124 975 b 246 896 210 975 246 936 b 167 817 246 853 211 817 b 88 896 122 817 88 853 z "},"˜":{"ha":333,"x_min":0,"x_max":0,"o":"m 332 950 b 267 889 321 917 306 889 b 74 944 217 889 150 944 b -65 800 1 944 -51 888 l 1 800 b 65 861 10 833 33 861 b 269 806 122 861 196 806 b 399 950 338 806 383 857 z "},"ؕ":{"ha":0,"x_min":0,"x_max":0,"o":"m -185 767 l 171 767 b 185 846 181 794 185 821 b 63 982 185 926 138 982 b -61 918 15 982 -28 957 l -61 1058 l -117 1058 l -117 822 l -185 822 z m 58 926 b 131 847 101 926 131 896 b 128 822 131 839 129 831 l -64 822 b 58 926 -36 892 14 926 z "},"﮲":{"ha":0,"x_min":0,"x_max":0,"o":"m 1 758 b 68 828 42 758 68 788 b 1 896 68 867 42 896 b -68 828 -40 896 -68 867 b 1 758 -68 788 -40 758 z "},"﮳":{"ha":0,"x_min":0,"x_max":0,"o":"m 1 -258 b 68 -190 42 -258 68 -229 b 1 -121 68 -150 42 -121 b -68 -190 -40 -121 -68 -150 b 1 -258 -68 -229 -40 -258 z "},"﮴":{"ha":0,"x_min":0,"x_max":0,"o":"m -97 758 b -29 828 -57 758 -29 788 b -97 896 -29 867 -57 896 b -165 828 -136 896 -165 867 b -97 758 -165 788 -136 758 z m 99 758 b 165 828 138 758 165 788 b 99 896 165 867 138 896 b 29 828 58 896 29 867 b 99 758 29 788 58 758 z "},"﮵":{"ha":0,"x_min":0,"x_max":0,"o":"m -97 -258 b -29 -190 -57 -258 -29 -229 b -97 -121 -29 -150 -57 -121 b -165 -190 -136 -121 -165 -150 b -97 -258 -165 -229 -136 -258 z m 99 -258 b 165 -190 138 -258 165 -229 b 99 -121 165 -150 138 -121 b 29 -190 58 -121 29 -150 b 99 -258 29 -229 58 -258 z "},"﮹":{"ha":0,"x_min":0,"x_max":0,"o":"m -97 -260 b -29 -190 -57 -260 -29 -231 b -97 -122 -29 -151 -57 -122 b -165 -190 -136 -122 -165 -151 b -97 -260 -165 -231 -136 -260 z m 99 -260 b 165 -190 138 -260 165 -231 b 99 -122 165 -151 138 -122 b 29 -190 58 -122 29 -151 b 99 -260 29 -231 58 -260 z m 3 -414 b 71 -346 43 -414 71 -385 b 3 -276 71 -306 43 -276 b -65 -346 -36 -276 -65 -306 b 3 -414 -65 -385 -36 -414 z "},"﮶":{"ha":0,"x_min":0,"x_max":0,"o":"m 4 915 b 72 985 44 915 72 944 b 4 1053 72 1022 44 1053 b -64 985 -35 1053 -64 1022 b 4 915 -64 944 -35 915 z m -97 758 b -29 828 -57 758 -29 788 b -97 896 -29 867 -57 896 b -165 828 -136 896 -165 867 b -97 758 -165 788 -136 758 z m 99 758 b 165 828 138 758 165 788 b 99 896 165 867 138 896 b 29 828 58 896 29 867 b 99 758 29 788 58 758 z "},"ٰ":{"ha":0,"x_min":0,"x_max":0,"o":"m -28 771 l -19 771 l 28 788 l 28 1015 l -28 1015 z "},"ٖ":{"ha":0,"x_min":0,"x_max":0,"o":"m -28 -386 l -19 -386 l 28 -369 l 28 -142 l -28 -142 z "},"ٔ":{"ha":0,"x_min":0,"x_max":0,"o":"m -112 807 l -112 753 l 113 753 l 113 807 l -7 807 b -26 867 -19 828 -26 849 b 44 924 -26 906 4 924 b 90 918 61 924 78 921 l 100 971 b 33 979 81 975 57 979 b -83 875 -35 979 -83 939 b -64 807 -83 851 -76 829 z "},"ٕ":{"ha":0,"x_min":0,"x_max":0,"o":"m -112 -292 l -112 -346 l 113 -346 l 113 -292 l -7 -292 b -26 -232 -19 -271 -26 -250 b 44 -175 -26 -193 4 -175 b 90 -181 61 -175 78 -178 l 100 -128 b 33 -119 81 -124 57 -119 b -83 -224 -35 -119 -83 -160 b -64 -292 -83 -247 -76 -269 z "},"ً":{"ha":0,"x_min":0,"x_max":0,"o":"m -157 883 l 153 931 l 161 983 l 157 985 l -153 938 l -161 885 z m -157 756 l 153 803 l 161 856 l 157 857 l -153 810 l -161 757 z "},"ٌ":{"ha":0,"x_min":0,"x_max":0,"o":"m 103 1069 b 6 961 49 1069 6 1017 b 108 876 6 901 56 876 b 128 878 115 876 122 876 b 47 817 113 842 83 817 b -97 917 -8 817 -33 917 b -192 850 -121 917 -156 903 l -157 818 b -101 864 -139 843 -117 864 b 43 764 -62 864 -39 764 b 192 943 114 764 192 831 b 103 1069 192 1018 156 1069 z m 119 928 b 54 968 75 928 54 942 b 99 1017 54 992 71 1017 b 142 942 131 1017 142 982 l 142 929 b 119 928 133 928 126 928 z "},"ٍ":{"ha":0,"x_min":0,"x_max":0,"o":"m -157 -226 l 153 -179 l 161 -126 l 157 -125 l -153 -172 l -161 -225 z m -157 -340 l 153 -293 l 161 -240 l 157 -239 l -153 -286 l -161 -339 z "},"َ":{"ha":0,"x_min":0,"x_max":0,"o":"m -157 756 l 153 803 l 161 856 l 157 857 l -153 810 l -161 757 z "},"ُ":{"ha":0,"x_min":0,"x_max":0,"o":"m 25 1069 b -72 961 -29 1069 -72 1017 b 31 876 -72 901 -22 876 b 50 878 38 876 44 876 b -35 817 33 842 3 817 b -92 832 -54 817 -74 822 l -114 785 b -35 764 -93 772 -68 764 b 114 943 42 764 114 822 b 25 1069 114 1018 78 1069 z m 42 928 b -24 968 -3 928 -24 942 b 19 1017 -24 992 -8 1017 b 64 942 51 1017 64 981 l 64 929 b 42 928 56 928 49 928 z "},"ِ":{"ha":0,"x_min":0,"x_max":0,"o":"m -157 -226 l 153 -179 l 161 -126 l 157 -125 l -153 -172 l -161 -225 z "},"ّ":{"ha":0,"x_min":0,"x_max":0,"o":"m 140 954 l 101 939 b 113 876 108 917 113 894 b 71 835 113 851 103 835 b 22 856 50 835 32 844 l 22 857 b 14 911 22 874 19 892 l -26 901 b -25 875 -25 892 -25 883 b -65 824 -25 840 -37 824 b -114 874 -96 824 -114 839 b -108 913 -114 885 -112 897 l -146 922 b -161 854 -157 897 -161 875 b -65 764 -161 801 -128 764 b 10 803 -31 764 -4 778 b 75 778 22 790 44 778 b 161 874 129 778 161 818 b 140 954 161 897 156 925 z "},"ْ":{"ha":0,"x_min":0,"x_max":0,"o":"m 0 760 b 96 854 61 760 96 794 b 0 969 96 908 61 969 b -96 854 -61 969 -96 908 b 0 760 -96 794 -61 760 z m 0 814 b -42 858 -35 814 -42 838 b 0 914 -42 889 -26 914 b 42 858 26 914 42 889 b 0 814 42 838 35 814 z "},"ٓ":{"ha":0,"x_min":0,"x_max":0,"o":"m 96 760 b 208 821 138 760 178 774 l 167 861 b 90 828 132 833 119 828 b -104 865 36 828 -53 865 b -208 817 -128 865 -167 856 l -171 772 b -108 796 -156 783 -131 796 b 96 760 -61 796 25 760 z "},"٘":{"ha":0,"x_min":0,"x_max":0,"o":"m -89 929 b -111 843 -103 901 -111 874 b 3 742 -111 778 -67 742 b 111 858 71 742 111 785 l 111 929 l 56 929 l 56 858 b 3 797 56 815 40 797 b -56 847 -36 797 -56 814 b -40 913 -56 865 -53 881 z "}}}
